<svg width="382" height="371" viewBox="0 0 382 371" fill="none" xmlns="http://www.w3.org/2000/svg">
<path d="M366.823 178.51C365.748 181.58 364.341 182.96 363.808 184.49L361.797 183.49C361.255 177.64 363.215 179.22 366.823 178.5V178.51Z" fill="#FDFDFD"/>
<path d="M339.683 81.76C340.417 83.7 337.763 85.93 337.673 86.75C337.019 86.68 336.326 86.8 335.662 86.75C335.16 83.24 335.853 81.83 339.683 81.76Z" fill="#FDFDFD"/>
<path d="M381.901 119.66V122.65C379.167 127.15 377.267 129.35 371.849 127.64C375.88 126.92 374.031 117.63 375.87 114.68C371.497 114.91 372.643 124.51 371.849 127.64C356.741 122.87 374.533 102.85 381.901 119.66Z" fill="#7BB1C2"/>
<path d="M19.6793 113.1C19.9407 113.17 20.011 114.73 20.584 114.74C23.097 114.77 24.4641 111.18 28.0627 115.66H21.0363C22.514 121.91 17.2267 121.54 16.2215 122.87C14.7639 124.82 14.6936 132.17 7.96881 130.18L2.89258 123.22C6.09915 122.26 5.92827 119.23 7.17471 117.88C7.70746 117.3 10.3813 118.1 11.5272 116.7C14.0804 113.57 9.06447 110.43 19.6592 113.1H19.6793Z" fill="#7BB1C2"/>
<path d="M0.932085 200.45C-1.26929 202.53 11.3459 206.92 12.9944 206.42L0.932085 200.45C4.65131 191.69 17.2665 198.47 13.4669 207.41C10.4714 214.47 -3.73202 211.42 0.932085 200.45Z" fill="#77ADBB"/>
<path d="M92.3957 15.91L85.8117 23.9L76.4131 15.43L78.3732 11.49L82.7961 9.94995L92.3957 15.91Z" fill="#7BB1C2"/>
<path d="M124.571 38.8701C124.742 42.9201 126.069 54.5101 120.078 54.7901C114.087 55.0701 114.067 45.9001 114.529 41.8601L123.566 42.8501C123.596 41.5301 123.526 40.1901 123.566 38.8701H124.571Z" fill="#7BB1C2"/>
<path d="M22.7751 84.93C32.2842 82.26 29.7411 94.99 22.5439 97.7L17.0957 90.38C17.1962 89.67 21.8 85.2 22.7751 84.93Z" fill="#7BB1C2"/>
<path d="M226.096 23.9099C222.689 26.8399 220.93 32.7399 214.476 28.9599C211.933 22.3899 217.803 20.1899 222.075 16.9299L226.096 23.9099Z" fill="#77ADBB"/>
<path d="M84.364 94.7299C77.8504 93.7199 74.3322 77.6299 75.5384 72.4999C77.0462 66.1099 93.5817 61.3899 99.7134 61.8099L107.484 77.7699C107.544 78.2299 109.675 81.0399 108.438 83.0099C108.388 83.2099 105.664 85.6799 105.473 85.7499C104.166 86.2199 100.487 85.9199 96.7581 87.5799C93.9737 88.8199 85.319 92.2599 84.364 94.7299Z" fill="#FBFCFC"/>
<path d="M105.473 85.75L104.86 92.62L88.7166 99.69C86.0126 100.37 86.2338 97.9 84.3641 96.72C84.4847 96.11 84.1832 95.18 84.3641 94.73C85.319 92.26 93.9738 88.82 96.7582 87.58C100.487 85.92 104.166 86.22 105.473 85.75Z" fill="#7BB1C2"/>
<path d="M84.3641 96.7199C75.6892 91.2699 68.1503 74.3199 76.795 66.7699C77.8303 65.8699 91.5914 60.3099 93.1595 60.0599C104.579 58.2299 106.297 69.1799 107.484 77.7699L99.7134 61.8099C93.5817 61.3899 77.0463 66.1099 75.5385 72.4999C74.3322 77.6299 77.8404 93.7199 84.3641 94.7299C84.1831 95.1899 84.4847 96.1099 84.3641 96.7199Z" fill="#77ADBB"/>
<path d="M99.4417 110.69L101.462 110.19L99.4417 109.69C98.8487 106.15 99.5221 103.9 103.965 103.6C116.59 102.75 105.031 123.25 99.4417 110.69Z" fill="#7BB1C2"/>
<path d="M222.075 16.9301C223.402 15.9101 224.588 12.7201 226.84 12.1001C240.038 14.5701 230.82 19.8501 226.096 23.9101L222.075 16.9301Z" fill="#7BB1C2"/>
<path d="M73.3064 55.8299C73.8492 56.0499 74.4523 56.8799 75.3167 56.8299C75.5077 57.1499 79.9004 57.4199 76.8245 62.8199L70.5622 64.0999C65.6468 61.8799 65.9584 52.7999 73.3064 55.8299Z" fill="#7BB1C2"/>
<path d="M189.909 60.8199C180.822 66.4899 175.817 55.4399 181.154 50.1399C187.979 43.3499 200.002 54.5199 189.909 60.8199L182.883 49.8499C183.436 52.8799 186.562 59.7099 189.909 60.8199Z" fill="#7BB1C2"/>
<path d="M81.0966 36.1301C84.9565 39.8401 79.237 47.2301 73.7888 42.8701C69.6977 39.5901 76.3219 31.5501 81.0966 36.1301Z" fill="#7BB1C2"/>
<path d="M166.79 33.8899C177.224 37.6199 170.268 49.7599 161.764 44.3599L166.79 34.8899V33.8899Z" fill="#7BB1C2"/>
<path d="M367.828 84.75L356.781 87.74L356.992 82.48L360.531 78.95L366.843 80.25L367.828 84.75Z" fill="#7BB1C2"/>
<path d="M59.2334 184.49C59.6154 185.12 61.0729 185.28 61.2438 185.49C61.6459 186 60.6407 188.31 64.2594 187.48C64.2493 195.71 51.5135 193.19 54.308 186.12C55.1624 183.66 57.987 184.92 59.2334 184.48V184.49Z" fill="#77ADBB"/>
<path d="M169.806 1.96997C175.887 3.04997 176.279 7.77997 172.781 12.41L166.79 13.94L169.796 2.96997V1.96997H169.806Z" fill="#7BB1C2"/>
<path d="M297.455 234.37L295.977 236.36H286.398L286.388 248.74L295.977 249.32L297.455 251.31C282.407 253.38 284.025 246.26 284.387 234.35H297.455V234.37Z" fill="#E4E6E5"/>
<path d="M171.815 106.7C169.564 112.05 169.654 116.06 170.81 121.66C170.599 122.03 170.016 122.3 169.805 122.66C168.79 120.83 168.327 118.67 167.794 116.68C167.463 115.44 166.97 114.37 166.789 113.69C166.447 112.4 166.106 111 165.784 109.7V108.7C165.834 108.04 165.744 107.37 165.784 106.71C166.95 106.86 170.911 106.96 171.815 106.71V106.7Z" fill="#FBFCFC"/>
<path d="M335.663 218.41C335.753 219.02 334.346 220.4 334.155 220.4H314.051C312.523 220.4 308.553 220.08 308.522 218.41H335.663Z" fill="#9EC8D3"/>
<path d="M71.296 218.41C71.1754 219.37 71.4468 220.46 71.296 221.4C70.8637 224.04 69.7882 226.57 70.2807 229.38H68.2804C70.532 221.75 65.7775 221.66 65.486 221.19C64.8125 220.09 65.4357 218.68 65.2648 218.41L66.27 216.42C66.5917 216.77 70.3712 217.97 71.296 218.41Z" fill="#9EC8D3"/>
<path d="M350.731 215.42L354.008 221.15C357.777 220.96 357.837 223.84 355.254 226.37L352.741 225.88C356.219 220.42 343.704 218.31 350.731 215.41V215.42Z" fill="#9EC8D3"/>
<path d="M71.2965 218.41C71.4473 217.25 71.3669 213.39 71.7891 213.43L74.3222 218.4L77.3176 214.42C77.0865 215.77 77.7097 217.83 77.3981 218.93C76.5839 221.75 74.0206 221.18 71.2965 221.4C71.4473 220.46 71.1759 219.37 71.2965 218.41Z" fill="#FBFCFC"/>
<path d="M347.714 215.42L347.594 220.26L342.709 220.4L340.698 225.38L341.703 216.41L345.714 218.41L347.714 215.42Z" fill="#9EC8D3"/>
<path d="M61.2441 215.41C62.0382 213.24 60.9124 207.08 64.2497 207.43C64.0386 210.2 64.2899 214.26 66.2701 216.4L65.2649 218.39C65.1845 218.27 64.8327 218.99 63.2545 216.4C63.0535 216.08 63.3852 215.01 63.2445 214.41L61.2441 215.4V215.41Z" fill="#7BB1C2"/>
<path d="M368.834 50.8401C370.955 52.2701 370.724 50.5801 371.849 53.8301H370.844L367.919 52.9001L361.808 61.3201L365.818 63.8001V64.8001L358.792 60.8301C362.481 59.5901 364.371 55.4901 366.823 52.8301C367.356 52.2501 368.552 51.9201 368.834 50.8401Z" fill="#77ADBB"/>
<path d="M296.45 210.43H293.444C295.796 206.18 293.605 201.87 293.454 197.47L296.45 210.43Z" fill="#D5D7D9"/>
<path d="M59.2335 235.36C59.1732 235.26 57.404 235.81 57.1729 234.73L58.741 229.38L63.2643 231.37L60.2487 235.36H59.2436H59.2335Z" fill="#EAECEB"/>
<path d="M163.764 5.94995L165.774 12.93C162.749 13.13 161.904 9.65995 161.733 7.45995L163.764 5.94995Z" fill="#F5F9F9"/>
<path d="M97.4414 28.8899L101.442 20.9199C101.392 23.5699 101.191 28.8899 97.4414 28.8899Z" fill="#F8FAFB"/>
<path d="M12.9948 93.73C11.8389 95.49 11.9394 100.17 8.9841 99.71C8.28047 95.03 11.2056 95.19 12.9948 93.73Z" fill="#F8FAFB"/>
<path d="M363.808 50.8201L358.792 52.8301L362.31 48.8701L363.808 50.8201Z" fill="#F5F9F9"/>
<path d="M162.769 61.8101L160.759 57.8201C161.251 58.2001 163.382 57.8901 163.744 59.4701C164.166 60.7201 162.759 61.6901 162.769 61.8101Z" fill="#FBFCFC"/>
<path d="M328.626 204.44C328.506 204.25 325.571 205.01 326.626 201.45L328.626 204.44L333.17 203.46L333.642 205.42L327.611 206.42C327.44 206.32 328.677 204.53 328.626 204.44Z" fill="#F5F9F9"/>
<path d="M79.3376 209.44H76.332V212.42H79.3376V209.44Z" fill="#FBFCFC"/>
<path d="M339.673 200.45L334.667 198.47L338.044 197.6L339.673 200.45Z" fill="#F5F9F9"/>
<path d="M310.532 139.61L304.501 132.89C302.049 130.5 306.542 128.32 307.537 130.14L305.527 132.12L313.558 137.64C314.141 140.81 312.191 139.23 310.543 139.62L310.532 139.61Z" fill="#77ADBB"/>
<path d="M358.782 54.8401H356.781V58.8201H358.782V54.8401Z" fill="#F5F9F9"/>
<path d="M61.2441 226.39C62.4504 226.57 64.8327 225.82 65.275 226.9V228.38C63.9381 228.34 62.571 228.47 61.2441 228.38V226.39Z" fill="#EAECEB"/>
<path d="M124.572 38.8701H123.567C123.577 38.2801 121.546 35.4601 124.069 33.8701C125.095 34.9401 124.512 37.3701 124.572 38.8701Z" fill="#F8FAFB"/>
<path d="M303.496 132.64V136.61H301.496V132.64H303.496Z" fill="#F8FAFB"/>
<path d="M68.2806 234.37C67.8283 236.84 68.9239 237.3 65.2751 238.36C64.9031 236.51 66.5718 235.82 67.2754 234.37H68.2806Z" fill="#F5F9F9"/>
<path d="M368.834 50.8399C368.553 51.9199 367.357 52.2599 366.824 52.8299L365.809 49.8499L368.754 48.9199C369.035 49.4599 368.704 50.7599 368.834 50.8399Z" fill="#F5F9F9"/>
<path d="M365.818 64.81V63.81L371.829 61.3L365.818 64.81Z" fill="#F5F9F9"/>
<path d="M67.2752 234.37C67.3155 234.28 65.3654 232.64 66.7827 232.37H69.2856C69.7279 233.58 68.3106 234.25 68.2804 234.37H67.2752Z" fill="#FBFCFC"/>
<path d="M61.2438 185.49C61.6258 185.85 65.1842 184.4 64.2594 187.48C60.6407 188.31 61.6459 185.99 61.2438 185.49C61.0729 185.28 59.6154 185.12 59.2334 184.49C59.6254 184.35 60.0778 182.33 61.2337 182.49C61.4147 183.26 61.0226 185.27 61.2438 185.49Z" fill="#FBFCFC"/>
<path d="M63.2542 216.41C62.8722 216.64 62.5606 217.27 62.249 217.41C61.7464 217.63 59.6154 218.36 59.2334 218.41C59.3038 217.21 61.0126 216.04 61.2438 215.42L63.2441 214.43C63.3849 215.03 63.0632 216.1 63.2542 216.42V216.41Z" fill="#FBFCFC"/>
<path d="M162.769 34.8899L161.754 37.8699H159.764L160.749 35.3799L162.769 34.8899Z" fill="#F5F9F9"/>
<path d="M61.2442 226.39V228.38C60.8924 228.36 60.4903 228.46 60.239 228.38L59.2338 227.38C59.0026 227.1 57.6155 227.25 58.2387 225.39C59.5052 224.97 60.5808 226.28 61.2442 226.38V226.39Z" fill="#FBFCFC"/>
<path d="M194.935 88.74L191.92 91.73C192.121 90.95 191.588 89.14 191.96 88.77C192.352 88.37 194.403 89.01 194.935 88.74Z" fill="#FBFCFC"/>
<path d="M75.317 56.8301C74.4526 56.8901 73.8494 56.0601 73.3066 55.8301L75.307 53.8401C75.508 54.6701 75.0557 56.3801 75.317 56.8301Z" fill="#FBFCFC"/>
<path d="M248.211 39.8699C250.472 36.4399 248.663 30.8199 249.216 26.8999H264.294V40.8599C258.604 42.3899 253.588 40.9599 248.221 42.8399L266.304 41.8499C263.882 46.6299 248.331 46.6699 246.2 40.8499C246.542 40.1599 248.11 40.0099 248.211 39.8499V39.8699Z" fill="#7BB1C2"/>
<path d="M252.231 14.94C247.175 14.13 246.954 10.8 249.718 6.95996H264.294C265.238 9.92996 265.771 11.93 264.002 14.74C263.379 15.72 259.81 13.14 262.283 17.93L259.72 14.88C257.649 14.74 255.217 15.25 253.236 14.95C252.905 14.9 252.563 15 252.231 14.95V14.94Z" fill="#9EC8D3"/>
<path d="M246.2 40.8701C243.989 34.8301 245.728 28.1401 245.205 21.9301C247.195 20.9201 248.09 25.0701 248.21 25.9101C248.844 30.0901 247.758 35.5101 248.21 39.8701C248.11 40.0201 246.542 40.1801 246.2 40.8701Z" fill="#9EC8D3"/>
<path d="M248.21 25.9099H265.309V40.8699C264.987 40.9299 264.615 40.7899 264.303 40.8699V26.9099H249.225C248.673 30.8299 250.482 36.4399 248.22 39.8799C247.768 35.5099 248.853 30.0999 248.22 25.9199L248.21 25.9099Z" fill="#72A8B3"/>
<path d="M266.304 41.8699V19.9299C267.57 25.0399 268.485 37.5699 266.304 41.8699Z" fill="#72A8B3"/>
<path d="M266.304 40.8699V41.8699L248.221 42.8599C253.598 40.9799 258.604 42.4099 264.294 40.8799C264.605 40.7999 264.977 40.9399 265.299 40.8799H266.304V40.8699Z" fill="#FBFCFC"/>
<path d="M253.236 14.94V17.93L250.23 16.92L252.231 14.94C252.563 14.99 252.904 14.89 253.236 14.94Z" fill="#FBFCFC"/>
<path d="M19.026 100.72L16.0205 102.7V100.72H19.026Z" fill="#F8FAFB"/>
<path d="M169.806 1.96988V2.96988H166.79C168.127 -0.450119 169.192 1.85988 169.806 1.96988Z" fill="#F5F9F9"/>
<path d="M80.3331 213.43L79.8506 216.41L78.3428 213.43H80.3331Z" fill="#FBFCFC"/>
<path d="M198.956 19.92C205.771 18.49 199.328 29.35 197.458 29.65L193.93 27.9C194.171 27.2 193.769 25.81 193.93 24.91C194.02 24.38 195.377 23.12 194.935 21.92C195.528 21.83 196.292 21.14 196.945 20.92L198.956 19.92Z" fill="#7BB1C2"/>
<path d="M195.931 1.97996C192.734 8.83996 189.427 17.67 185.376 23.94C184.602 25.13 185.577 26.49 182.873 25.9C186.07 19.04 189.377 10.21 193.428 3.93996C194.202 2.74996 193.227 1.38996 195.931 1.97996Z" fill="#F5F9F9"/>
<path d="M196.945 20.92C196.945 17.2 199.539 14.49 200.735 11.21C201.549 8.94995 199.83 2.00995 204.967 7.42995L198.956 19.93L196.945 20.93V20.92Z" fill="#F5F9F9"/>
<path d="M194.935 21.92C195.377 23.12 194.02 24.38 193.93 24.91L191.93 21.92L190.432 23.9L188.914 20.93C190.663 19.88 194.634 21.97 194.935 21.92Z" fill="#F5F9F9"/>
<path d="M193.93 27.8999C192.935 30.8099 193.136 32.8799 188.914 32.8799L189.407 29.8799L190.904 31.8799L193.93 27.8999Z" fill="#F5F9F9"/>
<path d="M186.05 29.7299C186.241 29.8499 190.965 28.3999 186.462 30.8399L182.894 28.3999C185.336 25.1499 185.075 29.0999 186.05 29.7199V29.7299Z" fill="#F5F9F9"/>
<path d="M199.952 0L204.977 3.46L197.951 1.95L199.952 0Z" fill="#F5F9F9"/>
<path d="M166.79 33.89V34.89L164.77 33.41C165.785 31.63 166.629 33.84 166.79 33.9V33.89Z" fill="#F5F9F9"/>
<path d="M329.621 200.45L327.621 200.44L328.636 197.47L329.621 200.45Z" fill="#F5F9F9"/>
<path d="M120.551 30.8999H118.551V32.8799H120.551V30.8999Z" fill="#F8FAFB"/>
<path d="M360.792 88.75H358.792V90.73H360.792V88.75Z" fill="#F5F9F9"/>
<path d="M371.85 53.8301C371.9 53.9801 373.981 55.0701 372.342 55.8301L370.845 53.8301H371.85Z" fill="#F5F9F9"/>
<path d="M335.653 202.44L332.657 201.46L335.653 200.45V202.44Z" fill="#F5F9F9"/>
<path d="M314.553 131.64H312.553V133.62H314.553V131.64Z" fill="#F8FAFB"/>
<path d="M368.833 85.76H366.833V87.74H368.833V85.76Z" fill="#F5F9F9"/>
<path d="M160.758 38.8799H158.758V40.8599H160.758V38.8799Z" fill="#F5F9F9"/>
<path d="M79.0968 114.92C84.0122 123.76 75.0358 126.2 68.301 128.64C67.0445 124.29 66.6826 120.4 62.2598 118.68C68.0597 117.56 72.945 111.1 79.0968 114.92Z" fill="#7BB1C2"/>
<path d="M65.2553 131.61L56.2186 133.62C55.6054 129.71 62.8026 133 64.7728 129.65L65.2553 131.62V131.61Z" fill="#F5F9F9"/>
<path d="M54.2083 126.65H52.208V128.63H54.2083V126.65Z" fill="#F5F9F9"/>
<path d="M164.78 80.76C164.579 84.77 163.795 82.55 163.774 82.75L164.78 80.76Z" fill="#FBFCFC"/>
<path d="M152.717 18.9201V19.9201C150.305 19.5201 148.144 20.9801 145.681 19.9201C143.057 18.7801 141.218 13.6101 140.444 13.1701C133.015 8.8901 133.588 23.2401 133.618 26.9101C133.528 26.7601 131.91 27.5101 131.558 26.3101C130.08 21.3001 132.804 8.0201 140.635 11.4501C144.897 18.0101 146.294 16.8501 152.717 18.9201Z" fill="#7BB1C2"/>
<path d="M152.717 18.9202C153.984 19.3302 156.778 18.2502 158.306 19.8502C166.901 25.2602 149.591 40.4602 143.681 35.8902C145.852 35.8302 147.923 35.0602 149.712 33.8802C151.883 32.4602 152.969 31.6702 149.712 31.8902C151.3 29.6402 153.491 29.8102 154.738 28.9002C155.421 28.4002 157.341 28.7902 158.256 26.9202L158.618 22.6002C157.361 20.1002 154.989 20.3002 152.727 19.9202V18.9202H152.717Z" fill="#77ADBB"/>
<path d="M147.691 28.9001C147.128 17.9701 162.477 22.0701 154.727 28.9001C153.481 29.8201 151.29 29.6401 149.701 31.8901C149.571 32.0801 149.792 32.5701 149.701 32.8901C147.721 32.2301 147.781 30.5701 147.691 28.9001Z" fill="#7BB1C2"/>
<path d="M152.717 19.92C154.979 20.3 157.351 20.09 158.608 22.6L158.246 26.92C157.331 28.79 155.401 28.4 154.728 28.9C162.478 22.07 147.129 17.97 147.691 28.9C144.103 28.83 144.797 22.36 145.681 19.92C148.144 20.98 150.305 19.52 152.717 19.92Z" fill="#F5F9F9"/>
<path d="M139.649 35.8801C139.71 35.9601 141.056 34.4801 141.639 35.3601L140.644 37.8701L139.649 35.8801C137.769 37.3001 132.945 31.0801 132.854 30.6301C132.522 29.1001 133.628 28.1101 133.618 26.9001C135.206 29.4501 137.88 33.5801 139.649 35.8801Z" fill="#F8FAFB"/>
<path d="M149.702 31.89C152.958 31.68 151.873 32.46 149.702 33.88V32.88C149.792 32.56 149.571 32.07 149.702 31.88V31.89Z" fill="#F8FAFB"/>
<path d="M311.528 129.65C311.86 131.32 309.91 130.53 308.522 130.62V129.65H311.528Z" fill="#F8FAFB"/>
<path d="M286.408 212.42L290.419 211.43L287.413 214.42L286.408 213.42V212.42Z" fill="#D5D7D9"/>
<path d="M310.532 139.61L307.527 140.6C307.276 138.78 309.457 139.87 310.532 139.61Z" fill="#F8FAFB"/>
<path d="M98.4261 19.9199L96.4258 19.9099L97.9436 17.9299L98.4261 19.9199Z" fill="#F8FAFB"/>
<path d="M89.3793 24.9199C90.1332 25.4199 88.4546 26.6099 87.379 25.8899C86.6251 25.3899 88.3038 24.1999 89.3793 24.9199Z" fill="#F8FAFB"/>
<path d="M12.9951 93.73C13.7892 93.08 13.8093 91.09 16.0006 91.75C16.3123 93.38 13.4877 92.97 12.9951 93.73Z" fill="#7BB1C2"/>
<path d="M366.824 142.6C370.533 146.86 376.383 151.51 371.588 157.29L367.296 158.61L357.787 149.07L365.819 142.6H366.824Z" fill="#7BB1C2"/>
<path d="M364.803 139.61L362.793 139.12L361.808 136.63L363.818 137.11L364.803 139.61Z" fill="#F8FAFB"/>
<path d="M353.736 140.61L356.762 146.59L351.756 142.09L353.736 140.61Z" fill="#F8FAFB"/>
<path d="M365.818 142.6C363.989 137.22 366.421 142.13 366.823 142.6H365.818Z" fill="#F8FAFB"/>
<path d="M353.747 138.61C353.244 139.36 352.048 137.7 352.761 136.63C353.264 135.88 354.46 137.54 353.747 138.61Z" fill="#F8FAFB"/>
<path d="M60.2386 235.36L60.7412 238.36C59.8064 237.89 59.8064 236.28 59.2334 235.36H60.2386Z" fill="#F5F9F9"/>
<path d="M99.4412 109.69L101.462 110.19L99.4412 110.69C99.3406 110.46 99.5015 110.05 99.4412 109.69Z" fill="#FBFCFC"/>
<path d="M70.2906 277.25C63.5357 280.47 55.655 278.17 52.8304 271.15C50.3475 264.99 51.9257 253.51 57.213 249.33C56.9517 253.19 54.2276 252.81 55.1725 257.83C55.7354 260.77 58.0071 262.52 57.987 264.64C57.9569 267.52 52.5891 268.05 54.1974 272.25L70.2806 276.24V277.24L70.2906 277.25Z" fill="#7BB1C2"/>
<path d="M73.3061 249.33V251.32C70.7328 250.88 69.8784 252.32 68.2802 253.31C67.858 253.57 66.6417 253.29 66.2698 254.31C64.179 253.49 60.128 250.56 59.2334 248.34C65.928 244.16 66.9332 249.48 69.9387 250.06C71.1651 250.3 72.8638 249.2 73.2961 249.32L73.3061 249.33Z" fill="#7BB1C2"/>
<path d="M70.2903 266.28L73.6979 264.35L76.3316 269.27L81.3173 266.77C77.0452 270.16 75.0248 275 70.2803 277.25V276.25L74.2407 272.6C72.3409 270.88 72.9943 269.67 72.2907 268.27C71.8182 267.33 71.2754 266.68 70.2803 266.28H70.2903Z" fill="#72A8B3"/>
<path d="M83.3582 254.31C83.5391 255.61 84.2829 257.03 84.3633 258.3C84.5041 260.49 84.7755 263.62 82.353 264.28C83.3783 262.31 81.1166 254.82 81.3478 254.31C81.4382 254.12 83.2878 254.45 83.3582 254.31Z" fill="#77ADBB"/>
<path d="M73.3066 249.33C75.9403 250.03 79.0664 250.01 81.3583 251.84L73.3066 251.33V249.34V249.33Z" fill="#77ADBB"/>
<path d="M72.3014 268.28H69.2959L70.291 266.29C71.2862 266.69 71.829 267.35 72.3014 268.28Z" fill="#FBFCFC"/>
<path d="M68.2799 253.32C68.5312 257.03 67.4758 254.79 66.2695 254.32C66.6415 253.31 67.8577 253.59 68.2799 253.32Z" fill="#FBFCFC"/>
<path d="M82.3529 264.29L81.8503 265.28L81.3477 264.79L81.8503 264.29H82.3529Z" fill="#72A8B3"/>
<path d="M360.793 183.5C358.37 181.48 355.113 181.1 352.751 179C356.239 175.2 357.234 176.9 357.284 170.55L360.27 168.55L361.788 176.53C363.094 176.67 364.522 176.34 365.819 176.53C366.261 176.59 366.673 177.1 366.824 177.53C366.713 177.82 366.924 178.23 366.824 178.53C363.215 179.24 361.255 177.67 361.798 183.52H360.793V183.5Z" fill="#7BB1C2"/>
<path d="M374.865 178.51V180.5C369.919 183.72 368.04 185.43 367.828 191.47H366.823L364.823 186.49L362.813 192.47C363.134 190.45 362.32 187.23 362.802 185.49C362.883 185.21 363.687 184.85 363.808 184.49C364.34 182.95 365.748 181.58 366.823 178.51C369.668 177.95 372.01 177.71 374.865 178.51Z" fill="#7BB1C2"/>
<path d="M365.818 176.52C365.547 173.07 366.06 167.89 370.834 168.55C367.427 171.08 368.271 173.62 366.823 177.51C366.673 177.08 366.261 176.58 365.818 176.51V176.52Z" fill="#F5F9F9"/>
<path d="M363.809 184.49C363.688 184.85 362.884 185.21 362.803 185.49C360.431 186.04 360.924 183.61 360.793 183.5H361.798L363.809 184.5V184.49Z" fill="#F5F9F9"/>
<path d="M367.828 191.48C367.828 191.59 369.226 192.46 368.834 193.47L366.823 191.48H367.828Z" fill="#F5F9F9"/>
<path d="M374.865 178.51L376.886 179.99C376.956 181.07 375.257 180.24 374.865 180.5V178.51Z" fill="#F5F9F9"/>
<path d="M358.792 196.45C358.33 195.36 360.863 194.76 361.778 194.95C360.923 196 360.28 196.78 358.792 196.45Z" fill="#F5F9F9"/>
<path d="M361.295 192.47L361.798 192.97L361.295 193.47V192.47Z" fill="#F5F9F9"/>
<path d="M92.9082 27.8999L93.4108 28.3999L92.9082 28.8999V27.8999Z" fill="#F8FAFB"/>
<path d="M68.2806 229.38L67.778 230.38L67.2754 229.88L67.778 229.38H68.2806Z" fill="#EAECEB"/>
<path d="M60.2386 228.38C59.7863 228.24 59.5249 227.72 59.2334 227.38L60.2386 228.38Z" fill="#EAECEB"/>
<path d="M29.5811 116.67L30.0837 117.17L29.5811 117.67V116.67Z" fill="#7BB1C2"/>
<path d="M91.9023 25.9099L92.4049 26.4099L91.9023 26.8999V25.9099Z" fill="#F8FAFB"/>
<path d="M37.1192 35.8799C36.3854 37.0299 34.2042 37.1799 34.2544 39.1399C34.3047 40.9899 37.7223 44.4399 39.1296 45.8499V47.8399C33.9328 51.7499 36.5262 53.0499 36.0437 53.6899C34.6665 55.5099 27.1678 54.7599 31.0881 62.7999C24.2427 57.6799 19.1865 62.7599 23.0465 69.7799L13.0146 63.7799L13.5172 61.7899C17.6888 64.1199 19.7193 61.2699 21.6593 57.8699L17.0254 51.8399C18.302 51.3499 20.3425 52.9399 20.9255 52.7099C22.0111 52.2699 33.4 37.7099 36.1241 34.8699L37.1293 35.8699L37.1192 35.8799Z" fill="#7BB1C2"/>
<path d="M49.1813 24.9199L48.156 27.8799C45.4621 26.2899 44.3765 27.2899 42.165 28.8999L43.1401 25.3899L49.1913 24.9199H49.1813Z" fill="#F5F9F9"/>
<path d="M52.1875 32.8899L47.1816 37.8799L48.0763 33.4799L52.1875 32.8899Z" fill="#F5F9F9"/>
<path d="M36.1143 34.8799C37.0189 33.9399 37.994 30.6899 40.6477 29.8999L44.1458 32.8999C38.4966 34.4199 40.0747 31.2399 37.1195 35.8799L36.1143 34.8799Z" fill="#F5F9F9"/>
<path d="M47.1611 38.8799L45.6533 41.8499L43.1604 41.8599L43.1504 38.8799H47.1611Z" fill="#F5F9F9"/>
<path d="M56.2076 18.9299C56.8811 22.2399 54.8205 22.2899 52.6895 23.8899L56.2076 18.9299Z" fill="#F5F9F9"/>
<path d="M52.2075 28.8999C51.9361 27.0399 52.2075 25.4399 54.1978 24.9099C54.4692 26.7699 54.1978 28.3699 52.2075 28.8999Z" fill="#F5F9F9"/>
<path d="M39.1299 45.8499C39.3912 46.1099 41.2307 45.2799 41.1503 46.3599V47.8399C40.5573 48.0099 39.3812 47.6599 39.1299 47.8399V45.8499Z" fill="#F5F9F9"/>
<path d="M37.6221 37.8799L38.1247 38.3699L37.6221 38.8699V37.8799Z" fill="#F5F9F9"/>
<path d="M291.937 210.43L292.439 210.93L291.937 211.42V210.43Z" fill="#D5D7D9"/>
<path d="M371.85 127.64C372.634 124.51 371.498 114.91 375.87 114.68C374.041 117.63 375.88 126.92 371.85 127.64Z" fill="#EAECEB"/>
<path d="M255.247 139.61C255.91 144.21 254.312 166.5 255.247 167.53C257.187 165.95 259.78 167.55 260.263 167.53L259.268 169.52L261.268 168.53C262.967 175.77 263.459 183.26 262.273 190.47C262.072 191.7 262.414 193.18 262.273 194.46H260.263C263.087 188.43 260.172 190.43 258.252 188.48C257.891 188.12 258.061 185.49 256.252 185.49C256.061 186.37 256.503 187.88 256.242 188.48C253.488 194.87 256.182 192.37 256.242 195.46C256.353 201.09 256.242 206.78 256.242 212.42C256.242 216.1 255.116 216 256.242 221.4C256.463 222.48 255.94 226.13 256.242 226.39C258.866 225.41 261.59 227.18 263.288 227.38V289.22H255.257L257.257 340.09C247.487 339.83 211.601 337.41 204.987 339.09V330.11C204.987 324.15 204.816 318.11 204.987 312.16C205.007 311.5 204.967 310.83 204.987 310.17C204.987 309.84 204.987 309.5 204.987 309.17C205.058 306.59 205.902 302.66 205.992 299.2C206.183 292.06 205.228 284.82 207.018 277.77C207.018 276.79 205.681 277.38 204.987 277.25C201.76 276.67 195.186 278.5 192.925 276.25V201.44C195.84 204.11 199.459 203.8 202.977 204.43C203.298 204.49 203.66 204.37 203.982 204.43L211.018 206.42C211.159 211.39 210.827 216.42 211.018 221.38H196.946V238.34H198.956V223.38H211.018C211.35 233.38 211.873 243.27 212.024 253.3C212.064 256.28 211.913 259.3 212.024 262.28C212.144 265.59 211.933 268.95 212.024 272.26L248.221 271.26V257.28C247.034 257.06 245.165 257.59 244.19 257.28C241.807 256.52 239.606 255.86 237.153 255.29C239.757 237.99 237.455 220.4 240.169 203.42C241.275 196.51 244.361 189.07 245.074 182.86C246.23 172.86 243.516 161.3 246.2 151.56C247.557 146.62 252.734 141.67 254.262 136.61C256.021 136.35 255.096 138.48 255.247 139.59V139.61ZM259.258 171.54C258.182 170.83 256.503 172.01 257.257 172.51C258.333 173.22 260.012 172.04 259.258 171.54ZM256.262 179.51L259.258 173.53C257.066 174.63 255.599 177.02 256.262 179.51ZM260.263 234.37H249.698L248.221 236.35H258.785L260.263 234.37ZM259.268 249.34H248.693L247.215 251.32C250.854 250.72 257.036 253.07 259.268 249.34Z" fill="#FDFDFD"/>
<path d="M122.561 200.45L125.597 200.97L124.582 205.43L135.629 204.44L137.649 237.36H127.587V251.82C127.587 252.41 129.336 254.81 130.271 255.14L139.64 255.31L138.162 253.32L130.533 252.89L129.588 241.35H138.644C137.167 244.1 140.554 247.68 140.655 248.34C141.107 251.28 140.454 255.15 140.655 258.31C140.675 258.64 140.635 258.98 140.655 259.31C140.705 260.3 140.625 261.31 140.655 262.3C140.755 266.26 140.504 270.26 140.725 274.21L159.764 275.27C159.542 270.98 160.055 266.57 159.764 262.3C159.713 261.64 159.844 260.95 159.764 260.31C159.563 258.69 159.502 255.12 157.753 254.33C161.211 255.1 159.713 245.02 159.764 241.36C165.192 241.33 169.976 242.17 174.842 239.37V221.42H159.764C159.814 220.1 159.673 218.75 159.764 217.43C159.784 217.18 160.749 216.7 160.769 216.43C161.03 213.49 160.588 210.41 160.769 207.45C165.373 206.87 172.459 205 176.852 203.46L177.857 204.46V234.38C177.857 239.95 179.345 274.79 177.857 276.27H166.79C166.71 276.92 166.88 277.62 166.79 278.26C166.086 283.64 167.795 289.22 167.795 293.72V318.66C167.795 325.04 169.866 333.25 168.8 340.1C159.884 339.12 149.018 339.83 139.65 340.1C140.715 335.6 138.644 329.43 138.644 325.64V306.69C138.644 304.62 137.298 289.89 136.634 289.24L122.561 288.24C121.033 276.57 122.622 258.81 122.561 246.35C122.561 245.69 122.561 245.02 122.561 244.36C122.501 229.75 122.561 215.09 122.561 200.47V200.45Z" fill="#FDFDFD"/>
<path d="M168.8 340.09C169.353 340.15 170.198 340.98 170.811 341.09C166.88 344.69 162.779 343.51 160.759 349.07C160.477 349.84 158.185 351.26 160.759 352.06H184.873C185.356 350.67 183.878 350.18 183.878 350.07C183.858 349.74 183.908 349.4 183.878 349.07C183.657 346.99 182.863 343.53 182.873 342.09C182.873 341.55 183.848 340.18 183.878 339.1H189.909C189.94 339.91 190.915 340.87 190.915 341.09C190.945 344.12 188.804 348.74 188.904 352.06H214.034C214.607 345.99 206.807 342.93 201.972 342.09C202.866 341.76 204.776 339.15 204.987 339.1C211.601 337.42 247.487 339.84 257.257 340.1C258.594 340.14 259.941 340.07 261.278 340.1C260.283 341.62 257.82 343.27 256.252 344.09C252.191 346.21 252.141 344.15 249.216 349.08C248.995 349.46 247.527 349.8 247.226 350.57C249.316 354.01 252.875 351.09 254.242 351.07C259.921 351.01 265.641 351.11 271.33 351.07L272.335 350.07V349.07C272.335 348.74 272.325 348.4 272.335 348.07C272.416 345.99 272.446 343.95 271.33 342.09V341.09C271.662 341.1 272.004 341.08 272.335 341.09C274.004 341.15 275.693 341.01 277.361 341.09C277.693 341.11 278.035 341.07 278.367 341.09V342.09C278.296 342.41 278.457 342.79 278.367 343.09C278.216 343.59 277.582 344.23 277.361 345.08C276.859 347.05 276.155 348.96 276.356 351.06L301.486 352.06C302.602 348.18 299.064 348.74 298.48 348.08C297.546 347.02 297.425 344.68 294.46 344.09C310.513 341.89 332.315 346.77 347.584 352.2V355.38C345.363 360.38 308.854 364.29 301.989 365.02C235.988 371.97 126.612 374.01 62.0888 361.72C55.5852 360.48 44.6185 359.67 41.2109 353.68C42.0754 348.08 82.434 343.4 88.9778 342.98C90.8173 342.86 92.2346 344.1 92.4156 344.09C91.7119 345.52 90.0031 346.7 89.4 348.08C88.9677 349.07 88.0028 349.62 88.4048 351.07L112.932 351.1C114.078 350.94 113.474 349 113.535 348.08C113.696 345.54 112.489 343.02 112.53 342.1C115.937 341.32 121.255 340.34 124.592 340.11C125.255 340.06 125.939 340.15 126.602 340.11C126.582 341.19 125.838 342.16 125.597 343.1C125.275 344.37 124.119 350.62 124.592 351.08C132.282 351.16 140.022 350.98 147.711 351.08C147.822 351.08 148.717 352.46 149.712 352.07V350.08C150.053 348.19 148.234 347.81 147.711 347.09C144.887 343.21 145.671 345.04 141.68 343.1C140.474 342.51 138.815 340.97 137.659 340.11C138.333 340.09 138.996 340.13 139.67 340.11C149.038 339.84 159.904 339.13 168.82 340.11L168.8 340.09Z" fill="#E4E6E5"/>
<path d="M254.242 351.06C252.875 351.07 249.316 354 247.226 350.56C247.527 349.79 248.995 349.45 249.216 349.07L254.242 351.06Z" fill="#1D1D1D"/>
<path d="M149.702 350.06V352.05C148.697 352.44 147.802 351.06 147.691 351.06L149.702 350.06Z" fill="#F8FAFB"/>
<path d="M338.678 89.7399C338.236 91.6599 334.597 100.18 333.562 100.64C333.079 100.85 331.089 99.3799 330.275 99.6199C329.923 99.7299 326.636 105.31 324.605 101.7C324.012 100.64 326.194 98.5299 326.214 97.2399C326.344 90.9199 332.114 78.7999 337.211 73.7299C338.216 72.7299 343.222 73.9899 342.789 68.9299L346.75 69.2599L347.202 71.7399C342.96 75.7299 346.961 77.2099 346.669 78.1999C346.318 79.3799 343.332 81.3099 343.784 83.1499C343.915 83.6999 348.469 86.6599 349.946 89.0299C354.661 96.5999 354.148 109.17 347.021 115.15L348.006 117.42C352.128 118.38 355.515 119.72 354.771 124.65H314.563L315.679 120.17C318.594 119.73 318.363 117.66 318.584 117.66H338.688L327.912 111.9L320.605 110.69C323.59 110.27 327.41 111.21 330.204 110.75C331.209 110.59 334.446 106.59 337.683 108.69C338.306 109.09 335.019 112.23 338.165 111.67C354.088 105.74 346.197 98.0899 342.277 88.7199C341.844 87.6899 342.749 86.8299 342.709 86.7399C342.377 85.8599 343.392 83.6799 341.704 82.7499L340.699 81.7499C340.367 81.7499 340.025 81.7499 339.693 81.7499C335.864 81.8199 335.17 83.2299 335.673 86.7399C336.024 89.1699 336.044 88.8299 338.688 89.7299L338.678 89.7399Z" fill="#579CA2"/>
<path d="M337.672 86.7498C337.542 87.9598 338.718 89.5898 338.678 89.7398C336.034 88.8398 336.014 89.1798 335.662 86.7498C336.326 86.7998 337.019 86.6798 337.672 86.7498Z" fill="#EAECEB"/>
<path d="M341.694 82.76C343.382 83.69 342.367 85.87 342.699 86.75C341.08 87.73 339.352 86.93 337.673 86.75C337.763 85.94 340.417 83.7 339.683 81.76C340.015 81.76 340.357 81.76 340.688 81.76L341.694 82.76Z" fill="#EAECEB"/>
<path d="M314.292 237.55C321.138 236.1 325.45 242.31 326.113 242.31C326.847 242.31 330.355 235.73 338.135 237.38C352.319 240.4 335.22 266.53 327.973 270.1C318.142 268.89 297.948 241.01 314.282 237.55H314.292ZM327.611 245.33H323.6V250.33L318.564 250.32V255.32H323.6V260.31H327.611V255.31L332.647 255.32V250.32H327.611V245.33Z" fill="#7BB1C2"/>
<path d="M327.611 245.33V250.33L332.657 250.32V255.32L327.611 255.3V260.3H323.611V255.3L318.564 255.32V250.32L323.611 250.33V245.33H327.611Z" fill="#F8FAFB"/>
<path d="M308.522 43.8599C309.176 49.2099 312.724 45.8499 314.553 45.8499C318.705 45.8699 316.554 46.5899 320.072 49.6599L323.6 47.8499C337.16 59.8999 316.986 78.4799 307.135 76.5299C301.898 75.4899 292.69 61.9499 292.791 56.1399C292.972 45.3099 301.828 49.1999 306.512 43.8599H308.522ZM313.558 50.8399H308.522L307.587 56.3999L302.491 56.8299V62.8199L308.532 62.8099V67.8099H313.558V62.8099L319.589 62.8199V56.8199L313.548 56.8299V50.8299L313.558 50.8399Z" fill="#7BB1C2"/>
<path d="M323.6 47.8499L320.072 49.6599C316.564 46.5999 318.715 45.8699 314.553 45.8499L312.935 40.9499C310.372 40.3699 308.472 41.1299 308.522 43.8599H306.512C311.668 30.9199 314.624 41.9799 317.599 44.3299C318.996 45.4299 320.414 45.0199 323.6 47.8499Z" fill="#77ADBB"/>
<path d="M313.558 50.8398L313.538 56.8298L319.589 56.8198V62.8198L313.538 62.7998L313.558 67.7998H308.512L308.532 62.7998L302.48 62.8198L302.491 56.8198L307.587 56.3998L308.522 50.8398H313.558Z" fill="#F8FAFB"/>
<path d="M314.554 45.8499C312.724 45.8499 309.176 49.1999 308.522 43.8599C308.472 41.1299 310.372 40.3699 312.935 40.9499L314.554 45.8499Z" fill="#F5F9F9"/>
<path d="M95.4206 161.55C96.0337 162.31 96.3453 163.25 97.4309 163.54C97.7627 164.81 97.4511 166.35 98.4361 167.53C94.144 168.23 80.3929 183.87 76.9752 183.32L57.6855 160.49L65.2346 147.05L78.7042 141.73C84.474 148.15 90.0227 154.83 95.4206 161.54V161.55ZM79.1967 144.75L76.3018 145.07L60.2086 160.06L77.8297 180.53L95.2999 165.9L79.1967 144.76V144.75Z" fill="#77ADBB"/>
<path d="M97.4313 163.55C96.3457 163.25 96.0341 162.32 95.4209 161.56H96.4261C96.4562 161.8 97.2302 162.76 97.4313 163.55Z" fill="#FBFCFC"/>
<path d="M79.1968 144.75L95.3 165.9L77.8298 180.53L60.2188 160.06L76.3019 145.07L79.1968 144.75Z" fill="#F5F9F9"/>
<path d="M51.1923 93.7299C52.3885 93.8399 55.0322 95.7199 57.2235 94.7299C57.7964 99.0099 56.8113 104.27 57.2235 108.69L56.2183 109.69C53.1826 109.11 43.5729 109.37 40.1352 109.69V108.69C41.0097 104.11 37.974 96.2899 42.1456 93.7299C45.0506 93.7299 48.3878 93.4599 51.1923 93.7299ZM50.1771 95.7299C47.1213 93.0899 47.7244 100.59 44.1559 98.7199C43.2814 101.89 46.1161 100.04 46.9805 100.89C47.6138 101.51 46.9805 103.53 47.1715 103.7C50.2273 106.34 49.6242 98.8399 53.1926 100.71C54.0672 97.5399 51.2325 99.3899 50.3681 98.5399C49.7348 97.9199 50.3681 95.8999 50.1771 95.7299Z" fill="#7BB1C2"/>
<path d="M44.1559 83.7599C43.7137 85.0399 45.2215 86.2299 42.1657 85.7499L40.1553 76.7799C40.5473 76.2999 41.4319 77.7799 41.653 77.7799H56.2283C57.6256 80.8499 54.419 82.1099 54.2179 82.7699H52.2076C49.9358 82.7699 47.3726 82.5499 45.1712 82.7699C44.749 82.8099 44.3168 83.3499 44.166 83.7699L44.1559 83.7599Z" fill="#9EC8D3"/>
<path d="M38.1244 110.69L36.124 89.7498C39.3105 89.0998 37.9937 91.8698 38.1244 93.7298C38.5365 99.3098 37.8228 105.09 38.1244 110.69Z" fill="#9EC8D3"/>
<path d="M58.228 109.69C58.2481 109.36 58.1979 109.02 58.228 108.69C58.801 102.27 57.8159 95.24 58.228 88.74V87.74V109.68V109.69Z" fill="#72A8B3"/>
<path d="M40.1349 108.69V109.69C40.0344 109.69 40.4767 111.53 39.6323 111.72L38.1245 110.69C37.823 105.09 38.5367 99.32 38.1245 93.73H39.1297L40.1349 108.69Z" fill="#F5F9F9"/>
<path d="M42.1455 93.73C37.9739 96.29 41.0096 104.12 40.1351 108.69L39.1299 93.73H42.1455Z" fill="#72A8B3"/>
<path d="M51.1914 93.73L57.2326 92.74C57.3231 93.39 57.1422 94.09 57.2326 94.73C55.0413 95.72 52.3976 93.85 51.2015 93.73H51.1914Z" fill="#F5F9F9"/>
<path d="M54.2077 82.7598C54.1373 82.9798 55.625 84.9798 55.2028 85.7498H52.2073L52.1973 82.7598H54.2077Z" fill="#F5F9F9"/>
<path d="M58.2278 108.69C58.1977 109.02 58.2479 109.36 58.2278 109.69L56.72 111.7C55.745 111.63 56.3381 109.71 56.2174 109.69L57.2226 108.69H58.2278Z" fill="#F5F9F9"/>
<path d="M44.1553 83.7598C44.3061 83.3398 44.7383 82.7998 45.1605 82.7598C44.9393 83.1398 44.2457 83.4798 44.1553 83.7598Z" fill="#F5F9F9"/>
<path d="M50.1769 95.7299C50.3679 95.8999 49.7346 97.9199 50.3679 98.5399C51.2324 99.3899 54.0771 97.5399 53.1925 100.71C49.614 98.8399 50.2272 106.34 47.1714 103.7C46.9804 103.53 47.6137 101.51 46.9804 100.89C46.1159 100.04 43.2712 101.89 44.1558 98.7199C47.7343 100.59 47.1211 93.0899 50.1769 95.7299Z" fill="#F5F9F9"/>
<path d="M0.932836 200.45L12.9952 206.42C11.3467 206.91 -1.26854 202.53 0.932836 200.45Z" fill="#EAECEB"/>
<path d="M344.708 41.8599H355.776L356.288 34.8599C358.299 39.3499 353.202 57.0199 346.186 50.8599L344.698 41.8599H344.708Z" fill="#7BB1C2"/>
<path d="M349.735 27.8999C349.916 28.2999 351.936 28.7599 351.735 29.8699C349.705 29.3899 347.674 33.8499 347.212 33.8899C343.613 34.1799 348.278 28.8299 348.73 27.8999H349.735Z" fill="#FBFCFC"/>
<path d="M346.709 36.8698C346.207 37.6198 345.011 35.9598 345.724 34.8898C346.227 34.1398 347.423 35.7998 346.709 36.8698Z" fill="#FBFCFC"/>
<path d="M331.641 17.9299C331.903 18.0299 332.345 21.9599 335.501 21.0399L335.662 24.9099C334.124 25.7099 333.049 26.6999 332.647 26.8999L321.589 27.8999V22.9099C318.735 22.5399 314.875 24.4599 314.051 20.9099L312.05 22.9299L311.527 19.9399C308.793 26.6299 307.416 20.8999 307.014 20.9199C306.552 20.9299 304.672 25.1099 299.023 22.9999L297.967 19.9199C297.877 24.6299 295.103 22.3599 294.449 22.9199L295.042 17.9099C296.731 17.2099 329.933 17.2899 331.641 17.9299Z" fill="#F8FAFB"/>
<path d="M294.449 22.9099C295.102 22.3499 297.877 24.6199 297.967 19.9099L299.022 22.9899C304.672 25.0999 306.551 20.9199 307.014 20.9099C307.416 20.8999 308.783 26.6199 311.527 19.9299L312.05 22.9199L314.05 20.8999C314.874 24.4499 318.734 22.5299 321.589 22.8999V27.8899V28.8899C312.261 29.3399 302.782 28.5599 293.444 28.8899V23.9099C293.273 22.8099 294.318 23.0199 294.449 22.9099Z" fill="#7BB1C2"/>
<path d="M288.418 21.9199H293.454L293.444 16.9299L306.471 16.8899L306.954 12.9099L319.649 12.3799L320.624 16.8899C321.278 17.4999 329.51 16.4899 331.641 16.9399V17.9399C329.933 17.2999 296.721 17.2199 295.042 17.9199L294.449 22.9299C294.318 23.0399 293.273 22.8299 293.444 23.9299L288.418 22.9299V21.9299V21.9199ZM318.584 13.9399H307.517V16.9199H318.584V13.9399Z" fill="#77ADBB"/>
<path d="M285.403 27.8999C285.513 28.1899 285.302 28.5899 285.403 28.8999L281.291 29.3299C280.105 26.4799 279.321 22.5699 283.885 22.9199C286.147 24.0599 284.971 26.7299 285.403 27.8999Z" fill="#7BB1C2"/>
<path d="M331.641 16.9299C335.018 17.6499 340.708 28.3399 346.689 18.4099L345.694 25.8999L344.146 22.8399C339.059 21.7699 338.346 23.5099 335.652 24.9099L335.491 21.0399C332.334 21.9599 331.902 18.0299 331.631 17.9299V16.9299H331.641Z" fill="#7BB1C2"/>
<path d="M277.894 19.53C275.28 21.05 278.939 24.66 274.356 25.91C274.225 21.59 275.049 19.02 278.879 16.96L277.894 19.54V19.53Z" fill="#F5F9F9"/>
<path d="M321.589 28.8999V27.8999L332.646 26.8999C327.248 29.5899 327.53 28.6099 321.589 28.8899V28.8999Z" fill="#9EC8D3"/>
<path d="M278.858 35.3799L280.406 36.3799L278.868 38.8499C276.979 37.6199 277.22 35.9099 277.371 33.8899L278.848 35.3799H278.858Z" fill="#F5F9F9"/>
<path d="M277.351 31.8899C277.019 32.2999 272.546 29.8699 274.355 27.9099C275.501 26.6699 278.637 30.2999 277.351 31.8899Z" fill="#F5F9F9"/>
<path d="M286.397 32.8999C286.548 35.1999 284.176 37.6799 282.396 38.8699C282.979 37.1499 283.492 32.2799 286.397 32.8999Z" fill="#F5F9F9"/>
<path d="M285.402 27.8999L287.422 28.3999L287.402 30.8899C286.538 30.8899 285.613 29.5799 285.402 28.8999C285.301 28.5899 285.513 28.1899 285.402 27.8999Z" fill="#F5F9F9"/>
<path d="M286.407 19.9199L283.392 17.9399L286.397 17.9299L286.407 19.9199Z" fill="#F5F9F9"/>
<path d="M350.73 19.9199L348.729 19.9099L350.247 17.9299L350.73 19.9199Z" fill="#F8FAFB"/>
<path d="M349.735 27.8999H348.73C349.061 27.2299 348.076 25.1899 349.232 24.8999C350.348 24.8999 349.393 27.1699 349.735 27.8999Z" fill="#F8FAFB"/>
<path d="M346.217 26.8999L346.719 27.3999L346.217 27.8999V26.8999Z" fill="#F8FAFB"/>
<path d="M286.407 19.9199L287.412 20.4199L286.91 20.9199L286.407 20.4199V19.9199Z" fill="#7BB1C2"/>
<path d="M318.574 13.9399H307.507V16.9199H318.574V13.9399Z" fill="#FBFCFC"/>
<path d="M189.909 60.8201C186.562 59.7101 183.446 52.8801 182.883 49.8501L189.909 60.8201Z" fill="#F5F9F9"/>
<path d="M224.085 255.31C224.186 257.08 223.181 258.16 224.085 260.3C224.296 260.79 223.462 262.19 224.699 262.34L246.19 262.29C246.863 260.16 244.732 260.08 244.189 259.3C243.988 259.02 244.32 257.88 244.189 257.31C245.154 257.62 247.024 257.08 248.21 257.31V271.29L212.013 272.29C211.933 268.98 212.144 265.62 212.013 262.31H216.034C215.079 260.07 215.441 257.38 215.029 255.33H224.075L224.085 255.31Z" fill="#DEE3E4"/>
<path d="M214.034 253.32C213.733 254.23 214.999 255.1 215.039 255.31C215.441 257.36 215.08 260.05 216.045 262.28H212.024C211.913 259.31 212.064 256.29 212.024 253.31C212.697 253.31 213.361 253.31 214.034 253.31V253.32Z" fill="#1D1D1D"/>
<path d="M260.263 234.37L258.785 236.36L248.221 236.35L249.698 234.36L260.263 234.37Z" fill="#E4E6E5"/>
<path d="M259.267 249.34C257.036 253.07 250.854 250.72 247.215 251.32L248.692 249.33H259.267V249.34Z" fill="#E4E6E5"/>
<path d="M263.288 289.22L264.294 246.33L279.382 247.33L280.377 288.23L281.382 289.23L291.444 290.22L292.439 307.18C292.399 313.33 291.946 318.14 291.434 324.14C291.042 328.66 288.77 335.34 291.434 340.1C291.223 341.21 290.288 341.18 289.423 341.1C288.73 340.84 287.574 340.13 287.413 340.1H287.916L288.418 339.6L287.916 339.1L287.413 340.1C283.925 339.46 280.186 341.19 278.366 341.1C278.035 341.08 277.693 341.12 277.361 341.1C278.427 335.6 276.356 328.57 276.356 323.65V301.71C276.356 296.64 275.431 289.95 275.351 284.26C275.3 280.28 275.401 276.27 275.341 272.3C272.556 274.77 273.481 280.01 273.34 283.27V305.21C273.049 317.16 271.662 329.12 272.335 341.12C272.003 341.11 271.662 341.13 271.33 341.12C268.375 341.03 264.907 340.21 261.278 340.12C259.941 340.09 258.594 340.16 257.257 340.12L255.257 289.25H263.288V289.22Z" fill="#747DBA"/>
<path d="M261.278 124.65C267.801 118.64 278.065 117.6 284.91 123.64C293.806 131.47 290.609 156.67 289.403 167.54C286.85 166.4 284.025 166.33 281.372 165.55C280.668 165.34 279.703 164.1 278.356 164.55C278.879 162.79 277.833 159.64 278.577 157.29C279.321 154.94 282.678 153.71 283.382 152.58C285.372 162.44 292.187 151.77 285.392 148.59C286.156 147.23 287.544 146.32 288.207 144.88L288.267 141.26L279.854 129.65C278.949 129.35 273.611 136.44 271.038 137.83C267.409 139.79 256.433 140.19 257.991 144.28C258.956 146.82 266.394 153.96 267.088 156.28C268.093 159.62 266.183 164.05 266.294 164.55C265.681 164.94 264.856 165.13 264.283 165.55C263.901 165.83 263.59 166.38 263.278 166.55C262.886 166.76 262.524 167.49 262.273 167.55C261.951 167.62 261.589 167.49 261.268 167.55C260.946 167.61 260.584 167.54 260.263 167.55C259.78 167.57 257.177 165.96 255.247 167.55C254.302 166.51 255.9 144.23 255.247 139.63C256.563 139.06 256.151 137.74 256.252 136.64C261.609 135.45 270.003 130.95 265.821 124.65L261.278 124.67V124.65Z" fill="#3A281D"/>
<path d="M266.304 164.55C266.857 166.94 271.531 175.05 273.331 177.51C274.989 173.06 277 169.16 278.367 164.55C279.714 164.1 280.679 165.34 281.382 165.55V167.54C281.684 170.8 280.377 174.6 282.387 177.51V178.51L280.377 194.47C280.045 194.49 279.704 194.45 279.372 194.47L272.828 191.48L272.325 193.46L269.833 191.46L264.294 193.46V165.53C264.867 165.11 265.691 164.92 266.304 164.53V164.55Z" fill="#6E78B4"/>
<path d="M280.376 244.34L263.288 243.34V227.38C268.736 228.03 274.003 227.09 279.371 226.38C281.181 231.97 280.346 238.49 280.376 244.33V244.34Z" fill="#737CB9"/>
<path d="M280.376 244.34C280.437 258.95 280.326 273.61 280.376 288.23L279.381 247.33L264.293 246.33L263.288 289.22V243.34L280.376 244.34Z" fill="#5C68A7"/>
<path d="M256.252 136.62C256.312 135.97 256.141 135.24 256.252 134.63L257.257 132.64C257.418 132.07 257.066 131.12 257.257 130.65C258.333 127.95 259.107 126.66 261.278 124.67L265.821 124.65C270.013 130.95 261.61 135.45 256.252 136.64V136.62Z" fill="#402D22"/>
<path d="M280.377 343.08C283.413 343.5 286.911 345.99 290.097 346.04C293.113 346.09 293.253 344.11 293.444 344.08C293.766 344.03 294.118 344.13 294.45 344.08C297.415 344.67 297.536 347.01 298.47 348.07C293.454 349.58 279.412 350.07 277.361 345.08C277.582 344.22 278.216 343.59 278.367 343.09C279.02 343.15 279.734 343 280.377 343.09V343.08Z" fill="#333231"/>
<path d="M287.413 340.09C287.574 340.12 288.73 340.83 289.423 341.09C290.418 341.46 292.389 343.35 293.444 344.08C293.253 344.11 293.102 346.09 290.097 346.04C286.91 345.99 283.412 343.51 280.377 343.08L278.366 342.08V341.08C280.186 341.17 283.925 339.45 287.413 340.08V340.09Z" fill="#EAA97F"/>
<path d="M281.382 289.22H292.449C292.409 295.19 292.479 301.2 292.449 307.17L291.454 290.21L281.392 289.22H281.382Z" fill="#5C68A7"/>
<path d="M291.434 340.09C288.77 335.33 291.042 328.65 291.434 324.13C290.821 328.94 292.289 335.58 291.434 340.09Z" fill="#5C68A7"/>
<path d="M286.418 190.48C285.664 186.76 286.991 184.19 289.414 181.51L286.418 190.48Z" fill="#F5F9F9"/>
<path d="M282.388 177.51L285.393 176.52L285.413 179L282.388 178.51V177.51Z" fill="#EAECEB"/>
<path d="M286.398 172.52L283.402 169.55C285.232 169.21 286.73 170.64 286.398 172.52Z" fill="#EAECEB"/>
<path d="M281.381 167.54V165.55C281.411 166.21 281.321 166.89 281.381 167.54Z" fill="#EAECEB"/>
<path d="M286.91 180.51L287.413 181L286.91 181.5V180.51Z" fill="#F5F9F9"/>
<path d="M275.351 284.24C275.432 289.93 276.356 296.62 276.356 301.69V323.63C276.356 328.55 278.427 335.59 277.362 341.08C275.693 341 274.004 341.14 272.336 341.08C271.662 329.08 273.049 317.12 273.341 305.17C273.512 298.21 273.1 291.18 273.341 284.22H275.351V284.24Z" fill="#F8FAFB"/>
<path d="M271.33 342.09C272.446 343.96 272.416 345.99 272.335 348.07V350.06L271.33 351.06C265.641 351.1 259.921 351 254.242 351.06L249.216 349.07C252.141 344.14 252.191 346.2 256.252 344.08C259.429 348.66 267.269 342.58 271.33 342.09Z" fill="#333231"/>
<path d="M277.361 345.08C279.412 350.08 293.454 349.58 298.47 348.07C299.053 348.73 302.601 348.18 301.476 352.05L276.346 351.05C276.145 348.96 276.848 347.04 277.351 345.07L277.361 345.08Z" fill="#1D1D1D"/>
<path d="M271.33 341.09V342.09C267.269 342.58 259.428 348.66 256.252 344.08C257.82 343.26 260.283 341.61 261.278 340.09C264.907 340.18 268.375 341 271.33 341.09Z" fill="#EAA97F"/>
<path d="M280.376 343.08C279.733 342.99 279.019 343.14 278.366 343.08C278.457 342.78 278.296 342.4 278.366 342.08L280.376 343.08Z" fill="#1D1D1D"/>
<path d="M272.335 349.07V348.07C272.325 348.4 272.335 348.74 272.335 349.07Z" fill="#1D1D1D"/>
<path d="M273.341 284.24C273.098 291.19 273.513 298.23 273.341 305.19V283.25C273.331 283.58 273.351 283.92 273.341 284.25V284.24Z" fill="#5C68A7"/>
<path d="M275.351 284.24H273.34C273.35 283.91 273.33 283.57 273.34 283.24C273.481 279.99 272.556 274.74 275.341 272.27C275.401 276.25 275.3 280.26 275.351 284.23V284.24Z" fill="#D5D7D9"/>
<path d="M287.413 340.09L287.916 339.09L288.418 339.59L287.916 340.09H287.413Z" fill="#5C68A7"/>
<path d="M266.304 164.55C266.183 164.05 268.103 159.62 267.098 156.28C266.404 153.97 258.966 146.83 258.001 144.28C256.443 140.19 267.42 139.78 271.048 137.83C273.622 136.44 278.959 129.35 279.864 129.65L288.277 141.26L288.217 144.88C287.554 146.32 286.167 147.23 285.403 148.59C284.639 149.95 283.855 151.85 283.392 152.58C282.679 153.71 279.341 154.88 278.587 157.29C277.834 159.7 278.889 162.79 278.366 164.55C276.999 169.17 274.979 173.06 273.33 177.51C271.541 175.05 266.867 166.94 266.304 164.55Z" fill="#EAA97F"/>
<path d="M264.294 193.47V194.47C263.962 194.47 263.62 194.47 263.289 194.47L262.284 190.48C263.47 183.26 262.977 175.78 261.278 168.54V167.54C261.6 167.48 261.962 167.61 262.284 167.54L263.289 166.54C263.6 166.37 263.912 165.82 264.294 165.54V193.47Z" fill="#5C68A7"/>
<path d="M285.403 148.59C292.198 151.77 285.383 162.44 283.393 152.58C283.855 151.85 284.669 149.9 285.403 148.59Z" fill="#402D22"/>
<path d="M261.278 167.54V168.54L259.277 169.53L260.272 167.54C260.594 167.53 260.966 167.6 261.278 167.54Z" fill="#F5F9F9"/>
<path d="M262.283 167.54C262.535 167.48 262.896 166.75 263.288 166.54L262.283 167.54Z" fill="#F5F9F9"/>
<path d="M258.263 188.48C260.183 190.43 263.098 188.43 260.273 194.45H262.283L263.289 194.46C262.324 194.46 258.454 196.54 256.252 195.46C256.192 192.37 253.498 194.87 256.252 188.48H258.263Z" fill="#77ADBB"/>
<path d="M286.408 212.42V213.42H279.362L280.377 215.41L275.512 215.57C271.944 223.5 280.076 224.74 286.408 224.39C286.278 224.52 286.851 226.06 285.725 226.4C283.654 226.7 281.402 226.12 279.372 226.39C274.004 227.1 268.737 228.03 263.289 227.39C261.59 227.19 258.866 225.42 256.242 226.4C255.951 226.14 256.474 222.48 256.242 221.41C262.344 221.29 268.425 223.34 270.305 215.98L264.284 214.42L265.289 211.45L256.242 212.44C256.242 206.8 256.353 201.12 256.242 195.48C258.444 196.56 262.314 194.49 263.279 194.48C263.61 194.48 263.952 194.48 264.284 194.48C269.28 194.52 274.075 194.72 279.362 194.48C279.694 194.46 280.035 194.5 280.367 194.48C282.086 194.38 283.966 195.56 286.378 193.48L286.398 212.43L286.408 212.42Z" fill="#3A3A3A"/>
<path d="M286.408 213.42L287.413 214.42C288.609 216.29 288.85 220.86 288.509 222.97C288.137 225.25 286.719 224.09 286.408 224.39C280.075 224.73 271.943 223.5 275.511 215.57L280.377 215.41L279.361 213.43H286.408V213.42Z" fill="#EAA97F"/>
<path d="M256.252 212.42L265.299 211.43L264.294 214.4L270.315 215.96C268.435 223.32 262.354 221.27 256.252 221.39C255.126 215.99 256.252 216.09 256.252 212.41V212.42Z" fill="#EAA97F"/>
<path d="M264.294 193.47L269.833 191.47L272.325 193.47L272.828 191.49L279.372 194.48C274.085 194.72 269.29 194.52 264.294 194.48V193.48V193.47Z" fill="#D5D7D9"/>
<path d="M256.252 134.62C256.513 133.12 257.227 132.73 257.257 132.63L256.252 134.62Z" fill="#3A281D"/>
<path d="M256.262 179.51C255.599 177.02 257.066 174.63 259.258 173.53L256.262 179.51Z" fill="#F5F9F9"/>
<path d="M258.263 188.48H256.252C256.514 187.87 256.071 186.36 256.262 185.49C258.072 185.49 257.901 188.12 258.263 188.48Z" fill="#F5F9F9"/>
<path d="M263.288 194.47H262.283C262.424 193.19 262.082 191.71 262.283 190.48L263.288 194.47Z" fill="#F5F9F9"/>
<path d="M259.257 171.54C260.011 172.04 258.332 173.23 257.257 172.51C256.503 172.01 258.182 170.82 259.257 171.54Z" fill="#F5F9F9"/>
<path d="M211.018 82.7602C214.084 84.1302 217.622 94.3202 220.547 93.7302L228.106 82.7602H229.111C228.931 92.7202 228.036 102.68 228.106 112.68C228.126 115.14 227.302 118.77 229.111 120.66C227.473 125.68 227.503 126.13 227.101 131.63C227.051 132.29 227.141 132.96 227.101 133.62C227.011 135.27 227.171 136.95 227.101 138.61C227.061 139.6 227.131 140.61 227.101 141.6C227.001 144.91 227.161 148.26 227.101 151.57C227.081 152.9 227.121 154.23 227.101 155.56C227.081 157.22 227.101 158.89 227.101 160.55C227.101 161.55 227.101 162.54 227.101 163.54C227.101 164.2 227.101 164.87 227.101 165.53C227.181 176.29 225.784 191.36 227.101 201.44C227.181 202.08 227.011 202.78 227.101 203.43H240.179C237.465 220.41 239.767 237.99 237.163 255.3C233.725 254.49 230.167 251.86 225.101 253.31C223.09 226.74 224.578 181.89 214.556 158.55C214.275 157.88 211.289 152.8 211.028 152.57C210.033 130.91 211.41 108.94 210.777 87.3202C210.747 86.4002 209.028 85.8602 209.018 85.7402C208.927 84.9502 208.867 83.4502 209.018 82.7502C209.621 82.8802 210.606 82.5602 211.028 82.7502L211.018 82.7602Z" fill="#40A39E"/>
<path d="M209.008 85.7502C209.018 85.8702 210.747 86.4102 210.767 87.3302C211.39 108.95 210.013 130.92 211.018 152.58C208.184 150.14 202.313 149.4 198.956 149.59C198.634 149.61 198.272 149.62 197.951 149.59C197.669 149.56 196.674 148.52 195.94 148.59C196.001 148.28 195.92 147.92 195.94 147.59C195.981 146.93 195.94 146.26 195.93 145.6L194.935 146.6C194.583 146.69 194.121 146.47 193.93 146.6C194.352 145.34 192.864 141.11 192.925 140.62C193.025 139.82 194.493 135.81 194.935 134.64C197.066 129.04 200.665 127.31 199.961 121.67C199.368 121.52 198.222 121.87 197.951 121.67C200.172 114.35 199.046 102.73 189.909 100.72C190.904 97.8302 191.176 94.6802 191.92 91.7402L194.935 88.7502C199.519 86.4202 203.7 83.8802 209.008 85.7602V85.7502Z" fill="#E4E6E5"/>
<path d="M229.112 82.76L230.127 82.28L231.635 86.74C236.068 83.44 242.893 86.87 246.2 90.74C243.858 97.23 248.442 102.59 247.256 110.24C246.643 114.15 244.411 114.12 244.19 114.68C242.964 117.74 243.134 118.51 243.185 121.66H240.169C240.169 120.66 240.139 119.66 240.169 118.67C240.169 118.44 241.787 116.97 241.174 115.69L236.641 114.15L234.098 116.14L237.154 118.67C237.063 118.73 237.455 120.03 236.4 120.64C235.344 121.25 233.263 120.95 232.349 121.89C230.348 123.96 231.142 131.64 227.102 131.64C227.504 126.14 227.473 125.69 229.112 120.67C229.514 119.42 232.962 113.5 232.128 112.7H228.107C228.036 102.69 228.931 92.73 229.112 82.77V82.76Z" fill="#E4E6E5"/>
<path d="M206.997 58.8201C207.078 58.7101 208.405 59.2501 209.098 58.2201C210.415 56.2901 210.928 50.3901 211.018 47.8401H229.112L231.152 59.8301C231.725 59.8201 232.067 58.7801 232.127 58.8101C233.323 59.5401 235.675 59.3701 234.992 61.1001C234.851 64.3001 229.081 70.0601 228.106 72.7801L221.462 67.8201C217.693 67.7401 212.576 68.0701 213.018 72.7801L210.013 70.7901C208.847 68.0201 206.736 65.6701 204.916 63.3101C204.323 59.8501 205.952 60.1801 206.997 58.8201Z" fill="#7A4A2F"/>
<path d="M257.257 130.63C257.066 131.1 257.418 132.05 257.257 132.62C257.227 132.73 256.513 133.12 256.252 134.61C256.141 135.23 256.312 135.96 256.252 136.6C256.151 137.7 256.563 139.02 255.246 139.59C255.086 138.47 256.01 136.35 254.261 136.61C252.733 141.67 247.567 146.63 246.2 151.56C242.601 146.84 244.41 138.56 244.189 132.61V114.66C244.41 114.1 246.642 114.13 247.255 110.22C248.451 102.58 243.858 97.21 246.2 90.72C252.784 98.44 253.125 120.91 257.257 130.62V130.63Z" fill="#DEE3E4"/>
<path d="M232.127 58.8201C232.067 58.7801 231.725 59.8301 231.152 59.8401L229.112 47.8501H211.018C210.928 50.4001 210.415 56.3001 209.098 58.2301C208.405 59.2501 207.078 58.7201 206.998 58.8301C199.881 32.3101 239.807 32.2401 232.127 58.8301V58.8201Z" fill="#1D1D1D"/>
<path d="M227.102 76.77C226.901 78.82 227.594 80.82 228.107 82.75L220.548 93.72C217.623 94.31 214.084 84.13 211.019 82.75V81.75C212.305 80.33 212.235 78.5 212.024 76.76C218.005 80.22 221.111 80.8 227.102 76.76V76.77Z" fill="#7A4A2F"/>
<path d="M210.013 70.79L213.018 72.78C212.576 68.07 217.692 67.74 221.462 67.82L228.106 72.78C227.714 73.86 227.212 75.67 227.101 76.77C221.11 80.81 218.004 80.23 212.023 76.77C211.842 75.27 210.656 72.32 210.013 70.79ZM224.98 70.89C220.859 69.1 214.013 69.14 214.033 74.76L223.432 75.64L224.98 70.89Z" fill="#1D1D1D"/>
<path d="M211.018 81.7601V82.7601C210.596 82.5701 209.611 82.8901 209.008 82.7601C209.239 81.6601 210.144 81.6801 211.018 81.7601Z" fill="#E4E6E5"/>
<path d="M240.169 118.67C240.139 119.66 240.169 120.67 240.169 121.66H243.185C243.235 124.56 244.059 129 244.19 132.64C244.411 138.59 242.602 146.87 246.2 151.59C243.516 161.34 246.24 172.89 245.074 182.89C244.351 189.1 241.265 196.54 240.169 203.45H227.092C227.011 202.8 227.182 202.1 227.092 201.46C228.418 190.14 228.79 176.92 228.097 165.55C228.046 164.73 228.016 163.9 227.092 163.56C227.092 162.56 227.092 161.57 227.092 160.57C228.67 159.88 228.67 156.27 227.092 155.58C227.112 154.25 227.071 152.92 227.092 151.59C228.8 149.36 228.79 143.82 227.092 141.62C227.122 140.62 227.051 139.62 227.092 138.63C228.67 137.94 228.67 134.33 227.092 133.64C227.132 132.98 227.041 132.3 227.092 131.65C231.132 131.65 230.338 123.97 232.339 121.9C233.253 120.96 235.334 121.26 236.39 120.65C237.445 120.04 237.053 118.74 237.143 118.68C237.546 118.42 239.375 118.86 240.159 118.68L240.169 118.67ZM231.122 152.58V167.04C231.122 167.61 234.982 172.32 233.133 169.03V154.07C233.133 153.88 231.736 152.48 231.122 152.57V152.58Z" fill="#E8EAEA"/>
<path d="M237.153 255.31C239.606 255.89 241.807 256.54 244.19 257.3C244.32 257.87 243.989 259.01 244.19 259.29L224.086 260.29C223.181 258.15 224.186 257.07 224.086 255.3C224.086 255.19 225.171 254.34 225.091 253.31C230.157 251.87 233.715 254.49 237.153 255.3V255.31Z" fill="#333231"/>
<path d="M227.101 201.45C225.784 191.37 227.181 176.3 227.101 165.54H228.106C228.8 176.9 228.428 190.12 227.101 201.45Z" fill="#F5F9F9"/>
<path d="M228.107 112.68H232.127C232.972 113.49 229.524 119.41 229.112 120.66C227.303 118.77 228.127 115.14 228.107 112.68Z" fill="#E8EAEA"/>
<path d="M227.101 151.58C227.162 148.27 227.001 144.92 227.101 141.61C228.8 143.81 228.81 149.36 227.101 151.58Z" fill="#E4E6E5"/>
<path d="M227.102 138.61C227.172 136.95 227.011 135.28 227.102 133.62C228.68 134.31 228.68 137.92 227.102 138.61Z" fill="#E4E6E5"/>
<path d="M227.102 160.56C227.102 158.9 227.082 157.23 227.102 155.57C228.68 156.26 228.68 159.87 227.102 160.56Z" fill="#E4E6E5"/>
<path d="M228.107 165.54H227.102C227.102 164.88 227.102 164.21 227.102 163.55C228.026 163.89 228.056 164.72 228.107 165.54Z" fill="#E4E6E5"/>
<path d="M237.153 118.67L234.098 116.14L236.641 114.15L241.174 115.69C241.787 116.97 240.179 118.44 240.169 118.67C239.385 118.85 237.556 118.41 237.153 118.67Z" fill="#FBFCFC"/>
<path d="M244.19 132.63C244.059 128.99 243.235 124.55 243.185 121.66C243.134 118.51 242.964 117.74 244.19 114.68V132.63Z" fill="#9EC8D3"/>
<path d="M224.981 70.8901L223.433 75.6401L214.034 74.7601C214.014 69.1301 220.859 69.1001 224.981 70.8901Z" fill="#7A4A2F"/>
<path d="M211.018 205.44C212.164 205.75 217.984 207.68 218.125 208.05L216.044 253.32C215.381 253.35 214.707 253.32 214.034 253.32C213.36 253.32 212.697 253.32 212.023 253.32C211.872 243.29 211.35 233.4 211.018 223.4C210.998 222.74 211.048 222.07 211.018 221.41C210.827 216.45 211.159 211.42 211.018 206.45V205.45V205.44Z" fill="#40A39E"/>
<path d="M231.122 152.58C231.735 152.49 233.132 153.88 233.132 154.08V169.04C234.982 172.33 231.122 167.61 231.122 167.05V152.59V152.58Z" fill="#D5D7D9"/>
<path d="M244.19 259.3C244.733 260.07 246.874 260.16 246.19 262.29L224.699 262.34C223.463 262.18 224.297 260.79 224.086 260.3L244.19 259.3Z" fill="#1D1D1D"/>
<path d="M122.562 246.33C122.622 258.79 121.034 276.55 122.562 288.22C122.642 288.86 122.472 289.56 122.562 290.21L136.645 289.22C137.308 289.88 138.655 304.61 138.655 306.67V325.62C138.655 329.42 140.726 335.58 139.66 340.08C138.987 340.1 138.323 340.06 137.65 340.08C134.313 340.19 130.925 339.92 127.598 340.08C127.266 340.1 126.925 340.06 126.593 340.08C125.929 340.12 125.246 340.03 124.582 340.08C122.2 320.19 120.793 300.14 118.551 280.24C117.958 274.94 117.596 269.57 117.033 264.28C114.551 263.85 115.656 266.21 115.536 267.77C115.224 271.89 115.737 276.13 115.536 280.25C115.375 283.45 114.53 288.4 114.53 290.72V328.62C114.53 331.4 112.701 338.14 112.52 341.09C111.897 341.2 111.022 340.93 110.51 341.09L100.458 340.09H99.4526L98.4474 320.14C98.0151 309.85 97.412 299.53 97.4321 289.21L106.489 288.22L107.494 246.33H122.572H122.562Z" fill="#5DC4B2"/>
<path d="M120.551 170.53H121.556C123.426 173.8 122.552 178.77 122.562 182.5C122.562 182.83 122.562 183.16 122.562 183.5C122.572 188.81 122.562 194.15 122.562 199.46C122.562 199.79 122.562 200.12 122.562 200.46C122.562 215.07 122.501 229.73 122.562 244.35L106.479 243.35V170.54H107.484C107.916 173.52 112.349 179.57 114.017 182.49C114.701 182.49 120.36 171.68 120.551 170.54V170.53Z" fill="#5BC3B0"/>
<path d="M97.4316 148.59C97.7532 145.72 103.02 144.76 103.262 144.41C104.307 142.93 103.352 135.36 107.986 133.63C110.007 139.05 114.56 139.43 118.49 141.68C118.581 141.73 117.435 143.54 117.525 143.59C118.34 144.03 126.643 144.15 128.593 144.6C128.552 145.26 128.663 145.94 128.593 146.59C128.462 147.9 128.683 149.26 128.593 150.58C127.004 151.8 120.149 160.94 119.777 162.27C118.762 165.86 120.712 169.62 120.551 170.53C120.36 171.67 114.701 182.48 114.017 182.48C112.349 179.56 107.916 173.52 107.484 170.53C107.353 169.65 109.233 166.67 108.268 163.28C107.634 161.07 100.266 150.65 97.4316 149.59C97.4517 149.26 97.4115 148.92 97.4316 148.59Z" fill="#EAA97F"/>
<path d="M111.504 125.65C113.002 125.48 118.189 124.61 118.541 124.65C127.567 125.85 129.025 137.97 128.593 144.6C126.643 144.16 118.35 144.03 117.525 143.59C117.435 143.54 118.581 141.73 118.49 141.68C114.56 139.43 110.007 139.05 107.986 133.63C103.352 135.36 104.307 142.93 103.262 144.41C103.021 144.75 97.7533 145.72 97.4316 148.59C97.9041 142.05 96.0344 138.61 100.799 131.49C104.518 125.93 106.147 126.26 111.504 125.65Z" fill="#402D22"/>
<path d="M84.3642 248.33C84.9271 239.04 83.0976 229.71 83.359 220.4L79.5493 220.22L78.333 217.42C85.3292 219.37 82.394 213.28 87.3697 212.43C89.5912 215.74 85.0678 223.3 91.4005 222.4C90.717 228.88 90.7572 234.96 90.3953 241.35C90.2546 243.93 89.4706 246.79 89.3902 248.33H84.3642Z" fill="#FBFCFC"/>
<path d="M97.4316 149.59C100.266 150.65 107.634 161.07 108.268 163.28C109.233 166.67 107.353 169.65 107.484 170.53H106.478C106.177 170.62 105.735 170.4 105.473 170.53C105.956 167.55 104.709 168.92 103.463 168.54C102.216 168.16 99.633 167.35 98.4368 167.54C97.4517 166.36 97.7633 164.82 97.4316 163.55C97.2306 162.76 96.4566 161.79 96.4264 161.56C95.9238 157.02 97.2507 153.27 97.4316 149.59Z" fill="#402D22"/>
<path d="M91.4007 222.4C91.7324 219.19 90.4759 213.93 93.401 211.43C94.5269 214.96 92.4059 220.22 92.4059 222.89V237.35H102.458V254.31L90.4056 255.3L91.8832 253.31L100.518 252.88L101.463 241.34H90.3955C90.7574 234.96 90.7172 228.87 91.4007 222.39V222.4Z" fill="#D5D7D9"/>
<path d="M112.51 341.09C112.49 341.42 112.52 341.76 112.51 342.09C112.47 343.01 113.676 345.54 113.515 348.07H89.3906C89.9937 346.69 91.7026 345.51 92.4062 344.08C93.7431 344.02 95.0901 344.11 96.427 344.08C104.197 343.91 103.574 343.25 110.5 341.09C111.012 340.93 111.887 341.2 112.51 341.09Z" fill="#333231"/>
<path d="M89.3905 248.33C89.1694 252.62 89.5614 257 89.3805 261.3L84.3646 258.31C84.2842 257.04 83.5403 255.62 83.3594 254.32C84.7666 251.47 84.2037 251.05 84.3646 248.34H89.3905V248.33Z" fill="#EAA97F"/>
<path d="M110.499 341.09C103.573 343.25 104.197 343.91 96.4264 344.08C95.7228 341.27 99.1405 342.09 100.447 340.09L110.499 341.09Z" fill="#EAA97F"/>
<path d="M122.562 244.34C122.562 245 122.562 245.67 122.562 246.33H106.479V243.34L122.562 244.34Z" fill="#40A39E"/>
<path d="M106.479 288.23V246.33H107.484L106.479 288.23Z" fill="#5BC3B0"/>
<path d="M100.447 175.52C100.186 176.19 99.6433 176.85 99.4423 177.51C99.3518 177.82 99.5428 178.21 99.4423 178.51C99.0704 179.64 97.7837 180.71 98.4371 182.5C94.3158 181.99 90.0437 181.94 93.0895 176.72C93.3709 176.23 93.2804 175.52 94.1047 175.48L100.447 175.52Z" fill="#FBFCFC"/>
<path d="M101.452 195.47C101.593 195.61 103.111 198.4 103.513 198.94C103.493 200.54 102.287 200.74 101.452 201.45C101.09 201.76 100.769 202.1 100.447 202.45C99.3715 202.14 97.2204 202.93 96.7178 201L99.4419 194.47C99.8037 194.88 101.05 195.05 101.452 195.47Z" fill="#72A8B3"/>
<path d="M101.453 195.47C101.051 195.05 99.8044 194.88 99.4425 194.47C99.1812 194.18 96.2159 195.56 97.4221 189.99C100.98 188.34 103.403 192.02 101.453 195.47Z" fill="#F5F9F9"/>
<path d="M99.4425 340.09C97.5326 338.91 98.578 323.52 98.4373 320.14L99.4425 340.09Z" fill="#5BC3B0"/>
<path d="M103.463 168.54C104.71 168.93 105.956 167.56 105.474 170.53C101.553 172.39 102.86 177.84 99.4424 177.51C99.6434 176.85 100.186 176.19 100.448 175.52C101.403 173.09 102.146 170.85 103.463 168.54Z" fill="#F5F9F9"/>
<path d="M118.541 122.66C118.45 123.3 118.601 124 118.541 124.65C118.189 124.6 113.002 125.48 111.505 125.65C110.6 122.27 115.867 124.15 118.541 122.66Z" fill="#FBFCFC"/>
<path d="M99.4422 178.51C102.056 178.27 101.523 178.52 101.231 180.78C100.618 185.49 99.1004 182.59 98.437 182.5C97.7836 180.71 99.0703 179.64 99.4422 178.51Z" fill="#F5F9F9"/>
<path d="M105.473 214.42C103.714 212.28 103.372 209.46 102.438 206.96C104.478 204.74 105.373 209.79 105.473 210.44C105.674 211.7 105.343 213.14 105.473 214.43V214.42Z" fill="#F5F9F9"/>
<path d="M90.3949 191.48H88.3945V196.46H90.3949V191.48Z" fill="#FBFCFC"/>
<path d="M101.452 202.45C101.955 202.61 102.829 202.31 103.463 202.45L101.462 205.43V202.44L101.452 202.45Z" fill="#F5F9F9"/>
<path d="M106.478 215.41C106.146 215.08 105.774 214.78 105.473 214.41C105.342 213.12 105.674 211.68 105.473 210.42H106.478V215.41Z" fill="#D5D7D9"/>
<path d="M101.452 202.45C101.151 202.35 100.759 202.54 100.447 202.45C100.769 202.11 101.091 201.76 101.452 201.45V202.45Z" fill="#FBFCFC"/>
<path d="M118.541 280.25C120.783 300.16 122.19 320.2 124.572 340.09C121.235 340.33 115.918 341.3 112.51 342.08C112.52 341.75 112.49 341.41 112.51 341.08C112.691 338.13 114.52 331.4 114.52 328.61V290.71C114.52 288.39 115.365 283.44 115.526 280.24H118.541V280.25Z" fill="#FBFCFC"/>
<path d="M141.66 343.08C145.651 345.02 144.867 343.19 147.691 347.07L126.582 348.07L125.577 343.08C125.818 342.14 126.562 341.17 126.582 340.09C126.914 340.07 127.256 340.11 127.588 340.09C130.472 342.3 138.926 347.45 141.66 343.08Z" fill="#333231"/>
<path d="M125.577 343.08L126.582 348.07L147.691 347.07C148.214 347.79 150.033 348.17 149.702 350.06L147.691 351.06C140.001 350.96 132.261 351.13 124.572 351.06C124.109 350.6 125.265 344.35 125.577 343.08Z" fill="#1D1D1D"/>
<path d="M113.515 348.07C113.455 348.99 114.058 350.93 112.912 351.09L88.3853 351.06C87.9832 349.62 88.9582 349.07 89.3804 348.07H113.505H113.515Z" fill="#1D1D1D"/>
<path d="M137.64 340.09C138.796 340.96 140.454 342.5 141.661 343.08C138.926 347.44 130.473 342.3 127.588 340.09C130.915 339.93 134.303 340.2 137.64 340.09Z" fill="#EAA97F"/>
<path d="M115.525 280.25C115.726 276.13 115.214 271.89 115.525 267.77C115.646 266.21 114.54 263.85 117.023 264.28C117.596 269.57 117.948 274.94 118.541 280.24H115.525V280.25Z" fill="#9EC8D3"/>
<path d="M136.634 289.22L122.551 290.21C122.471 289.56 122.642 288.86 122.551 288.22L136.624 289.22H136.634Z" fill="#FDFDFD"/>
<path d="M129.598 150.58C129.567 152.9 129.638 155.24 129.598 157.56C129.588 158.22 129.668 158.91 129.598 159.55C129.025 165.12 129.125 165.68 124.572 168.53C123.928 168.93 120.963 167.42 121.556 170.52H120.551C120.702 169.61 118.752 165.86 119.777 162.26C120.159 160.92 127.014 151.79 128.592 150.57C128.793 150.41 129.326 150.71 129.598 150.57V150.58Z" fill="#402D22"/>
<path d="M126.583 172.53V175.52H124.582C124.15 173.44 122.954 172.39 125.577 171.54C125.939 171.85 126.422 172.45 126.583 172.54V172.53Z" fill="#F8FAFB"/>
<path d="M122.562 199.46L125.597 194.48L129.166 198.53C133.488 200.57 132.282 192.88 135.629 195.49C137.931 197.28 133.016 197.24 133.629 198.46L136.715 199.03C136.785 200.8 136.423 202.71 136.634 204.45H135.629L124.582 205.44L125.597 200.98L122.562 200.46C122.562 200.13 122.562 199.8 122.562 199.46Z" fill="#EAECEB"/>
<path d="M122.562 182.5L125.497 180.64L126.08 182.5L128.583 177.52L128.603 183.99L122.562 183.5C122.562 183.17 122.562 182.84 122.562 182.5Z" fill="#EAECEB"/>
<path d="M136.635 204.44C138.092 216.23 137.298 228.51 140.756 239.91L138.645 241.34H129.588L130.533 252.87L138.163 253.3L139.64 255.29L130.272 255.12C129.327 254.8 127.588 252.39 127.588 251.8V237.34H137.65L135.629 204.43H136.635V204.44Z" fill="#D5D7D9"/>
<path d="M140.656 248.33H145.692C145.47 250.92 145.993 253.75 145.692 256.31C145.249 260 145.671 262.36 140.666 262.29C140.635 261.3 140.716 260.29 140.666 259.3V258.3C140.465 255.14 141.118 251.27 140.666 248.33H140.656Z" fill="#EAA97F"/>
<path d="M140.655 259.3C140.635 258.97 140.675 258.63 140.655 258.3V259.3Z" fill="#FBFCFC"/>
<path d="M129.588 185.5C129.769 188.32 129.628 192.09 126.592 193.47C126.13 189.58 129.809 191.21 127.578 186.99L129.588 185.5Z" fill="#EAECEB"/>
<path d="M126.08 176.52L126.583 177.01L126.08 177.51V176.52Z" fill="#F8FAFB"/>
<path d="M127.587 97.7199C128.683 97.4599 130.372 97.8799 131.608 97.7299C131.136 98.6799 130.955 99.7298 130.603 100.71C128.834 105.65 123.275 120.66 130.603 122.65C130.864 124.89 130.191 127.24 130.754 129.47L135.629 130.63L135.528 136.2C136.332 137.14 142.766 139.02 144.676 139.6V146.58L146.324 144.52C149.5 145.73 153.964 145 156.738 145.59C158.045 145.87 159.693 147.41 161.764 146.59V151.58C160.186 153.63 158.517 155.68 156.738 157.56L151.692 158.15L152.717 172.53C151.843 179.47 150.194 187.93 147.691 194.47C147.48 189.53 146.726 184.61 146.686 179.51C146.666 176.57 147.46 173.09 145.681 170.53C145.701 169.87 145.661 169.2 145.681 168.54C145.741 166.56 146.133 149.58 145.178 149.58C144.072 155.8 144.937 162.26 144.676 168.54C144.283 178.03 142.032 188.75 144.676 198.46C144.676 198.79 144.686 199.13 144.676 199.46C144.625 200.92 145.55 205.22 143.68 205.44C140.976 198.69 140.484 181.87 136.634 176.52C136.332 176.1 136.001 175.86 135.629 175.52C133.377 173.49 127.909 173.2 126.582 172.53C126.421 172.45 125.939 171.84 125.577 171.53C124.994 171.03 124.783 169.37 124.572 168.54C129.125 165.69 129.025 165.13 129.598 159.56L137.649 159.05L129.598 157.57C129.638 155.25 129.567 152.91 129.598 150.59C129.99 150.38 130.341 148.84 131.367 148.65L144.665 147.61L128.592 146.6C128.663 145.95 128.552 145.26 128.592 144.61C129.025 137.98 127.567 125.86 118.54 124.66C118.601 124.01 118.45 123.31 118.54 122.67C119.546 115.15 124.18 106.85 125.577 99.7299C126.572 99.6799 127.446 97.7698 127.587 97.7398V97.7199ZM136.634 160.56V174.52L138.423 161.81L136.634 160.56Z" fill="#EAECEB"/>
<path d="M157.743 97.72C156.316 97.85 157.572 101.49 157.743 101.71H155.743V103.7H157.743V101.71C158.015 102.05 163.684 106.43 164.78 106.7C165.091 106.78 165.463 106.66 165.785 106.7C165.745 107.36 165.835 108.04 165.785 108.69C165.735 109.28 165.524 108.62 165.785 109.69C166.107 110.98 166.448 112.39 166.79 113.68C165.152 115.63 165.111 117.18 167.795 116.67C168.328 118.66 168.79 120.83 169.806 122.65C168.901 124.14 169.102 126.1 168.801 126.64C168.549 127.08 160.478 130.23 169.293 132.65L170.811 128.63C174.46 130.96 173.485 131.35 175.837 135.61H174.832C174.198 134.78 173.997 133.4 172.831 133.62C172.851 134.6 172.751 135.62 172.821 136.61C168.76 136.94 163.473 142.67 164.78 146.58C164.458 146.53 164.096 146.63 163.775 146.58C163.141 146.48 162.387 146.69 161.764 146.58C160.317 146.32 158.125 145.93 156.738 145.58C153.753 144.82 150.838 143.67 147.691 143.58C147.159 142.07 148.576 140.54 148.697 139.6C149.139 136.08 149.179 131.45 149.702 128.63C149.792 128.15 150.436 126.83 150.707 125.64C153.471 126.22 157.743 125.23 160.759 125.64L159.734 118.66C158.568 118.39 157.572 119.48 156.728 119.66C155.884 119.84 154.667 119.54 153.713 119.66L154.718 117.68C152.969 117.23 153.321 117.88 152.707 118.67C151.571 120.12 151.421 120.81 151.702 122.66C151.26 123.85 151.049 124.13 150.697 125.65C149.069 125.31 145.832 122.32 145.671 121.66C145.088 119.25 150.114 101.78 150.697 96.72C150.767 96.07 150.647 95.38 150.697 94.73C152.386 95.96 155.793 97.38 157.733 97.72H157.743ZM156.728 111.69H154.728V113.67H156.728V111.69Z" fill="#EAECEB"/>
<path d="M149.701 70.7899C150.525 64.6399 139.076 65.7199 139.639 59.8199C136.091 56.6899 130.914 73.4899 129.537 75.2199C129.678 76.8199 137.629 85.86 138.413 88.47C139.418 91.81 137.589 94.38 137.629 94.73L130.592 100.71C130.944 99.7299 131.125 98.68 131.598 97.73C130.361 97.88 128.673 97.46 127.577 97.72L126.572 96.72C127.305 90.52 124.29 80.7599 124.561 73.7799V71.7899C125.365 63.5199 129.517 53.1399 138.664 51.2899C147.249 49.5599 154.375 52.89 160.748 57.83L162.759 61.8199C163.392 66.7499 164.297 71.8899 164.769 76.7799V78.7699C164.809 79.4199 164.799 80.11 164.769 80.76L163.764 82.7499C163.704 83.4099 163.814 84.0899 163.764 84.7399V86.73C163.663 87.71 163.885 88.75 163.764 89.72C162.085 90.26 161.16 91.5699 162.759 92.7099C162.668 94.0099 162.739 95.3899 162.759 96.6999C162.387 96.8999 161.955 97.6699 161.753 97.6999C160.758 97.8299 158.668 97.8599 157.733 97.6999C155.793 97.3599 152.385 95.9399 150.696 94.7099C150.777 93.5899 148.314 89.98 150.214 87.75L159.582 76.05L159.281 72.6999C158.657 71.7799 157.361 72.0699 156.728 71.7799" fill="#1D1D1D"/>
<path d="M161.764 97.72C161.784 98.53 162.538 99.14 162.769 99.71C163.654 101.91 164.619 104.28 164.78 106.69C163.684 106.42 158.015 102.04 157.744 101.7V103.68H155.743V101.7H157.744C157.573 101.48 156.316 97.84 157.744 97.71C158.678 97.87 160.769 97.84 161.764 97.71V97.72Z" fill="#E8EAEA"/>
<path d="M127.588 97.72C127.447 97.75 126.572 99.66 125.577 99.71C125.808 98.53 126.552 96.98 126.582 96.72L127.588 97.72Z" fill="#FBFCFC"/>
<path d="M162.769 92.73C161.171 91.58 162.096 90.28 163.774 89.74C163.543 91.59 162.779 92.57 162.769 92.73Z" fill="#FBFCFC"/>
<path d="M162.769 99.72C162.538 99.15 161.784 98.54 161.764 97.73C161.965 97.7 162.397 96.93 162.769 96.73C162.769 97.1 164.367 98.36 162.769 99.72Z" fill="#FBFCFC"/>
<path d="M164.779 78.77V76.78C164.839 77.43 164.739 78.12 164.779 78.77Z" fill="#FBFCFC"/>
<path d="M163.774 86.75V84.76C163.724 85.42 163.845 86.1 163.774 86.75Z" fill="#FBFCFC"/>
<path d="M124.572 73.78C124.602 73.12 124.512 72.44 124.572 71.79V73.78Z" fill="#FBFCFC"/>
<path d="M130.602 122.66C130.361 120.53 130.884 117.7 129.748 115.24L136.563 112.75L141.66 118.67C142.253 121.62 141.991 126.39 145.68 121.66C145.841 122.32 149.078 125.31 150.706 125.65C150.435 126.84 149.792 128.16 149.701 128.64C143.901 130.96 140.021 127.53 135.799 128.78L135.628 130.63L130.753 129.47C130.18 127.24 130.854 124.88 130.602 122.65V122.66Z" fill="#E8EAEA"/>
<path d="M137.639 95.73C138.664 103.3 140.142 111.18 141.66 118.67L136.564 112.75L129.748 115.24C130.884 117.7 130.362 120.52 130.603 122.66C123.275 120.66 128.834 105.65 130.603 100.72L137.639 94.74C137.679 95.07 137.599 95.41 137.639 95.74V95.73Z" fill="#E4E6E5"/>
<path d="M149.702 128.64C149.179 131.46 149.139 136.1 148.696 139.61C146.947 141.09 146.183 140.07 144.676 139.61C142.766 139.02 136.332 137.15 135.528 136.21L135.629 130.64L135.8 128.79C140.011 127.53 143.892 130.97 149.702 128.65V128.64Z" fill="#7A4A2F"/>
<path d="M147.691 194.47C147.831 197.77 147.6 201.13 147.681 204.44L144.675 199.46C144.685 199.13 144.675 198.79 144.675 198.46C144.806 192.83 144.504 187.13 144.675 181.5L146.685 179.51C146.726 184.61 147.48 189.53 147.691 194.47Z" fill="#5C68A7"/>
<path d="M145.68 168.54C145.66 169.2 145.701 169.87 145.68 170.53C145.6 173.72 144.796 177.68 144.675 181.5C144.504 187.13 144.806 192.82 144.675 198.46C142.032 188.74 144.283 178.03 144.675 168.54H145.68Z" fill="#FBFCFC"/>
<path d="M156.738 157.56C156.356 157.96 157.783 160.62 152.707 159.55C153.813 164.74 153.31 167.76 152.707 172.52L151.682 158.14L156.728 157.55L156.738 157.56Z" fill="#D5D7D9"/>
<path d="M163.774 146.59L163.814 150.9C163.674 152.06 161.854 151.45 161.764 151.57V146.58C162.387 146.69 163.141 146.48 163.774 146.58V146.59Z" fill="#D5D7D9"/>
<path d="M148.696 139.61C148.576 140.55 147.158 142.08 147.691 143.59C150.847 143.68 153.752 144.84 156.738 145.59C153.953 145 149.5 145.74 146.324 144.52L144.686 146.58V139.6C146.183 140.06 146.947 141.08 148.696 139.6V139.61Z" fill="#D5D7D9"/>
<path d="M161.764 146.59C159.694 147.41 158.045 145.87 156.738 145.59C158.125 145.94 160.317 146.33 161.764 146.59Z" fill="#D5D7D9"/>
<path d="M128.592 146.59L144.665 147.6L131.367 148.64C130.341 148.83 129.979 150.37 129.597 150.58C129.326 150.72 128.793 150.42 128.592 150.58C128.683 149.27 128.462 147.9 128.592 146.59Z" fill="#9EC8D3"/>
<path d="M145.68 168.54H144.675C144.936 162.26 144.072 155.8 145.178 149.58C146.133 149.58 145.741 166.56 145.68 168.54Z" fill="#D5D7D9"/>
<path d="M146.686 179.51L144.676 181.5C144.796 177.68 145.601 173.72 145.681 170.53C147.46 173.09 146.666 176.56 146.686 179.51Z" fill="#747DBA"/>
<path d="M136.634 160.56L138.423 161.81L136.634 174.52V160.56Z" fill="#D5D7D9"/>
<path d="M129.598 157.56L137.649 159.04L129.598 159.55C129.668 158.9 129.588 158.21 129.598 157.56Z" fill="#D5D7D9"/>
<path d="M136.634 176.52L135.629 175.52C136.001 175.86 136.333 176.1 136.634 176.52Z" fill="#D5D7D9"/>
<path d="M137.639 94.73C137.598 94.38 139.428 91.81 138.423 88.47C137.639 85.86 129.688 76.82 129.547 75.22C130.924 73.49 136.101 56.69 139.649 59.82C139.086 65.72 150.535 64.64 149.711 70.79L156.747 71.79C157.381 72.09 158.687 71.79 159.301 72.71L159.602 76.06L150.234 87.76C148.334 89.99 150.797 93.6 150.716 94.72C150.666 95.38 150.787 96.07 150.716 96.71L144.193 107.68L137.649 95.72C137.609 95.39 137.689 95.05 137.649 94.72L137.639 94.73Z" fill="#7A4A2F"/>
<path d="M137.639 95.73L144.182 107.69L150.706 96.72C150.123 101.77 145.097 119.24 145.68 121.66C141.991 126.39 142.253 121.62 141.659 118.67C140.142 111.18 138.664 103.29 137.639 95.73Z" fill="#5BC3B0"/>
<path d="M172.821 136.62C173.093 140.31 175.324 143.49 171.816 147.59C168.408 147.72 167.353 147 164.78 146.59C163.473 142.67 168.76 136.94 172.821 136.62Z" fill="#E8EAEA"/>
<path d="M152.717 118.67C153.33 117.89 152.978 117.23 154.728 117.68L153.722 119.66L156.225 121.66L156.738 119.66C157.582 119.48 158.577 118.39 159.743 118.66L160.769 125.64C157.753 125.23 153.481 126.22 150.717 125.64C151.069 124.11 151.28 123.84 151.722 122.65C152.164 121.46 153.401 120.54 152.727 118.66L152.717 118.67Z" fill="#DEE3E4"/>
<path d="M170.81 128.64L169.292 132.66C160.477 130.24 168.548 127.09 168.8 126.65C169.493 127.21 170.096 128.19 170.81 128.64Z" fill="#E8EAEA"/>
<path d="M156.738 119.66L156.226 121.66L153.723 119.66C154.678 119.54 155.874 119.84 156.738 119.66Z" fill="#5C68A7"/>
<path d="M167.795 116.67C165.111 117.18 165.152 115.63 166.79 113.68C166.971 114.36 167.464 115.43 167.795 116.67Z" fill="#E8EAEA"/>
<path d="M151.712 122.66C151.43 120.81 151.581 120.12 152.717 118.67C153.39 120.55 152.144 121.49 151.712 122.66Z" fill="#3A3A3A"/>
<path d="M156.738 111.69H154.737V113.67H156.738V111.69Z" fill="#E8EAEA"/>
<path d="M165.785 109.69C165.522 108.62 165.735 109.28 165.785 108.69V109.69Z" fill="#E8EAEA"/>
<path d="M149.701 206.44C152.606 207.77 156.647 207.76 159.753 207.44C160.085 207.41 160.427 207.48 160.759 207.44C160.578 210.4 161.02 213.47 160.759 216.42C160.417 216.74 160.045 217.05 159.753 217.42C157.823 219.85 158.316 233.7 159.753 237.37C159.753 238.37 159.763 239.37 159.753 240.36C159.753 240.69 159.753 241.02 159.753 241.36C159.703 245.01 161.201 255.09 157.743 254.33C157.492 254.21 152.999 254.21 152.717 254.33L148.696 206.45H149.701V206.44Z" fill="#6E78B4"/>
<path d="M151.712 256.31C151.642 257.29 151.823 258.33 151.712 259.3C151.672 259.66 150.063 260.82 150.717 262.29H159.754C160.055 266.57 159.532 270.98 159.754 275.27L140.715 274.21C140.494 270.26 140.755 266.26 140.645 262.3C145.651 262.36 145.228 260 145.671 256.32H151.702L151.712 256.31Z" fill="#E4E6E5"/>
<path d="M157.743 254.31C159.492 255.11 159.553 258.68 159.754 260.29L151.712 259.29C151.823 258.31 151.642 257.28 151.712 256.3L152.717 254.31C152.999 254.19 157.492 254.19 157.743 254.31Z" fill="#333231"/>
<path d="M159.753 260.3C159.834 260.95 159.703 261.64 159.753 262.29H150.717C150.063 260.82 151.671 259.66 151.712 259.3L159.753 260.3Z" fill="#1D1D1D"/>
<path d="M159.754 221.4C159.724 222.06 159.774 222.73 159.754 223.39C159.593 228.02 159.784 232.72 159.754 237.35C158.316 233.68 157.824 219.83 159.754 217.4C159.663 218.72 159.804 220.07 159.754 221.39V221.4Z" fill="#5C68A7"/>
<path d="M159.754 217.41C160.045 217.04 160.417 216.74 160.759 216.41C160.739 216.68 159.774 217.16 159.754 217.41Z" fill="#D5D7D9"/>
<path d="M145.681 73.79H143.681V75.77H145.681V73.79Z" fill="#684935"/>
<path d="M62.249 217.41C62.5505 221.68 54.4688 218.25 52.3478 219.55L40.4563 246.21L11.9691 235.9L10.8936 232.89C12.0696 227.42 24.8658 193.47 27.7909 192.62C32.4952 191.26 38.6168 196.1 42.7281 192.46L57.8362 205.42L53.2022 218.4C55.1623 218.25 57.3034 218.65 59.2334 218.41C59.6153 218.36 61.7464 217.63 62.249 217.41ZM34.4453 198.1C33.3195 197.5 31.7413 193.2 28.1729 194.55L12.914 233.73L39.5215 244.42L55.102 206.1C48.2064 202.91 41.4515 201.84 34.4453 198.1Z" fill="#77ADBB"/>
<path d="M34.4453 198.1C41.4515 201.84 48.2065 202.91 55.1021 206.1L39.5216 244.42L12.9141 233.73L28.1729 194.55C31.7414 193.2 33.3195 197.5 34.4453 198.1ZM29.7209 201.54C25.4086 203 29.7008 211.4 34.6866 207.52C39.0994 204.09 32.3545 200.65 29.7209 201.54Z" fill="#F5F9F9"/>
<path d="M29.721 201.54C32.3546 200.65 39.0995 204.09 34.6867 207.52C29.7009 211.4 25.4087 203 29.721 201.54Z" fill="#77ADBB"/>
<path d="M275.351 64.8101L276.346 61.8301C278.698 68.4401 271.401 71.2001 276.467 78.6901C278.135 79.7201 282.528 76.6001 285.453 78.2501C286.69 78.9501 300.642 100.81 300.592 102.23C300.511 104.82 294.118 104.84 294.812 109.79L280.89 112.68C278.588 111.05 277.231 104.92 276.356 103.71C276.829 104.09 278.186 104.4 278.367 104.71C279.885 107.31 282.749 114.97 285.403 109.7C285.725 109.7 286.107 109.76 286.408 109.7C289.665 109.06 295.003 103.52 298.531 102.16C295.184 97.6301 286.539 78.9001 281.151 79.9601C280.548 80.0801 271.36 86.2001 270.898 86.8201C267.229 91.6901 270.617 91.9001 271.33 93.7401C271.632 94.5201 271.954 95.0301 272.336 95.7301C273.059 97.0701 273.22 98.1801 274.346 99.7201C274.929 100.51 275.381 101.32 276.356 101.71V103.7C274.356 100.93 268.174 95.1601 267.501 91.9601C266.505 87.2301 274.919 82.6101 269.3 75.7901L266.324 77.7701L263.299 74.2901L274.356 65.8201L275.361 64.8201L275.351 64.8101Z" fill="#77ADBB"/>
<path d="M259.258 51.8401C260.203 56.1301 260.565 63.5801 254.755 57.8201L254.182 53.5201L259.258 51.8501V51.8401Z" fill="#7BB1C2"/>
<path d="M273.341 52.8301L273.331 59.8101L272.336 55.8201L265.31 56.8201L267.33 53.3601L273.341 52.8301Z" fill="#72A8B3"/>
<path d="M275.351 64.8102L274.345 65.8102C269.641 65.7302 262.776 69.5602 262.273 74.7802L261.841 71.8402C263.479 68.3702 271.229 62.4602 275.351 64.8102Z" fill="#72A8B3"/>
<path d="M271.33 93.73C270.606 91.88 267.229 91.67 270.898 86.81C271.37 86.19 280.548 80.07 281.151 79.95C286.538 78.89 295.193 97.62 298.53 102.15C295.002 103.51 289.665 109.05 286.408 109.69L285.764 107.67L281.382 107.7C281.854 109.65 283.764 109.7 285.403 109.68C282.749 114.95 279.884 107.29 278.366 104.69H278.869L279.371 104.19L278.869 103.69L278.366 104.69C278.185 104.39 276.828 104.07 276.356 103.69V101.7L278.356 99.71H274.345C273.22 98.16 273.059 97.06 272.335 95.71C276.637 96.53 273.149 90.86 271.33 93.72V93.73ZM275.853 97.72V98.72L276.356 98.22L275.853 97.72Z" fill="#F8FAFB"/>
<path d="M271.33 93.7301C273.149 90.8701 276.638 96.5501 272.335 95.7201C271.953 95.0101 271.632 94.5101 271.33 93.7301Z" fill="#E8EAEA"/>
<path d="M285.403 109.69C283.764 109.71 281.854 109.66 281.382 107.71L285.764 107.68L286.408 109.7C286.106 109.76 285.724 109.7 285.403 109.7V109.69Z" fill="#E8EAEA"/>
<path d="M274.346 99.72H278.356L276.356 101.71C275.381 101.31 274.929 100.51 274.346 99.72Z" fill="#E8EAEA"/>
<path d="M278.366 104.7L278.869 103.7L279.371 104.2L278.869 104.7H278.366Z" fill="#E8EAEA"/>
<path d="M275.854 97.72L276.356 98.22L275.854 98.72V97.72Z" fill="#E8EAEA"/>
<path d="M311.538 181.5C309.316 179.1 296.088 161.43 296.882 159.56L326.374 138.82H329.45L334.657 145.6C333.773 145.78 332.597 145.48 331.642 145.6C331.451 145.2 328.887 142.16 328.626 142.05L299.606 159.69L313.548 181.51C312.975 181.37 312.171 181.6 311.538 181.51V181.5Z" fill="#77ADBB"/>
<path d="M334.657 145.6C335.904 145.35 337.331 143.99 339.05 144.66L342.679 148.61L339.663 149.59C340.98 151.73 341.061 155.98 341.684 157.56L340.679 158.56C334.466 151.2 336.045 154.97 331.632 145.59C332.587 145.47 333.763 145.77 334.647 145.59L334.657 145.6Z" fill="#7BB1C2"/>
<path d="M321.59 180.51V178.52C329.058 174.08 335.622 167.86 343.242 163.57C343.493 163.05 341.191 159.16 340.689 158.57L341.694 157.57C341.845 157.97 344.8 160.04 345.212 161.61L345.252 164.54C337.583 170.23 329.702 175.47 321.59 180.51Z" fill="#77ADBB"/>
<path d="M321.59 180.51C320.394 181.25 317.117 185.23 315.901 185.4C313.589 185.31 312.774 182.84 311.538 181.51C312.171 181.6 312.976 181.37 313.548 181.51C317.931 182.55 317.881 180.72 321.59 178.52V180.51Z" fill="#7BB1C2"/>
<path d="M331.642 145.6C336.055 154.98 334.477 151.21 340.689 158.57C341.191 159.16 343.493 163.04 343.242 163.57C335.623 167.86 329.059 174.08 321.59 178.52C317.881 180.72 317.931 182.55 313.548 181.51L299.606 159.69L328.626 142.05C328.898 142.17 331.461 145.2 331.642 145.6ZM319.58 149.59C319.248 149.63 318.896 149.53 318.574 149.59C318.293 149.64 314.544 151.88 314.524 152.11L320.062 158.57L329.622 152.1L324.988 145.7L319.59 149.59H319.58ZM308.523 162.54L306.522 160.56V162.55H308.523V162.54ZM314.564 174.53C314.232 176 315.016 176.64 316.072 177.49C316.273 176.58 315.669 174.07 314.564 174.53Z" fill="#F5F9F9"/>
<path d="M319.579 149.59L324.977 145.7L329.611 152.1L320.051 158.57L314.513 152.11C314.533 151.87 318.282 149.64 318.564 149.59L319.076 151.59H321.579L319.579 149.59Z" fill="#77ADBB"/>
<path d="M319.58 149.59L321.58 151.58H319.077L318.564 149.59C318.886 149.53 319.238 149.63 319.57 149.59H319.58Z" fill="#72A8B3"/>
<path d="M308.522 162.54L306.521 162.55V160.56L308.522 162.54Z" fill="#579CA2"/>
<path d="M314.563 174.53C315.669 174.07 316.272 176.59 316.071 177.49C315.016 176.64 314.232 176 314.563 174.53Z" fill="#77ADBB"/>
<path d="M189.909 100.71C199.046 102.72 200.172 114.34 197.951 121.66C197.689 121.47 196.533 121.82 195.94 121.66L194.915 113.67C188.22 116.12 182.25 113.88 176.369 110.68C174.138 111.24 173.796 119.15 172.831 120.97C172.208 122.15 170.861 121.57 170.81 121.66C169.654 116.06 169.564 112.05 171.816 106.7C177.807 105.05 179.515 98.4401 189.909 100.72V100.71Z" fill="#684935"/>
<path d="M191.919 234.37L192.924 276.26C195.186 278.51 201.76 276.68 204.986 277.26L205.992 299.2C205.901 302.66 205.057 306.59 204.986 309.17V310.17C204.966 310.83 205.007 311.5 204.986 312.16V339.09C204.775 339.14 202.866 341.76 201.971 342.08C198.593 341.49 194.271 343.13 190.914 341.08C190.914 340.86 189.939 339.89 189.909 339.09C189.044 316.84 187.898 294.51 186.883 272.27C185.767 279.06 185.375 286.33 184.883 293.21C184.39 300.09 182.289 307.41 184.883 314.16C184.661 322.48 184.139 330.76 183.877 339.1C183.847 340.18 182.872 341.55 182.872 342.09C178.65 342.63 174.911 341.83 170.81 341.09C170.197 340.98 169.352 340.15 168.799 340.09C169.865 333.24 167.794 325.03 167.794 318.65V293.71C167.794 289.21 166.085 283.63 166.789 278.25C170.277 277.73 175.936 279.9 177.846 276.26L178.851 234.37H191.919Z" fill="#737CB9"/>
<path d="M189.909 339.09H183.878C184.139 330.76 184.662 322.48 184.883 314.15C185.074 307.19 184.752 300.17 184.883 293.2C185.376 286.32 185.768 279.05 186.883 272.26C187.899 294.5 189.055 316.83 189.909 339.08V339.09Z" fill="#F8FAFB"/>
<path d="M201.971 342.09C206.806 342.94 214.607 345.99 214.034 352.06H188.904C188.803 348.74 190.944 344.12 190.914 341.09C194.272 343.14 198.594 341.49 201.971 342.09ZM211.018 349.07H191.919V350.07H211.018V349.07Z" fill="#333231"/>
<path d="M182.873 342.09C182.873 343.53 183.657 347 183.878 349.07H160.759C162.779 343.51 166.88 344.69 170.811 341.09C174.912 341.82 178.651 342.62 182.873 342.09Z" fill="#333231"/>
<path d="M183.877 350.06C183.877 350.17 185.355 350.66 184.873 352.05H160.758C160.195 349.05 162.296 350.13 164.226 350.06C170.76 349.84 177.354 350.22 183.877 350.06Z" fill="#333231"/>
<path d="M183.878 349.07C183.908 349.4 183.858 349.74 183.878 350.07C177.354 350.23 170.76 349.85 164.227 350.07C162.297 350.13 160.196 349.06 160.759 352.07C158.185 351.27 160.477 349.85 160.759 349.08H183.878V349.07Z" fill="#1D1D1D"/>
<path d="M197.951 185.49C201.63 186.48 204.153 186.89 208.013 186.49V189.47C207.007 189.45 205.982 189.54 204.987 189.47C203.258 189.36 199.69 187.43 196.935 188.47C196.855 187.48 197.036 186.46 196.935 185.48C197.257 185.54 197.629 185.4 197.941 185.48L197.951 185.49Z" fill="#FBFCFC"/>
<path d="M197.95 149.59H195.94L197.458 152.59H198.946V149.59C202.303 149.41 208.173 150.15 211.008 152.58C211.269 152.81 214.245 157.89 214.536 158.56C224.558 181.9 223.07 226.75 225.081 253.32C225.161 254.35 224.065 255.2 224.076 255.31H215.029C214.989 255.09 213.722 254.22 214.024 253.32C214.697 253.32 215.36 253.36 216.034 253.32L218.115 208.05C217.984 207.68 212.154 205.75 211.008 205.44C209.168 204.95 206.113 204.86 203.972 204.44C203.65 204.38 203.288 204.5 202.966 204.44C197.096 203.31 197.297 199.73 196.935 199.45V190.47C197.327 190.57 203.459 190.44 204.977 190.47C206.645 190.5 208.334 190.47 210.003 190.46L207.982 180.5L206.997 185.49H198.946C198.996 183.49 198.875 181.49 198.946 179.5L202.454 181.51L206.987 179.5C207.902 177.03 203.63 176.73 201.951 176.51C202.072 175.95 201.77 174.7 201.951 174.52C202.162 174.31 203.911 174.98 204.012 174L201.941 168.54C200.363 168.65 200.283 172.17 199.941 173.52C199.71 174.45 199.096 175.31 198.936 176.51C198.805 177.47 198.976 178.52 198.936 179.5H196.935C197.026 181.46 196.744 183.52 196.935 185.48H195.93C195.93 185.15 195.95 184.81 195.93 184.48L194.925 179.49L193.92 178.49C194.744 171.05 193.005 162.22 193.457 155.07C193.548 153.68 195.639 150.22 195.93 148.57C196.664 148.49 197.659 149.54 197.94 149.57L197.95 149.59ZM199.951 153.59C198.875 152.88 197.197 154.06 197.95 154.56C199.026 155.27 200.705 154.09 199.951 153.59ZM201.82 158.69C201.74 158.56 199.066 157.45 198.966 157.57C196.402 160.42 204.957 163.58 201.82 158.69ZM198.453 168.54V169.54L198.956 169.04L198.453 168.54ZM197.448 172.53V173.53L197.95 173.03L197.448 172.53Z" fill="#FBFCFC"/>
<path d="M174.831 135.62C175.716 136.77 176.771 139.84 177.847 140.61C178.229 142.51 177.394 143.92 176.841 145.6C174.861 151.54 175.917 161.21 174.831 169.05C174.721 169.87 176.801 169.28 176.841 170.2C176.932 172.64 176.731 175.09 176.841 177.52C174.932 177.92 175.334 179.59 174.831 180.51C173.977 182.06 173.273 179.84 173.826 183.5C174.037 184.88 173.997 186.27 174.831 187.49C172.067 188.01 167.956 190.2 164.789 190.47C169.252 191.13 173.504 189.71 177.847 189.48C177.907 192.79 177.907 196.14 177.847 199.45C177.847 199.88 178.701 200.82 178.852 201.43L159.753 207.42C156.647 207.74 152.606 207.76 149.701 206.42H148.696L152.717 254.3L151.712 256.29H145.68C145.992 253.73 145.469 250.9 145.68 248.3H140.644C140.544 247.65 137.156 244.07 138.634 241.32L140.745 239.89C137.287 228.49 138.081 216.21 136.624 204.42C136.403 202.68 136.774 200.77 136.704 199L133.618 198.43C133.005 197.2 137.92 197.25 135.618 195.46C132.271 192.86 133.467 200.54 129.155 198.5L125.587 194.45L122.551 199.43C122.551 194.12 122.561 188.78 122.551 183.47L128.592 183.96L128.572 177.49L126.069 182.47L125.486 180.61L122.551 182.47C122.541 178.74 123.415 173.77 121.546 170.5C120.953 167.39 123.918 168.91 124.561 168.51C124.772 169.34 124.983 171 125.567 171.5C122.943 172.35 124.139 173.4 124.571 175.48H126.562V172.49C127.888 173.16 133.357 173.46 135.608 175.48L136.614 176.48C140.474 181.83 140.956 198.64 143.66 205.4C145.53 205.18 144.595 200.88 144.655 199.42L147.661 204.4C147.58 201.1 147.822 197.73 147.671 194.43C150.174 187.88 151.822 179.43 152.697 172.49C153.29 167.73 153.792 164.71 152.697 159.52C157.773 160.59 156.346 157.93 156.728 157.53C158.507 155.64 160.175 153.6 161.754 151.55C161.844 151.43 163.663 152.04 163.804 150.88L163.764 146.57C164.086 146.62 164.447 146.52 164.769 146.57C167.342 146.97 168.398 147.7 171.805 147.57L164.779 170.5C168.679 169.35 167.001 162.38 173.816 164.52C174.007 164.58 173.002 167.53 175.816 166.51V164.52C175.253 164.37 173.967 164.69 173.816 164.52C172.429 163.05 166.398 157.42 171.795 159.54L173.806 146.57C173.565 146.16 172.268 147.55 171.805 147.57C175.314 143.47 173.082 140.28 172.811 136.6C172.74 135.61 172.841 134.6 172.821 133.61C173.987 133.38 174.188 134.77 174.821 135.6L174.831 135.62ZM171.805 169.53C172.439 168.23 170.237 166.07 169.815 166.54C169.172 167.79 171.363 170 171.805 169.53ZM172.318 170.53V171.53L172.821 171.03L172.318 170.53ZM171.805 175.51L169.815 171.53V175.51H171.805ZM167.785 176.52L166.81 172.54L165.825 175.04L167.795 176.52H167.785ZM126.079 176.52V177.52L126.582 177.02L126.079 176.52ZM172.811 176.52H170.81V178.5H172.811V176.52ZM167.292 178.51V179.51L167.795 179.01L167.292 178.51ZM129.587 185.5L127.577 186.99C129.808 191.21 126.129 189.58 126.592 193.47C129.638 192.08 129.768 188.32 129.587 185.5Z" fill="#FBFCFC"/>
<path d="M176.842 145.6L185.396 159.56C188.592 155.76 189.598 149.55 193.93 146.6C194.121 146.47 194.583 146.69 194.935 146.6L195.94 147.6C195.92 147.93 196.001 148.28 195.94 148.6C195.649 150.25 193.558 153.71 193.468 155.1C193.015 162.26 194.754 171.09 193.93 178.52L181.858 179.51V188.49C180.591 188.58 179.093 189.42 177.847 189.49C177.847 189.16 177.847 188.82 177.847 188.49C177.746 184.55 176.993 180.84 176.842 177.52C176.731 175.09 176.932 172.64 176.842 170.2C176.812 169.29 174.721 169.87 174.831 169.05C175.907 161.21 174.862 151.54 176.842 145.6Z" fill="#5BC3B0"/>
<path d="M170.81 121.66C170.86 121.57 172.207 122.15 172.831 120.97C173.796 119.15 174.137 111.25 176.369 110.68C182.259 113.88 188.22 116.12 194.915 113.67L195.94 121.66C196.533 121.81 197.679 121.46 197.95 121.66C198.222 121.86 199.368 121.51 199.961 121.66C200.664 127.31 197.066 129.04 194.935 134.63C190.964 137.67 192.161 132.63 189.215 131.83C182.722 130.07 180.5 132.28 175.836 135.63C173.484 131.36 174.459 130.98 170.81 128.65C170.097 128.19 169.493 127.21 168.8 126.66C169.101 126.12 168.9 124.16 169.805 122.67C170.016 122.32 170.599 122.04 170.81 121.67V121.66Z" fill="#EAA97F"/>
<path d="M192.925 140.61C192.865 141.11 194.352 145.33 193.93 146.59C189.588 149.54 188.593 155.75 185.396 159.55L176.842 145.59C177.395 143.92 178.229 142.51 177.847 140.6C182.31 143.8 188.321 142.67 192.925 140.6V140.61Z" fill="#EAA97F"/>
<path d="M175.836 135.62C180.5 132.28 182.722 130.07 189.215 131.82C192.161 132.62 190.964 137.66 194.935 134.62C194.493 135.79 193.025 139.8 192.925 140.6C188.321 142.67 182.31 143.8 177.847 140.6C176.771 139.83 175.716 136.76 174.831 135.61H175.836V135.62ZM181.516 133.79L181.385 139.62C185.275 135.71 192.271 143.48 188.944 134.08L181.516 133.79Z" fill="#684935"/>
<path d="M197.951 149.59C198.272 149.62 198.634 149.61 198.956 149.59V152.58L197.458 152.59L195.94 149.6H197.951V149.59Z" fill="#F8FAFB"/>
<path d="M195.94 147.59L194.935 146.59L195.93 145.59C195.94 146.25 195.98 146.92 195.94 147.58V147.59Z" fill="#F8FAFB"/>
<path d="M192.925 201.45V233.37C191.065 230.13 179.706 230.13 177.847 233.37V203.45C178.158 203.33 178.47 202.67 178.852 202.45V229.39H191.929L192.925 200.46V201.46V201.45Z" fill="#40A39E"/>
<path d="M211.018 221.4C211.048 222.06 210.998 222.73 211.018 223.39H198.956V238.35H196.945V221.39H211.018V221.4Z" fill="#DEE3E4"/>
<path d="M192.924 276.26L191.919 234.37H192.924V276.26Z" fill="#5C68A7"/>
<path d="M177.847 233.37C179.706 230.13 191.065 230.13 192.925 233.37V234.37H177.847V233.37Z" fill="#5BC3B0"/>
<path d="M204.987 277.25C205.681 277.37 207.028 276.79 207.018 277.77C205.229 284.82 206.183 292.06 205.992 299.2L204.987 277.26V277.25Z" fill="#5C68A7"/>
<path d="M196.946 199.46C197.307 199.74 197.106 203.32 202.977 204.45C199.459 203.82 195.84 204.12 192.925 201.46V199.47C193.789 199.45 196.765 199.33 196.946 199.47V199.46Z" fill="#D5D7D9"/>
<path d="M204.988 330.12V312.17C204.815 318.12 204.988 324.16 204.988 330.12Z" fill="#5C68A7"/>
<path d="M211.018 205.44V206.44L203.981 204.45C206.123 204.86 209.178 204.95 211.018 205.45V205.44Z" fill="#D5D7D9"/>
<path d="M159.753 221.4H174.831V239.35C169.966 242.16 165.181 241.32 159.753 241.34C159.753 241.01 159.753 240.68 159.753 240.34H170.308L172.821 238.84V223.38H159.753C159.773 222.72 159.723 222.05 159.753 221.39V221.4Z" fill="#D5D7D9"/>
<path d="M177.847 276.26C179.334 274.78 177.847 239.93 177.847 234.37H178.852L177.847 276.26Z" fill="#5C68A7"/>
<path d="M180.862 199.46C181.606 203.57 179.716 201.96 178.852 202.45C178.47 202.66 178.158 203.33 177.846 203.45C177.555 203.56 177.143 203.35 176.841 203.45C172.449 204.99 165.362 206.86 160.758 207.44C160.426 207.48 160.085 207.41 159.753 207.44L178.852 201.45C178.701 200.84 177.836 199.9 177.846 199.47C178.821 199.57 179.917 199.32 180.862 199.47V199.46Z" fill="#D5D7D9"/>
<path d="M177.847 276.26C175.937 279.9 170.278 277.74 166.79 278.25C166.87 277.61 166.699 276.91 166.79 276.26H177.857H177.847Z" fill="#FDFDFD"/>
<path d="M177.847 204.44L176.842 203.44C177.143 203.34 177.555 203.55 177.847 203.44V204.44Z" fill="#FDFDFD"/>
<path d="M184.884 314.16C182.29 307.42 184.421 299.77 184.884 293.21C184.753 300.17 185.075 307.2 184.884 314.16Z" fill="#5C68A7"/>
<path d="M211.018 349.07H191.919V350.07H211.018V349.07Z" fill="#1D1D1D"/>
<path d="M194.935 188.48C195.196 188.6 195.508 190.09 196.945 190.47V199.45C196.764 199.31 193.789 199.43 192.925 199.45C187.788 199.58 186.803 200.39 180.862 199.45C179.917 199.3 178.822 199.55 177.847 199.45C177.907 196.14 177.907 192.78 177.847 189.48C179.103 189.42 180.591 188.57 181.867 188.48C182.199 188.46 182.541 188.49 182.873 188.48C184.833 188.4 188.341 190.33 190.914 189.47L189.919 185.49C190.211 185.17 194.02 188.05 194.935 188.48Z" fill="#EAA97F"/>
<path d="M194.935 180.51C194.141 182 195.91 184 195.941 184.5C195.961 184.83 195.941 185.17 195.941 185.5C195.951 186.05 194.845 187.56 194.935 188.49C194.021 188.06 190.211 185.18 189.919 185.5L190.915 189.48C188.351 190.34 184.833 188.42 182.873 188.49L186.894 185.49L183.878 181.52L194.935 180.51Z" fill="#EAECEB"/>
<path d="M194.935 179.51V180.51L183.878 181.52L186.893 185.49L182.872 188.49C182.541 188.5 182.199 188.47 181.867 188.49V179.51L193.93 178.52L194.935 179.52V179.51Z" fill="#F8FAFB"/>
<path d="M198.955 185.49H207.007L207.992 180.51L210.013 190.47C208.344 190.47 206.655 190.51 204.987 190.48V189.48C205.982 189.54 207.007 189.45 207.992 189.48V186.5C204.152 186.9 201.619 186.49 197.95 185.5H198.955V185.49Z" fill="#D5D7D9"/>
<path d="M201.972 176.52C203.65 176.74 207.912 177.03 207.008 179.51L202.474 181.52L198.966 179.51C198.896 181.5 199.016 183.5 198.966 185.49H197.961C197.649 185.41 197.277 185.55 196.956 185.49C196.775 183.53 197.056 181.47 196.956 179.5H198.956C198.996 178.53 198.825 177.47 198.956 176.52C199.941 176.61 200.997 176.39 201.972 176.52Z" fill="#DEE3E4"/>
<path d="M196.945 185.49C197.036 186.47 196.855 187.5 196.945 188.48C199.689 187.44 203.258 189.37 204.997 189.48V190.48C203.479 190.45 197.347 190.58 196.955 190.48C195.518 190.1 195.206 188.61 194.945 188.49C194.854 187.56 195.96 186.04 195.95 185.5H196.955L196.945 185.49Z" fill="#DEE3E4"/>
<path d="M199.961 173.52C200.303 172.17 200.373 168.65 201.961 168.54L204.032 174C203.931 174.98 202.172 174.31 201.971 174.52L199.961 173.52Z" fill="#9EC8D3"/>
<path d="M201.821 158.69C204.957 163.57 196.403 160.42 198.966 157.57C199.066 157.46 201.74 158.57 201.821 158.69Z" fill="#F8FAFB"/>
<path d="M201.972 174.52C201.791 174.71 202.092 175.96 201.972 176.51C200.997 176.38 199.941 176.6 198.956 176.51C199.117 175.31 199.73 174.45 199.961 173.52L201.972 174.52Z" fill="#3A3A3A"/>
<path d="M195.94 184.49C195.91 183.99 194.141 181.99 194.935 180.5V179.5L195.94 184.49Z" fill="#DEE3E4"/>
<path d="M199.951 153.59C200.705 154.09 199.026 155.28 197.95 154.56C197.196 154.06 198.875 152.87 199.951 153.59Z" fill="#F8FAFB"/>
<path d="M197.448 172.53L197.951 173.02L197.448 173.52V172.53Z" fill="#F8FAFB"/>
<path d="M198.453 168.54L198.956 169.03L198.453 169.53V168.54Z" fill="#F8FAFB"/>
<path d="M171.815 147.59C172.268 147.57 173.574 146.18 173.816 146.59L171.805 159.56C166.407 157.44 172.439 163.07 173.826 164.54C173.987 164.71 175.263 164.4 175.826 164.54V166.53C173.012 167.55 174.017 164.6 173.826 164.54C167 162.4 168.689 169.36 164.789 170.52L171.815 147.59Z" fill="#F5F9F9"/>
<path d="M177.847 188.48C177.003 188.58 175.163 187.42 174.831 187.48C173.997 186.26 174.037 184.87 173.826 183.49L174.831 180.5C175.334 179.58 174.932 177.91 176.842 177.51C176.993 180.83 177.746 184.54 177.847 188.48Z" fill="#F5F9F9"/>
<path d="M177.847 188.48C177.847 188.81 177.847 189.15 177.847 189.48C173.504 189.7 169.242 191.12 164.789 190.47C167.955 190.2 172.077 188.01 174.831 187.49C175.163 187.43 177.002 188.59 177.847 188.49V188.48Z" fill="#D5D7D9"/>
<path d="M171.806 175.51H169.815V171.53L171.806 175.51Z" fill="#F5F9F9"/>
<path d="M167.785 176.52L165.814 175.03L166.8 172.53L167.785 176.52Z" fill="#F5F9F9"/>
<path d="M171.805 169.53C171.373 170 169.172 167.79 169.815 166.54C170.227 166.08 172.439 168.23 171.805 169.53Z" fill="#F5F9F9"/>
<path d="M172.821 176.52H170.82V178.5H172.821V176.52Z" fill="#F5F9F9"/>
<path d="M173.826 183.5C173.273 179.84 173.977 182.06 174.831 180.51L173.826 183.5Z" fill="#D5D7D9"/>
<path d="M167.292 178.51L167.795 179.01L167.292 179.51V178.51Z" fill="#F5F9F9"/>
<path d="M172.318 170.53L172.821 171.03L172.318 171.53V170.53Z" fill="#F5F9F9"/>
<path d="M181.515 133.79L188.944 134.08C192.271 143.48 185.285 135.71 181.385 139.62L181.515 133.79Z" fill="#EAA97F"/>
<path d="M192.924 199.46V200.46L191.929 229.39H178.852V202.45C179.726 201.96 181.616 203.57 180.872 199.46C186.813 200.4 187.798 199.59 192.934 199.46H192.924Z" fill="#5BC3B0"/>
<path d="M159.753 223.39H172.82V238.85L170.307 240.34H159.753C159.763 239.35 159.753 238.35 159.753 237.35C159.783 232.71 159.592 228.02 159.753 223.39Z" fill="#FDFDFD"/>
<path d="M31.0881 144.6C44.5879 151.64 40.7782 165.93 33.0583 175.99L38.2351 178.9L39.1297 183.49H1.9375L4.45049 177.51H24.0518C25.4088 172.36 18.9554 176.02 17.0154 171.53C17.1763 171.5 19.5787 170.7 20.031 170.53C30.6861 173.52 37.0791 166.81 34.8677 156.3C34.1741 153 30.3644 150.03 30.083 148.59C29.9221 147.78 30.9776 145.73 31.0881 144.6Z" fill="#7BB1C2"/>
<path d="M27.0675 148.59C23.8709 154.23 22.8255 154.15 17.9805 156.16C17.2266 156.47 16.7441 161.3 12.9947 157.04C11.9895 153.95 23.4789 137.36 26.2331 134.84C26.4945 134.6 28.3843 135.85 29.1281 135.23L30.1031 131.63L34.2043 133.28C34.8979 135.47 31.3395 140.42 31.0983 141.61L24.4942 141.54C22.8255 143.74 24.655 147.82 27.0775 148.59H27.0675Z" fill="#7BB1C2"/>
<path d="M17.0159 171.53C16.1112 171.7 11.3164 171.68 11.045 171.46L9.97949 165.56L24.0422 166.56C24.7559 169.95 21.9011 167.8 20.2526 168.8C19.7701 169.09 20.1119 170.51 20.0214 170.54C19.5691 170.7 17.1666 171.51 17.0058 171.54L17.0159 171.53Z" fill="#72A8B3"/>
<path d="M31.0877 141.61C30.9068 142.46 31.1782 143.64 31.0877 144.6C30.9772 145.73 29.9217 147.78 30.0825 148.59C29.1779 148.43 27.8007 148.82 27.0669 148.59C24.6444 147.82 22.815 143.74 24.4836 141.54L31.0877 141.61Z" fill="#5C68A7"/>
</svg>
