<svg width="40" height="30" viewBox="0 0 40 30" fill="none" xmlns="http://www.w3.org/2000/svg">
<g clip-path="url(#clip0_563_130)">
<path d="M12.9205 0.135727C14.3251 0.0379915 15.8309 0.243389 17.1862 0.633477C20.6344 1.62603 23.8034 4.18823 25.5965 7.53451C25.925 7.35205 26.2959 7.23253 26.6508 7.12651C26.8293 7.07355 27.009 7.02551 27.1898 6.98239C27.3705 6.93931 27.5522 6.90123 27.7347 6.86815C27.9173 6.83507 28.1005 6.80701 28.2844 6.78397C28.4682 6.76097 28.6526 6.74303 28.8373 6.73015C29.022 6.71731 29.2069 6.70953 29.392 6.70681C29.5771 6.70413 29.7621 6.70653 29.9471 6.71401C30.132 6.72149 30.3167 6.73407 30.5011 6.75175C30.6855 6.76939 30.8694 6.79209 31.0527 6.81985C31.1369 6.83349 31.221 6.84825 31.3049 6.86413C31.3888 6.88001 31.4725 6.89699 31.556 6.91507C31.6395 6.93315 31.7228 6.95233 31.8059 6.97261C31.889 6.99289 31.9719 7.01425 32.0545 7.03669C32.1371 7.05917 32.2194 7.08273 32.3015 7.10737C32.3835 7.13201 32.4653 7.15773 32.5469 7.18453C32.6283 7.21133 32.7095 7.23921 32.7903 7.26817C32.8712 7.29709 32.9518 7.32709 33.032 7.35817C33.1121 7.38921 33.192 7.42133 33.2715 7.45453C33.3509 7.48769 33.43 7.52191 33.5087 7.55719C33.5874 7.59243 33.6656 7.62873 33.7435 7.66609C33.8214 7.70341 33.8988 7.74175 33.9758 7.78111C34.0528 7.82047 34.1294 7.86085 34.2055 7.90225C34.2816 7.94365 34.3572 7.98605 34.4323 8.02945C34.5075 8.07285 34.5821 8.11723 34.6563 8.16259C34.7304 8.20795 34.804 8.25427 34.8771 8.30155C34.9502 8.34887 35.0227 8.39713 35.0948 8.44633C35.1668 8.49557 35.2382 8.54573 35.3091 8.59681C35.3799 8.64793 35.4502 8.69997 35.5199 8.75293C35.5896 8.80589 35.6587 8.85977 35.7272 8.91457C35.7957 8.96933 35.8636 9.02501 35.9308 9.08161C35.998 9.13817 36.0646 9.19561 36.1305 9.25393C36.1964 9.31229 36.2617 9.37149 36.3263 9.43153C36.3909 9.49157 36.4548 9.55247 36.5181 9.61423C36.5813 9.67599 36.6438 9.73855 36.7056 9.80191C36.7674 9.86531 36.8285 9.92951 36.8888 9.99451C36.9492 10.0595 37.0088 10.1253 37.0677 10.1919C37.1266 10.2585 37.1847 10.3258 37.242 10.3939C37.2994 10.462 37.356 10.5309 37.4118 10.6005C37.4676 10.6701 37.5226 10.7405 37.5768 10.8115C37.631 10.8826 37.6844 10.9544 37.737 11.0268C37.7896 11.0993 37.8414 11.1724 37.8924 11.2463C37.9434 11.3204 37.9936 11.3951 38.0429 11.4705C38.0923 11.5459 38.1408 11.6219 38.1885 11.6986C38.2361 11.7753 38.2828 11.8526 38.3287 11.9305C38.3746 12.0085 38.4196 12.087 38.4637 12.1661C38.5078 12.2452 38.551 12.3249 38.5933 12.4052C38.6356 12.4855 38.6769 12.5663 38.7174 12.6476C38.7578 12.729 38.7974 12.8108 38.836 12.8933C38.8746 12.9757 38.9123 13.0586 38.9491 13.142C38.9858 13.2254 39.0216 13.3093 39.0564 13.3936C39.0912 13.478 39.1251 13.5628 39.158 13.648C39.1909 13.7333 39.2229 13.8189 39.2539 13.9051C39.2848 13.9911 39.3148 14.0776 39.3438 14.1645C39.3728 14.2514 39.4009 14.3387 39.4279 14.4263C39.4549 14.5139 39.481 14.6019 39.5061 14.6903C39.5311 14.7786 39.5551 14.8672 39.5782 14.9562C39.6012 15.0452 39.6233 15.1344 39.6443 15.2239C39.6653 15.3135 39.6853 15.4033 39.7043 15.4934C39.7233 15.5835 39.7412 15.6738 39.7582 15.7644C39.7751 15.8549 39.791 15.9456 39.8059 16.0366C39.8208 16.1276 39.8346 16.2187 39.8474 16.3101C39.8603 16.4014 39.872 16.4929 39.8828 16.5845C39.8935 16.6762 39.9032 16.768 39.9119 16.8599C39.9206 16.9518 39.9282 17.0438 39.9348 17.136C39.9414 17.2281 39.9469 17.3202 39.9514 17.4125C39.9559 17.5048 39.9594 17.5971 39.9618 17.6894C39.9642 17.7817 39.9655 17.8741 39.9659 17.9665C39.9662 18.0589 39.9654 18.1513 39.9636 18.2437C39.9619 18.336 39.9591 18.4284 39.9552 18.5206C39.9513 18.6129 39.9464 18.7051 39.9405 18.7973C39.9345 18.8895 39.9275 18.9815 39.9195 19.0735C39.9114 19.1655 39.9023 19.2573 39.8922 19.3491C39.8821 19.4408 39.8709 19.5324 39.8587 19.6238C39.8216 19.9073 39.775 20.189 39.7189 20.4688C39.6629 20.7487 39.5976 21.0259 39.5229 21.3007C39.4483 21.5753 39.3646 21.8468 39.2718 22.1149C39.179 22.3831 39.0773 22.6473 38.9668 22.9074C38.8964 23.0758 38.7962 23.3677 38.6612 23.4766C38.6642 23.4808 38.6673 23.4848 38.6701 23.489C38.8808 23.8097 39.0648 24.7777 39.1779 25.1827C39.3214 25.6967 39.505 26.2241 39.6028 26.7495C39.634 26.917 39.6514 27.0937 39.626 27.2635C39.5689 27.6442 39.3445 28.0032 39.0536 28.2218C38.8719 28.3583 38.6864 28.4204 38.4661 28.4314C37.9908 28.4553 37.4713 28.2953 37.006 28.1982L35.0916 27.8008C34.9506 28.0099 33.864 28.5676 33.6279 28.6856C33.5479 28.7261 33.4675 28.7655 33.3866 28.8039C33.3058 28.8422 33.2245 28.8794 33.1427 28.9156C33.061 28.9517 32.9789 28.9867 32.8964 29.0207C32.8138 29.0546 32.7309 29.0874 32.6476 29.1191C32.5643 29.1508 32.4807 29.1814 32.3967 29.2108C32.3127 29.2403 32.2284 29.2686 32.1437 29.2957C32.0591 29.3229 31.9741 29.3489 31.8889 29.3738C31.8036 29.3987 31.7181 29.4224 31.6323 29.445C31.5465 29.4676 31.4605 29.489 31.3742 29.5092C31.2879 29.5295 31.2014 29.5485 31.1147 29.5664C31.028 29.5844 30.941 29.6012 30.8539 29.6167C30.7668 29.6323 30.6795 29.6467 30.5921 29.6599C30.5046 29.6732 30.4171 29.6852 30.3293 29.6961C30.2416 29.7069 30.1538 29.7166 30.0658 29.7252C29.9779 29.7336 29.8898 29.7409 29.8017 29.747C29.7136 29.7532 29.6255 29.7581 29.5372 29.7619C29.449 29.7656 29.3608 29.7682 29.2725 29.7696C29.1842 29.7709 29.0959 29.7711 29.0076 29.7701C28.9193 29.7691 28.831 29.7669 28.7428 29.7635C28.6546 29.7601 28.5664 29.7555 28.4782 29.7498C28.3901 29.744 28.302 29.737 28.214 29.7289C28.1261 29.7207 28.0382 29.7114 27.9505 29.7009C27.8627 29.6904 27.7751 29.6788 27.6876 29.6659C27.6001 29.653 27.5128 29.6389 27.4256 29.6237C27.3384 29.6085 27.2515 29.5921 27.1647 29.5746C27.0779 29.5569 26.9913 29.5382 26.905 29.5183C26.8186 29.4984 26.7325 29.4773 26.6466 29.4551C26.5607 29.4329 26.4751 29.4095 26.3898 29.385C26.3045 29.3605 26.2194 29.3348 26.1347 29.308C26.0499 29.2811 25.9655 29.2532 25.8814 29.2241C25.7973 29.195 25.7136 29.1648 25.6302 29.1334C25.5468 29.1021 25.4638 29.0696 25.3811 29.036C24.2649 28.5709 23.1751 27.8958 22.2805 27.0307C20.7335 28.2467 19.0183 29.1367 17.1503 29.6046C17.0588 29.627 16.9671 29.6483 16.8752 29.6686C16.7833 29.689 16.6913 29.7082 16.599 29.7265C16.5067 29.7448 16.4143 29.7621 16.3217 29.7784C16.2291 29.7946 16.1364 29.8098 16.0435 29.824C15.9507 29.8382 15.8577 29.8514 15.7645 29.8636C15.6714 29.8757 15.5782 29.8869 15.4849 29.8969C15.3915 29.907 15.2981 29.9161 15.2046 29.9241C15.1111 29.9321 15.0175 29.9391 14.9239 29.9451C14.8302 29.951 14.7365 29.9559 14.6428 29.9599C14.5491 29.9637 14.4553 29.9666 14.3615 29.9684C14.2677 29.9702 14.1739 29.971 14.0802 29.9707C13.9864 29.9705 13.8926 29.9692 13.7988 29.9669C13.705 29.9646 13.6113 29.9612 13.5176 29.9568C13.4239 29.9524 13.3302 29.947 13.2366 29.9405C13.143 29.9341 13.0495 29.9266 12.956 29.918C12.8625 29.9095 12.7692 29.9 12.6759 29.8894C12.5826 29.8788 12.4894 29.8672 12.3963 29.8545C12.3033 29.8419 12.2103 29.8282 12.1175 29.8135C12.0247 29.7988 11.932 29.7831 11.8395 29.7663C11.747 29.7496 11.6547 29.7318 11.5625 29.713C11.4703 29.6942 11.3783 29.6744 11.2865 29.6536C11.1947 29.6328 11.1031 29.611 11.0118 29.5881C10.9204 29.5653 10.8292 29.5414 10.7382 29.5165C10.6473 29.4917 10.5566 29.4658 10.4662 29.439C10.3757 29.4121 10.2855 29.3843 10.1956 29.3554C10.1056 29.3266 10.016 29.2967 9.92665 29.2659C9.83729 29.2351 9.74823 29.2032 9.65947 29.1705C9.5707 29.1376 9.48225 29.1039 9.39411 29.0691C9.30598 29.0344 9.21819 28.9987 9.13076 28.962C9.04332 28.9253 8.95622 28.8876 8.86945 28.849C8.78272 28.8104 8.69636 28.7708 8.61037 28.7303C8.52438 28.6898 8.43878 28.6483 8.35356 28.6059C7.59867 28.2306 6.90097 27.7737 6.19761 27.2986C5.32416 27.4937 4.4491 27.6799 3.57242 27.8572C3.05318 27.9665 2.52011 28.1146 1.99387 28.1696C1.80066 28.1898 1.59559 28.2008 1.40859 28.137C1.38814 28.13 1.36785 28.1224 1.34773 28.1143C1.32762 28.1063 1.3077 28.0976 1.28797 28.0885C1.26824 28.0793 1.24873 28.0696 1.22945 28.0594C1.21016 28.0493 1.19111 28.0386 1.17231 28.0274C1.15351 28.0162 1.13497 28.0045 1.11669 27.9923C1.09841 27.9801 1.08042 27.9675 1.06272 27.9544C1.04502 27.9413 1.02762 27.9277 1.01053 27.9136C0.993442 27.8996 0.976682 27.8851 0.960249 27.8701C0.943817 27.8552 0.927729 27.8399 0.911988 27.8241C0.896251 27.8083 0.88088 27.7921 0.865875 27.7755C0.85087 27.7589 0.836249 27.7419 0.822014 27.7245C0.807778 27.7072 0.793942 27.6894 0.780505 27.6713C0.767072 27.6532 0.754056 27.6347 0.741459 27.616C0.728858 27.5972 0.716692 27.5781 0.70496 27.5586C0.693224 27.5392 0.681936 27.5194 0.671096 27.4994C0.660255 27.4793 0.649873 27.459 0.63995 27.4384C0.513069 27.1741 0.490109 26.8922 0.523489 26.5997C0.558347 26.2942 0.658535 26.0029 0.742557 25.7104L1.03554 24.681C1.19072 24.1358 1.35332 23.5926 1.50216 23.0453C1.59897 22.6894 1.68112 22.3288 1.78475 21.9751C1.59853 21.6924 1.45593 21.3362 1.32141 21.0194C1.23632 20.8185 1.15557 20.6155 1.07914 20.4106C1.00271 20.2057 0.930694 19.9989 0.863084 19.7903C0.795475 19.5818 0.732346 19.3717 0.673698 19.16C0.61505 18.9483 0.560946 18.7353 0.511386 18.5209C0.461826 18.3065 0.416862 18.091 0.376495 17.8743C0.336128 17.6577 0.3004 17.4402 0.269311 17.2218C0.238223 17.0033 0.211806 16.7843 0.190063 16.5645C0.168319 16.3448 0.15127 16.1246 0.138918 15.904C-0.0935385 11.9276 1.00098 8.04823 3.45473 5.04318C5.92416 2.01893 9.21281 0.381257 12.9205 0.135727ZM3.61973 25.0144C4.08535 24.9044 4.55216 24.8004 5.02014 24.7027C5.54219 24.5896 6.14863 24.3829 6.67895 24.4497C6.9084 24.4786 7.11489 24.5931 7.30729 24.7256C7.62463 24.9442 7.91622 25.2076 8.2405 25.414C8.4073 25.5211 8.57646 25.6237 8.74796 25.7218C8.9195 25.8198 9.09316 25.9132 9.26895 26.0019C9.44475 26.0906 9.62246 26.1746 9.8021 26.2538C9.98174 26.333 10.1631 26.4073 10.3462 26.4767C10.5292 26.5462 10.7137 26.6107 10.8997 26.6702C11.0858 26.7298 11.2731 26.7843 11.4616 26.8338C11.6501 26.8833 11.8396 26.9277 12.0302 26.9671C12.2207 27.0064 12.412 27.0406 12.6041 27.0697C12.8367 27.1031 13.0744 27.1444 13.3089 27.1529C13.4346 27.1631 13.5604 27.171 13.6863 27.1765C13.8122 27.182 13.9382 27.1852 14.0642 27.1861C14.1903 27.187 14.3163 27.1855 14.4423 27.1817C14.5682 27.1779 14.6941 27.1718 14.8199 27.1633C14.9457 27.1548 15.0713 27.144 15.1968 27.1309C15.3222 27.1178 15.4474 27.1023 15.5724 27.0845C15.6973 27.0668 15.822 27.0467 15.9463 27.0243C16.0706 27.0019 16.1945 26.9772 16.3181 26.9503C16.4416 26.9233 16.5647 26.894 16.6873 26.8624C16.8099 26.8309 16.932 26.7971 17.0535 26.761C17.175 26.725 17.296 26.6866 17.4163 26.6461C17.5366 26.6055 17.6563 26.5627 17.7752 26.5177C17.8942 26.4727 18.0124 26.4256 18.1299 26.3762C18.2474 26.3268 18.3641 26.2752 18.4799 26.2216C18.5958 26.1679 18.7107 26.112 18.8248 26.0541C18.9388 25.9961 19.052 25.936 19.1641 25.8739C19.6401 25.6097 20.1088 25.3135 20.5313 24.957C20.1868 24.3652 19.8548 23.7771 19.5859 23.1394C18.6054 20.8145 18.4376 18.205 18.956 15.7263C19.3781 13.7081 20.3956 11.7659 21.7337 10.2922C22.2271 9.74887 22.7706 9.27169 23.3344 8.81767C22.9399 8.21707 22.562 7.61455 22.1095 7.06105C22.0552 6.99501 22.0002 6.92961 21.9445 6.86485C21.8889 6.80009 21.8326 6.73597 21.7757 6.67249C21.7188 6.60905 21.6612 6.54627 21.603 6.48415C21.5448 6.42199 21.4861 6.36053 21.4267 6.29977C21.3673 6.23901 21.3073 6.17893 21.2468 6.11953C21.1862 6.06017 21.1251 6.00151 21.0633 5.94354C21.0016 5.88557 20.9393 5.82832 20.8764 5.7718C20.8136 5.71528 20.7502 5.65949 20.6862 5.60443C20.6222 5.54937 20.5577 5.49507 20.4927 5.44151C20.4277 5.38794 20.3621 5.33514 20.296 5.28309C20.2299 5.23105 20.1633 5.17977 20.0962 5.12927C20.0291 5.07876 19.9615 5.02904 19.8935 4.9801C19.8254 4.93116 19.7568 4.88301 19.6878 4.83566C19.6187 4.78831 19.5492 4.74176 19.4793 4.69601C19.4093 4.65027 19.3389 4.60534 19.2681 4.56122C19.1972 4.51711 19.126 4.47381 19.0543 4.43135C18.9826 4.38889 18.9105 4.34726 18.8379 4.30646C18.7654 4.26566 18.6925 4.22571 18.6192 4.1866C18.5459 4.14749 18.4722 4.10924 18.3981 4.07183C18.324 4.03443 18.2496 3.99788 18.1748 3.96221C18.1 3.92653 18.0249 3.89171 17.9494 3.85777C17.8739 3.82383 17.7981 3.79077 17.722 3.75858C17.6458 3.72639 17.5694 3.69509 17.4926 3.66467C17.4159 3.63426 17.3388 3.60473 17.2614 3.57609C17.1841 3.54746 17.1065 3.51973 17.0287 3.49289C16.9508 3.46605 16.8726 3.44012 16.7942 3.41508C16.7158 3.39006 16.6371 3.36594 16.5583 3.34273C16.4794 3.31952 16.4003 3.29722 16.321 3.27585C16.2416 3.25447 16.1621 3.23401 16.0824 3.21447C16.0027 3.19493 15.9228 3.17632 15.8427 3.15863C15.7626 3.14094 15.6823 3.12418 15.6019 3.10835C15.5215 3.09252 15.4409 3.07763 15.3602 3.06366C14.6556 2.93483 13.8875 2.84382 13.1747 2.90494C13.0846 2.90829 12.9945 2.91285 12.9045 2.91861C12.8145 2.92438 12.7245 2.93135 12.6347 2.93953C12.5448 2.94771 12.455 2.95709 12.3654 2.96768C12.2757 2.97826 12.1862 2.99005 12.0968 3.00304C12.0074 3.01603 11.9182 3.03021 11.8291 3.04559C11.7401 3.06098 11.6512 3.07755 11.5625 3.09531C11.4738 3.11308 11.3854 3.13203 11.2971 3.15217C11.2089 3.17231 11.1209 3.19363 11.0331 3.21613C10.9453 3.23863 10.8579 3.2623 10.7706 3.28715C10.6834 3.31199 10.5965 3.33801 10.5099 3.36518C10.4233 3.39236 10.337 3.42069 10.251 3.45019C10.165 3.47968 10.0794 3.51032 9.99417 3.54211C9.90892 3.5739 9.82403 3.60683 9.73952 3.64089C9.65501 3.67496 9.57089 3.71016 9.48715 3.74648C9.40345 3.7828 9.32018 3.82024 9.23733 3.8588C9.15448 3.89735 9.0721 3.93701 8.99018 3.97778C8.90825 4.01855 8.82679 4.0604 8.74579 4.10336C8.66483 4.14631 8.58437 4.19034 8.50441 4.23545C8.42444 4.28056 8.345 4.32674 8.26607 4.37398C8.18718 4.42122 8.10883 4.46951 8.03101 4.51886C7.95319 4.5682 7.87597 4.61858 7.79933 4.67C7.7227 4.72141 7.64666 4.77385 7.57121 4.8273C7.49575 4.88075 7.42093 4.93521 7.34674 4.99068C7.27255 5.04614 7.199 5.10259 7.1261 5.16002C7.0532 5.21746 6.98097 5.27586 6.9094 5.33523C6.83784 5.39461 6.76695 5.45493 6.69675 5.5162C6.62659 5.57748 6.55713 5.63968 6.48838 5.70282C6.41962 5.76595 6.3516 5.83 6.28433 5.89497C6.21705 5.95993 6.15051 6.02578 6.08472 6.09253C6.01896 6.15929 5.95395 6.22691 5.88971 6.29539C5.8255 6.36387 5.76207 6.43321 5.69942 6.50341C5.6368 6.57361 5.57499 6.64463 5.51398 6.71647C3.61015 8.92945 2.55081 12.0929 2.65871 15.109C2.66376 15.2844 2.6722 15.4597 2.68402 15.6347C2.69585 15.8097 2.71105 15.9844 2.72963 16.1587C2.7482 16.3331 2.77014 16.5069 2.79544 16.6803C2.82073 16.8536 2.84936 17.0263 2.88133 17.1984C2.9133 17.3704 2.94858 17.5417 2.98716 17.7121C3.02575 17.8826 3.06762 18.0521 3.11276 18.2207C3.1579 18.3892 3.20627 18.5567 3.25788 18.7231C3.30949 18.8895 3.3643 19.0546 3.42229 19.2185C3.54259 19.5569 3.68016 19.8868 3.83502 20.2083C4.06329 20.6923 4.43111 21.2235 4.44648 21.7812C4.46038 22.2853 4.08809 23.3611 3.94229 23.8796C3.83651 24.2558 3.746 24.6466 3.61973 25.0144ZM30.4147 26.8672C31.4355 26.707 32.4722 26.2842 33.3491 25.6996C33.7105 25.4587 34.0868 25.1068 34.4957 24.9774C34.6166 24.9391 34.7462 24.9337 34.8713 24.9409C35.1309 24.956 36.2704 25.1354 36.4689 25.2694C36.472 25.2715 36.4746 25.2741 36.4774 25.2764C36.5456 25.0021 35.973 23.741 36.044 23.1157C36.0907 22.7043 36.3645 22.315 36.537 21.9547C36.6368 21.746 36.7219 21.5247 36.8011 21.3061C37.6795 18.8789 37.549 16.019 36.3402 13.7485C35.256 11.7119 33.5063 10.3433 31.4184 9.74233C30.5925 9.50461 29.7131 9.47413 28.8631 9.51739C28.5146 9.55609 28.1688 9.59449 27.826 9.67561C27.711 9.70365 27.5966 9.73425 27.4827 9.76741C27.3689 9.80061 27.2558 9.83633 27.1433 9.87457C27.0308 9.91281 26.9191 9.95355 26.8082 9.99679C26.6973 10.0401 26.5873 10.0858 26.4782 10.1339C26.369 10.1821 26.2609 10.2328 26.1536 10.2858C26.0464 10.3388 25.9403 10.3942 25.8352 10.452C25.7301 10.5098 25.6262 10.5699 25.5234 10.6324C25.4206 10.6949 25.3191 10.7596 25.2188 10.8266C25.1185 10.8936 25.0195 10.9628 24.9218 11.0342C24.8242 11.1057 24.7279 11.1793 24.6331 11.255C24.5383 11.3308 24.4449 11.4087 24.3531 11.4886C24.2612 11.5685 24.171 11.6505 24.0822 11.7345C23.9935 11.8185 23.9065 11.9044 23.8211 11.9923C23.7357 12.0802 23.652 12.17 23.57 12.2616C23.488 12.3532 23.4078 12.4467 23.3295 12.5419C23.251 12.6372 23.1745 12.7341 23.0998 12.8328C23.0572 12.8899 23.0152 12.9476 22.9739 13.0058C22.9325 13.0641 22.8919 13.1229 22.8519 13.1822C22.8119 13.2415 22.7725 13.3013 22.7339 13.3616C22.6952 13.422 22.6573 13.4829 22.6201 13.5442C22.5828 13.6056 22.5462 13.6675 22.5103 13.7298C22.4745 13.7921 22.4393 13.8549 22.4049 13.9182C22.3704 13.9814 22.3367 14.0451 22.3037 14.1093C22.2707 14.1735 22.2385 14.2381 22.207 14.3031C22.1754 14.3681 22.1446 14.4335 22.1145 14.4994C22.0845 14.5652 22.0552 14.6314 22.0267 14.698C21.9981 14.7646 21.9703 14.8316 21.9433 14.899C21.9162 14.9663 21.89 15.034 21.8645 15.102C21.839 15.17 21.8142 15.2384 21.7903 15.3071C21.7663 15.3758 21.7432 15.4448 21.7208 15.5141C21.6984 15.5835 21.6768 15.6531 21.656 15.7229C21.6352 15.7928 21.6152 15.863 21.596 15.9334C21.5767 16.0038 21.5583 16.0744 21.5407 16.1453C21.5231 16.2163 21.5063 16.2874 21.4903 16.3587C21.4743 16.4301 21.4591 16.5016 21.4447 16.5734C21.4303 16.6451 21.4167 16.717 21.404 16.7892C21.3913 16.8613 21.3793 16.9336 21.3682 17.006C21.3571 17.0784 21.3468 17.1509 21.3373 17.2237C21.3279 17.2963 21.3192 17.3692 21.3114 17.4421C21.3036 17.515 21.2966 17.5881 21.2904 17.6612C21.2842 17.7343 21.2789 17.8075 21.2744 17.8807C21.2699 17.954 21.2662 18.0273 21.2633 18.1006C21.2605 18.174 21.2585 18.2474 21.2573 18.3208C21.2561 18.3942 21.2557 18.4676 21.2562 18.541C21.2567 18.6144 21.258 18.6878 21.2602 18.7612C21.2623 18.8346 21.2653 18.9079 21.2691 18.9813C21.2729 19.0546 21.2775 19.1278 21.283 19.201C21.2885 19.2742 21.2947 19.3473 21.3019 19.4203C21.3085 19.4893 21.3159 19.5583 21.3241 19.6271C21.3322 19.6959 21.3412 19.7647 21.351 19.8333C21.3607 19.9018 21.3713 19.9703 21.3826 20.0386C21.3939 20.107 21.406 20.1751 21.4189 20.2431C21.4318 20.3111 21.4454 20.3789 21.4598 20.4466C21.4743 20.5142 21.4895 20.5817 21.5054 20.6489C21.5214 20.7161 21.5381 20.7831 21.5556 20.8499C21.5731 20.9166 21.5913 20.9832 21.6103 21.0495C21.6294 21.1158 21.6491 21.1818 21.6697 21.2476C21.6902 21.3133 21.7114 21.3788 21.7334 21.444C21.7555 21.5092 21.7782 21.5741 21.8017 21.6387C21.8252 21.7033 21.8495 21.7676 21.8744 21.8315C21.8994 21.8955 21.9251 21.959 21.9515 22.0223C21.9779 22.0855 22.005 22.1484 22.0329 22.211C22.0607 22.2735 22.0893 22.3357 22.1185 22.3974C22.1478 22.4592 22.1778 22.5206 22.2085 22.5816C22.2391 22.6425 22.2705 22.703 22.3025 22.7632C22.3346 22.8233 22.3673 22.883 22.4007 22.9423C22.4341 23.0015 22.4682 23.0603 22.503 23.1187C22.5378 23.177 22.5732 23.2348 22.6092 23.2923C22.6453 23.3497 22.6821 23.4066 22.7194 23.463C22.7568 23.5194 22.7948 23.5753 22.8335 23.6307C22.8721 23.6861 22.9114 23.741 22.9513 23.7953C22.9912 23.8497 23.0318 23.9035 23.0729 23.9568C23.114 24.0101 23.1558 24.0628 23.1981 24.1149C23.2404 24.1671 23.2834 24.2186 23.3269 24.2696C23.3704 24.3207 23.4145 24.3711 23.4592 24.4209C23.5038 24.4708 23.5491 24.52 23.5949 24.5686C23.6406 24.6172 23.687 24.6652 23.7339 24.7126C23.7808 24.76 23.8282 24.8067 23.8761 24.8528C23.9241 24.899 23.9726 24.9445 24.0215 24.9893C24.0706 25.0341 24.1201 25.0783 24.1701 25.1218C25.7554 26.5095 27.9358 27.1898 29.964 26.9523C30.1092 26.9353 30.276 26.9169 30.4147 26.8672Z" fill="white"/>
<path d="M12.7639 6.45221C14.0991 6.40007 15.4092 6.59753 16.5878 7.32137C17.5259 7.89749 18.2199 8.78063 18.5067 9.91403C19.0516 12.0673 18.0971 13.6816 16.5492 14.9576C16.0647 15.3571 15.472 15.6971 15.0641 16.1913C14.7371 16.5874 14.649 17.1133 14.4085 17.5628C14.2178 17.9192 13.9353 18.169 13.5655 18.2748C13.1135 18.4042 12.5666 18.3641 12.1602 18.1051C11.7966 17.8733 11.5358 17.4584 11.4322 17.0189C11.271 16.3349 11.4543 15.6031 11.7793 15.0098C12.3477 13.8489 13.7531 13.2371 14.5132 12.2236C14.7968 11.8456 14.9523 11.4174 14.9012 10.9264C14.8656 10.584 14.7247 10.2312 14.4692 10.0157C14.0702 9.67931 13.4839 9.60239 12.992 9.66665C11.7044 9.83477 11.7263 11.0192 11.073 11.905C10.8137 12.2566 10.4688 12.4699 10.0544 12.5166C9.55568 12.5728 9.03968 12.4888 8.64356 12.133C8.32806 11.8496 8.16079 11.4601 8.12501 11.0225C8.04567 10.0532 8.45865 9.12401 9.02559 8.39837C9.9523 7.21223 11.3572 6.58049 12.7639 6.45221Z" fill="white"/>
<path d="M12.8634 19.0666C12.8959 19.0627 12.9285 19.0597 12.9611 19.0576C12.9937 19.0555 13.0264 19.0542 13.0591 19.0538C13.0918 19.0534 13.1245 19.0539 13.1572 19.0553C13.1899 19.0566 13.2225 19.0588 13.2551 19.0619C13.2876 19.065 13.3201 19.069 13.3525 19.0738C13.3849 19.0786 13.4172 19.0843 13.4493 19.0909C13.4815 19.0974 13.5134 19.1048 13.5452 19.1131C13.5771 19.1213 13.6087 19.1304 13.6401 19.1404C13.6714 19.1503 13.7026 19.161 13.7335 19.1726C13.7644 19.1842 13.795 19.1967 13.8253 19.2099C13.8556 19.2231 13.8856 19.2372 13.9153 19.252C13.945 19.2668 13.9743 19.2824 14.0033 19.2988C14.0323 19.3152 14.0609 19.3324 14.0891 19.3503C14.1173 19.3682 14.145 19.3869 14.1724 19.4063C14.1997 19.4257 14.2266 19.4459 14.253 19.4667C14.2795 19.4875 14.3054 19.509 14.3309 19.5313C14.3563 19.5535 14.3813 19.5764 14.4057 19.5999C14.43 19.6235 14.4539 19.6477 14.4772 19.6725C14.5005 19.6973 14.5232 19.7227 14.5454 19.7488C14.5675 19.7748 14.589 19.8014 14.6099 19.8286C14.6309 19.8558 14.6512 19.8835 14.6709 19.9118C14.6905 19.9401 14.7095 19.9688 14.7279 19.9981C14.7462 20.0274 14.7639 20.0572 14.7809 20.0874C14.7979 20.1176 14.8142 20.1482 14.8297 20.1793C14.8453 20.2104 14.8602 20.2419 14.8744 20.2738C14.8886 20.3057 14.902 20.3379 14.9147 20.3705C14.9274 20.4031 14.9393 20.4361 14.9505 20.4693C14.9617 20.5025 14.9721 20.5361 14.9818 20.5699C14.9914 20.6037 15.0003 20.6377 15.0084 20.672C15.0165 20.7063 15.0239 20.7407 15.0304 20.7754C15.037 20.81 15.0427 20.8449 15.0477 20.8798C15.0526 20.9148 15.0567 20.9499 15.0601 20.9851C15.0635 21.0203 15.066 21.0555 15.0677 21.0908C15.0695 21.1262 15.0704 21.1615 15.0705 21.1969C15.0707 21.2323 15.07 21.2676 15.0685 21.3029C15.067 21.3383 15.0647 21.3736 15.0616 21.4088C15.0586 21.444 15.0547 21.4791 15.05 21.5141C15.0453 21.5491 15.0398 21.584 15.0336 21.6187C15.0273 21.6534 15.0202 21.688 15.0123 21.7223C15.0045 21.7567 14.9959 21.7908 14.9865 21.8246C14.977 21.8585 14.9668 21.8921 14.9559 21.9255C14.945 21.9588 14.9333 21.9918 14.9208 22.0246C14.9084 22.0573 14.8952 22.0896 14.8813 22.1216C14.8674 22.1536 14.8527 22.1853 14.8373 22.2165C14.822 22.2477 14.8059 22.2785 14.7891 22.3089C14.7724 22.3393 14.7549 22.3692 14.7368 22.3986C14.7187 22.428 14.6999 22.457 14.6804 22.4854C14.661 22.5139 14.6409 22.5418 14.6201 22.5691C14.5994 22.5965 14.5781 22.6233 14.5562 22.6495C14.5342 22.6758 14.5117 22.7014 14.4885 22.7264C14.4655 22.7514 14.4418 22.7758 14.4175 22.7996C14.3933 22.8234 14.3686 22.8465 14.3433 22.8689C14.318 22.8914 14.2922 22.9131 14.266 22.9342C14.2397 22.9552 14.213 22.9756 14.1857 22.9952C14.1586 23.0149 14.1309 23.0338 14.1029 23.0519C14.0748 23.0701 14.0464 23.0876 14.0175 23.1042C13.9886 23.1208 13.9594 23.1367 13.9298 23.1518C13.9003 23.1669 13.8704 23.1812 13.8401 23.1947C13.8099 23.2082 13.7794 23.2209 13.7486 23.2327C13.7178 23.2446 13.6867 23.2556 13.6554 23.2658C13.6241 23.2761 13.5926 23.2855 13.5608 23.294C13.5291 23.3025 13.4971 23.3102 13.4651 23.317C13.433 23.3238 13.4007 23.3298 13.3684 23.3349C13.336 23.34 13.3036 23.3443 13.271 23.3476C13.2388 23.351 13.2064 23.3535 13.174 23.3551C13.1417 23.3568 13.1093 23.3575 13.0769 23.3575C13.0445 23.3574 13.0121 23.3564 12.9797 23.3546C12.9473 23.3528 12.915 23.3502 12.8828 23.3467C12.8505 23.3432 12.8184 23.3389 12.7863 23.3337C12.7543 23.3285 12.7224 23.3225 12.6906 23.3156C12.6588 23.3087 12.6272 23.301 12.5958 23.2924C12.5644 23.2839 12.5331 23.2745 12.5021 23.2643C12.4711 23.2541 12.4403 23.2431 12.4098 23.2312C12.3793 23.2194 12.3491 23.2067 12.3192 23.1933C12.2892 23.1799 12.2596 23.1657 12.2303 23.1507C12.201 23.1357 12.1721 23.1199 12.1435 23.1034C12.1149 23.0869 12.0867 23.0696 12.0589 23.0516C12.0311 23.0336 12.0037 23.0148 11.9768 22.9954C11.9498 22.9759 11.9233 22.9558 11.8973 22.9349C11.8712 22.914 11.8456 22.8925 11.8205 22.8703C11.7955 22.8481 11.771 22.8252 11.7469 22.8017C11.7229 22.7782 11.6994 22.754 11.6764 22.7293C11.6535 22.7045 11.6311 22.6792 11.6093 22.6532C11.5875 22.6273 11.5663 22.6008 11.5456 22.5737C11.525 22.5467 11.5051 22.5191 11.4857 22.4909C11.4663 22.4629 11.4476 22.4343 11.4296 22.4051C11.4115 22.376 11.3941 22.3465 11.3774 22.3165C11.3606 22.2864 11.3446 22.256 11.3292 22.2251C11.3139 22.1942 11.2992 22.1629 11.2853 22.1313C11.2713 22.0997 11.2581 22.0677 11.2456 22.0353C11.2331 22.0029 11.2214 21.9703 11.2103 21.9373C11.1993 21.9044 11.189 21.8711 11.1795 21.8376C11.17 21.8041 11.1613 21.7703 11.1532 21.7364C11.1453 21.7024 11.138 21.6683 11.1316 21.6339C11.1251 21.5995 11.1195 21.565 11.1146 21.5303C11.1097 21.4957 11.1056 21.4609 11.1023 21.4261C11.0989 21.3912 11.0964 21.3562 11.0947 21.3212C11.0929 21.2862 11.092 21.2512 11.0918 21.2161C11.0916 21.1811 11.0923 21.146 11.0937 21.111C11.0951 21.076 11.0973 21.041 11.1004 21.0061C11.1034 20.9712 11.1072 20.9364 11.1117 20.9017C11.1163 20.867 11.1216 20.8324 11.1278 20.798C11.1339 20.7636 11.1408 20.7293 11.1485 20.6953C11.1562 20.6612 11.1647 20.6274 11.1739 20.5937C11.1831 20.5601 11.1931 20.5268 11.2038 20.4937C11.2145 20.4606 11.226 20.4279 11.2382 20.3954C11.2504 20.3629 11.2633 20.3308 11.277 20.299C11.2906 20.2672 11.305 20.2357 11.3201 20.2047C11.3352 20.1737 11.3509 20.143 11.3674 20.1128C11.3838 20.0826 11.401 20.0529 11.4188 20.0236C11.4366 19.9943 11.455 19.9655 11.4741 19.9372C11.4932 19.9088 11.5129 19.881 11.5333 19.8538C11.5537 19.8265 11.5746 19.7998 11.5962 19.7736C11.6178 19.7474 11.6399 19.7219 11.6626 19.6969C11.6854 19.6719 11.7086 19.6475 11.7325 19.6237C11.7563 19.5999 11.7806 19.5768 11.8055 19.5543C11.8304 19.5318 11.8558 19.51 11.8816 19.4889C11.9075 19.4677 11.9338 19.4473 11.9606 19.4276C11.9873 19.4078 12.0145 19.3888 12.0422 19.3705C12.0698 19.3522 12.0979 19.3346 12.1263 19.3178C12.1547 19.3009 12.1835 19.2849 12.2127 19.2696C12.2419 19.2543 12.2713 19.2397 12.3011 19.226C12.331 19.2123 12.3611 19.1993 12.3915 19.1872C12.4219 19.175 12.4525 19.1637 12.4834 19.1531C12.5144 19.1426 12.5455 19.1329 12.5769 19.124C12.6082 19.1151 12.6397 19.107 12.6715 19.0998C12.7032 19.0926 12.735 19.0862 12.7671 19.0807C12.799 19.0751 12.8312 19.0705 12.8634 19.0666Z" fill="white"/>
<path d="M29.1167 16.975C29.1365 16.9719 29.1564 16.9693 29.1763 16.9672C29.1963 16.9651 29.2162 16.9635 29.2362 16.9624C29.2562 16.9614 29.2763 16.9609 29.2963 16.9609C29.3163 16.9609 29.3363 16.9615 29.3563 16.9626C29.3764 16.9636 29.3963 16.9653 29.4163 16.9674C29.4362 16.9695 29.4561 16.9722 29.4759 16.9754C29.4957 16.9786 29.5155 16.9823 29.5351 16.9866C29.5547 16.9908 29.5743 16.9955 29.5937 17.0008C29.6131 17.0061 29.6324 17.0119 29.6516 17.0182C29.6708 17.0245 29.6898 17.0313 29.7086 17.0386C29.7275 17.0459 29.7462 17.0536 29.7647 17.0619C29.7832 17.0702 29.8015 17.079 29.8196 17.0883C29.8377 17.0975 29.8556 17.1073 29.8733 17.1175C29.8909 17.1277 29.9084 17.1384 29.9256 17.1495C29.9428 17.1606 29.9597 17.1722 29.9763 17.1843C29.993 17.1963 30.0094 17.2088 30.0255 17.2216C30.0416 17.2346 30.0574 17.2479 30.0729 17.2616C30.0883 17.2753 30.1035 17.2895 30.1184 17.304C30.1332 17.3185 30.1477 17.3335 30.1619 17.3488C30.1761 17.3641 30.1899 17.3798 30.2034 17.3958C30.2169 17.4119 30.2299 17.4282 30.2427 17.445C30.2554 17.4617 30.2677 17.4788 30.2797 17.4961C30.2916 17.5135 30.3032 17.5312 30.3143 17.5492C30.3255 17.5672 30.3362 17.5855 30.3466 17.6041C30.3569 17.6227 30.3668 17.6415 30.3763 17.6606C30.3857 17.6797 30.3948 17.699 30.4033 17.7186C30.412 17.7382 30.4201 17.758 30.4278 17.778C30.4355 17.798 30.4427 17.8182 30.4495 17.8386C30.4563 17.859 30.4626 17.8795 30.4685 17.9002C30.4743 17.921 30.4797 17.9418 30.4846 17.9628C30.4895 17.9838 30.4939 18.0049 30.4979 18.0262C30.5018 18.0474 30.5053 18.0688 30.5083 18.0902C30.5113 18.1116 30.5138 18.1331 30.5158 18.1547C30.5178 18.1763 30.5194 18.1979 30.5204 18.2195C30.5214 18.2411 30.522 18.2628 30.522 18.2844C30.522 18.3061 30.5216 18.3278 30.5207 18.3494C30.5197 18.371 30.5183 18.3927 30.5165 18.4143C30.5145 18.4358 30.5121 18.4573 30.5092 18.4788C30.5064 18.5002 30.503 18.5216 30.4991 18.5428C30.4953 18.5641 30.491 18.5852 30.4862 18.6063C30.4814 18.6273 30.4761 18.6482 30.4704 18.669C30.4646 18.6897 30.4584 18.7103 30.4517 18.7308C30.445 18.7512 30.4379 18.7714 30.4303 18.7915C30.4227 18.8115 30.4146 18.8313 30.4061 18.8509C30.3976 18.8706 30.3887 18.89 30.3793 18.9091C30.37 18.9283 30.3602 18.9471 30.3499 18.9658C30.3397 18.9844 30.329 19.0028 30.318 19.0209C30.3069 19.0389 30.2954 19.0567 30.2836 19.0741C30.2717 19.0916 30.2594 19.1087 30.2468 19.1255C30.2342 19.1423 30.2212 19.1588 30.2078 19.1749C30.1944 19.191 30.1806 19.2068 30.1666 19.2222C30.1524 19.2376 30.138 19.2526 30.1232 19.2672C30.1084 19.2818 30.0933 19.296 30.0779 19.3099C30.0625 19.3237 30.0467 19.3371 30.0307 19.3501C30.0147 19.3631 29.9984 19.3756 29.9818 19.3878C29.9651 19.3999 29.9483 19.4116 29.9312 19.4228C29.914 19.434 29.8967 19.4448 29.879 19.4551C29.8614 19.4655 29.8436 19.4753 29.8255 19.4847C29.8074 19.494 29.7892 19.5029 29.7707 19.5113C29.7523 19.5197 29.7336 19.5276 29.7148 19.535C29.696 19.5424 29.677 19.5493 29.6578 19.5558C29.6387 19.5622 29.6194 19.568 29.6 19.5734C29.5806 19.5788 29.5611 19.5837 29.5415 19.588C29.5218 19.5924 29.5021 19.5962 29.4823 19.5995C29.4624 19.6028 29.4425 19.6056 29.4225 19.6078C29.4025 19.6101 29.3824 19.6119 29.3623 19.6131C29.3422 19.6142 29.3221 19.6149 29.302 19.615C29.2819 19.6151 29.2618 19.6147 29.2417 19.6138C29.2216 19.6128 29.2015 19.6113 29.1814 19.6093C29.1614 19.6073 29.1414 19.6047 29.1215 19.6017C29.1016 19.5986 29.0817 19.595 29.062 19.5909C29.0422 19.5867 29.0226 19.582 29.0031 19.5769C28.9835 19.5717 28.9641 19.566 28.9448 19.5598C28.9255 19.5535 28.9064 19.5468 28.8874 19.5396C28.8684 19.5323 28.8496 19.5246 28.831 19.5163C28.8124 19.5081 28.7939 19.4994 28.7757 19.4902C28.7575 19.481 28.7395 19.4713 28.7217 19.4611C28.7039 19.4509 28.6863 19.4403 28.669 19.4292C28.6517 19.4181 28.6347 19.4065 28.6179 19.3945C28.6011 19.3825 28.5846 19.37 28.5684 19.3571C28.5522 19.3442 28.5363 19.3309 28.5207 19.3171C28.5051 19.3034 28.4898 19.2893 28.4749 19.2747C28.4599 19.2602 28.4452 19.2452 28.431 19.2299C28.4167 19.2146 28.4028 19.1989 28.3892 19.1828C28.3756 19.1667 28.3624 19.1503 28.3496 19.1335C28.3368 19.1167 28.3244 19.0996 28.3123 19.0822C28.3003 19.0647 28.2886 19.047 28.2774 19.029C28.2662 19.0109 28.2553 18.9925 28.2449 18.9739C28.2346 18.9552 28.2246 18.9363 28.215 18.9172C28.2055 18.898 28.1964 18.8786 28.1877 18.859C28.1791 18.8393 28.1709 18.8195 28.1631 18.7994C28.1554 18.7793 28.148 18.759 28.1412 18.7386C28.1344 18.7181 28.128 18.6974 28.1221 18.6766C28.1162 18.6558 28.1108 18.6348 28.1059 18.6138C28.101 18.5926 28.0965 18.5714 28.0926 18.5501C28.0886 18.5287 28.0851 18.5073 28.0821 18.4858C28.0791 18.4643 28.0766 18.4427 28.0745 18.421C28.0725 18.3993 28.071 18.3776 28.07 18.3559C28.0689 18.3342 28.0684 18.3124 28.0684 18.2907C28.0683 18.2689 28.0688 18.2471 28.0697 18.2254C28.0707 18.2036 28.0721 18.1819 28.0741 18.1603C28.076 18.1386 28.0784 18.117 28.0813 18.0955C28.0843 18.0739 28.0877 18.0525 28.0916 18.0311C28.0954 18.0097 28.0998 17.9885 28.1047 17.9674C28.1095 17.9463 28.1149 17.9253 28.1207 17.9044C28.1265 17.8836 28.1328 17.8629 28.1395 17.8425C28.1463 17.8219 28.1535 17.8016 28.1612 17.7815C28.1689 17.7614 28.177 17.7415 28.1856 17.7218C28.1942 17.7021 28.2032 17.6827 28.2127 17.6634C28.2222 17.6442 28.2321 17.6253 28.2424 17.6066C28.2527 17.5879 28.2635 17.5695 28.2746 17.5515C28.2858 17.5333 28.2974 17.5155 28.3094 17.4981C28.3213 17.4805 28.3337 17.4634 28.3465 17.4466C28.3592 17.4297 28.3724 17.4132 28.3859 17.3971C28.3994 17.381 28.4133 17.3652 28.4275 17.3498C28.4417 17.3344 28.4563 17.3194 28.4712 17.3048C28.4861 17.2902 28.5013 17.2759 28.5169 17.2621C28.5324 17.2483 28.5483 17.235 28.5644 17.222C28.5806 17.209 28.5971 17.1965 28.6138 17.1844C28.6306 17.1723 28.6476 17.1607 28.6648 17.1495C28.6821 17.1383 28.6996 17.1276 28.7173 17.1173C28.7351 17.1071 28.7531 17.0973 28.7713 17.088C28.7895 17.0787 28.8079 17.0699 28.8265 17.0616C28.8451 17.0533 28.8638 17.0455 28.8828 17.0382C28.9018 17.0308 28.9209 17.024 28.9401 17.0177C28.9594 17.0114 28.9788 17.0056 28.9983 17.0004C29.0178 16.9951 29.0375 16.9903 29.0572 16.9861C29.077 16.9819 29.0968 16.9782 29.1167 16.975Z" fill="white"/>
<path d="M25.7582 16.9771C25.7781 16.9739 25.7979 16.9712 25.8179 16.969C25.8378 16.9668 25.8578 16.9652 25.8778 16.9641C25.8979 16.963 25.9179 16.9624 25.938 16.9624C25.958 16.9624 25.9781 16.9629 25.9981 16.9639C26.0181 16.9649 26.0381 16.9664 26.0581 16.9685C26.078 16.9706 26.0979 16.9732 26.1178 16.9764C26.1376 16.9795 26.1574 16.9832 26.177 16.9874C26.1967 16.9916 26.2163 16.9963 26.2357 17.0015C26.2552 17.0068 26.2745 17.0125 26.2937 17.0187C26.3129 17.025 26.3319 17.0317 26.3508 17.039C26.3697 17.0463 26.3885 17.0541 26.407 17.0623C26.4255 17.0706 26.4439 17.0793 26.462 17.0886C26.4802 17.0978 26.4981 17.1075 26.5158 17.1177C26.5335 17.1279 26.551 17.1385 26.5682 17.1497C26.5854 17.1608 26.6024 17.1723 26.619 17.1843C26.6357 17.1963 26.6522 17.2088 26.6683 17.2217C26.6844 17.2346 26.7003 17.2479 26.7158 17.2616C26.7313 17.2753 26.7465 17.2895 26.7614 17.304C26.7763 17.3185 26.7908 17.3335 26.805 17.3487C26.8192 17.3641 26.833 17.3797 26.8465 17.3958C26.86 17.4118 26.8732 17.4282 26.8859 17.4449C26.8987 17.4617 26.9111 17.4788 26.923 17.4962C26.935 17.5136 26.9466 17.5313 26.9577 17.5493C26.9689 17.5673 26.9797 17.5856 26.99 17.6042C27.0004 17.6227 27.0103 17.6416 27.0198 17.6607C27.0293 17.6798 27.0383 17.6991 27.0469 17.7187C27.0556 17.7383 27.0637 17.7581 27.0714 17.7781C27.0791 17.7981 27.0864 17.8184 27.0932 17.8388C27.1 17.8592 27.1063 17.8797 27.1121 17.9005C27.118 17.9212 27.1234 17.9421 27.1283 17.9631C27.1332 17.9842 27.1377 18.0053 27.1416 18.0266C27.1455 18.0478 27.149 18.0692 27.152 18.0906C27.155 18.1121 27.1575 18.1336 27.1595 18.1552C27.1615 18.1768 27.163 18.1984 27.1641 18.2201C27.1651 18.2417 27.1656 18.2634 27.1657 18.285C27.1657 18.3068 27.1653 18.3284 27.1643 18.3501C27.1634 18.3718 27.1619 18.3934 27.16 18.415C27.1581 18.4366 27.1557 18.4581 27.1528 18.4796C27.1499 18.501 27.1465 18.5224 27.1426 18.5436C27.1388 18.5649 27.1344 18.5861 27.1296 18.6072C27.1248 18.6282 27.1194 18.6491 27.1137 18.6699C27.1079 18.6906 27.1017 18.7112 27.0949 18.7317C27.0882 18.7521 27.0811 18.7724 27.0734 18.7925C27.0658 18.8125 27.0577 18.8323 27.0492 18.852C27.0406 18.8716 27.0317 18.891 27.0222 18.9101C27.0129 18.9293 27.003 18.9482 26.9927 18.9668C26.9825 18.9854 26.9718 19.0038 26.9607 19.0218C26.9496 19.0399 26.9381 19.0577 26.9262 19.0751C26.9143 19.0926 26.902 19.1097 26.8893 19.1265C26.8766 19.1433 26.8635 19.1597 26.8501 19.1758C26.8367 19.1919 26.8229 19.2077 26.8087 19.223C26.7946 19.2384 26.7801 19.2534 26.7653 19.268C26.7504 19.2826 26.7353 19.2968 26.7198 19.3106C26.7044 19.3244 26.6886 19.3378 26.6725 19.3508C26.6564 19.3637 26.6401 19.3762 26.6234 19.3883C26.6068 19.4004 26.5899 19.412 26.5727 19.4232C26.5555 19.4344 26.5381 19.4452 26.5204 19.4555C26.5028 19.4657 26.4849 19.4755 26.4668 19.4848C26.4487 19.4941 26.4304 19.503 26.4119 19.5113C26.3934 19.5197 26.3747 19.5275 26.3558 19.5349C26.337 19.5423 26.318 19.5491 26.2988 19.5554C26.2796 19.5618 26.2603 19.5676 26.2409 19.5729C26.2214 19.5783 26.2019 19.5831 26.1823 19.5873C26.1626 19.5916 26.1428 19.5954 26.123 19.5986C26.1032 19.6019 26.0833 19.6046 26.0633 19.6067C26.0434 19.6089 26.0234 19.6106 26.0033 19.6117C25.9833 19.6128 25.9632 19.6134 25.9432 19.6134C25.9231 19.6135 25.9031 19.613 25.8831 19.612C25.863 19.611 25.843 19.6095 25.823 19.6074C25.8031 19.6053 25.7832 19.6027 25.7633 19.5996C25.7435 19.5964 25.7237 19.5928 25.704 19.5886C25.6844 19.5844 25.6648 19.5797 25.6453 19.5744C25.6258 19.5692 25.6065 19.5635 25.5873 19.5573C25.5681 19.551 25.549 19.5442 25.5301 19.537C25.5112 19.5297 25.4925 19.522 25.474 19.5137C25.4554 19.5054 25.437 19.4967 25.4189 19.4875C25.4007 19.4783 25.3828 19.4685 25.3651 19.4583C25.3474 19.4482 25.3299 19.4375 25.3127 19.4264C25.2954 19.4153 25.2785 19.4037 25.2618 19.3917C25.2451 19.3797 25.2287 19.3672 25.2125 19.3544C25.1964 19.3415 25.1805 19.3282 25.165 19.3145C25.1495 19.3007 25.1342 19.2866 25.1193 19.272C25.1045 19.2575 25.0899 19.2426 25.0757 19.2273C25.0615 19.212 25.0476 19.1963 25.0341 19.1803C25.0206 19.1643 25.0075 19.1479 24.9947 19.1311C24.982 19.1143 24.9696 19.0973 24.9576 19.0799C24.9456 19.0625 24.9341 19.0448 24.9229 19.0268C24.9117 19.0088 24.9009 18.9905 24.8906 18.9719C24.8802 18.9533 24.8703 18.9345 24.8608 18.9153C24.8513 18.8962 24.8422 18.8769 24.8336 18.8573C24.825 18.8377 24.8169 18.8179 24.8092 18.7979C24.8014 18.7778 24.7942 18.7576 24.7874 18.7372C24.7806 18.7168 24.7742 18.6962 24.7684 18.6754C24.7625 18.6547 24.7571 18.6338 24.7522 18.6128C24.7473 18.5917 24.7429 18.5706 24.7389 18.5493C24.735 18.528 24.7315 18.5066 24.7285 18.4852C24.7255 18.4638 24.723 18.4422 24.721 18.4206C24.719 18.399 24.7175 18.3774 24.7165 18.3557C24.7154 18.3341 24.7149 18.3124 24.7148 18.2907C24.7148 18.269 24.7153 18.2473 24.7162 18.2256C24.7171 18.204 24.7186 18.1823 24.7205 18.1607C24.7224 18.1391 24.7248 18.1176 24.7277 18.0962C24.7306 18.0747 24.734 18.0533 24.7379 18.032C24.7418 18.0107 24.7461 17.9895 24.751 17.9685C24.7558 17.9474 24.7611 17.9265 24.7669 17.9057C24.7727 17.885 24.7789 17.8644 24.7856 17.8439C24.7924 17.8235 24.7995 17.8032 24.8072 17.7831C24.8148 17.7631 24.8229 17.7433 24.8315 17.7236C24.84 17.704 24.849 17.6846 24.8584 17.6654C24.8678 17.6463 24.8777 17.6274 24.8879 17.6087C24.8982 17.5901 24.9089 17.5717 24.92 17.5537C24.9311 17.5356 24.9426 17.5179 24.9546 17.5004C24.9665 17.483 24.9788 17.4659 24.9915 17.4491C25.0041 17.4323 25.0172 17.4158 25.0307 17.3997C25.0441 17.3836 25.0579 17.3678 25.0721 17.3525C25.0862 17.3371 25.1007 17.3221 25.1156 17.3075C25.1304 17.2929 25.1455 17.2787 25.161 17.2649C25.1765 17.2511 25.1923 17.2377 25.2084 17.2248C25.2245 17.2118 25.2408 17.1993 25.2575 17.1872C25.2742 17.1751 25.2911 17.1635 25.3082 17.1523C25.3254 17.1411 25.3429 17.1304 25.3606 17.1201C25.3782 17.1098 25.3961 17.1001 25.4142 17.0907C25.4323 17.0814 25.4507 17.0726 25.4692 17.0643C25.4877 17.0559 25.5064 17.0481 25.5253 17.0407C25.5441 17.0334 25.5632 17.0265 25.5824 17.0202C25.6016 17.0139 25.6209 17.008 25.6403 17.0027C25.6597 16.9974 25.6793 16.9926 25.699 16.9883C25.7187 16.9841 25.7384 16.9803 25.7582 16.9771Z" fill="white"/>
<path d="M32.4705 16.976C32.4903 16.9728 32.5103 16.9701 32.5303 16.968C32.5502 16.9659 32.5703 16.9643 32.5904 16.9632C32.6104 16.9622 32.6305 16.9617 32.6506 16.9617C32.6706 16.9617 32.6907 16.9623 32.7107 16.9633C32.7308 16.9644 32.7509 16.9661 32.7708 16.9682C32.7908 16.9703 32.8108 16.973 32.8306 16.9762C32.8505 16.9794 32.8703 16.9832 32.8899 16.9874C32.9097 16.9917 32.9292 16.9965 32.9487 17.0017C32.9682 17.0071 32.9875 17.0129 33.0067 17.0192C33.026 17.0255 33.045 17.0324 33.0639 17.0397C33.0828 17.0471 33.1015 17.0549 33.1201 17.0632C33.1386 17.0716 33.157 17.0805 33.1751 17.0898C33.1933 17.0991 33.2112 17.1089 33.2289 17.1192C33.2466 17.1294 33.264 17.1402 33.2812 17.1514C33.2984 17.1626 33.3154 17.1742 33.332 17.1863C33.3487 17.1984 33.3651 17.211 33.3813 17.2239C33.3974 17.2369 33.4132 17.2503 33.4287 17.2641C33.4442 17.2779 33.4594 17.2922 33.4742 17.3068C33.4891 17.3214 33.5036 17.3364 33.5177 17.3518C33.5319 17.3672 33.5457 17.383 33.5592 17.3991C33.5726 17.4152 33.5857 17.4317 33.5984 17.4485C33.6111 17.4654 33.6234 17.4825 33.6354 17.5C33.6473 17.5175 33.6588 17.5352 33.6699 17.5533C33.681 17.5714 33.6918 17.5898 33.702 17.6085C33.7123 17.6271 33.7222 17.6461 33.7316 17.6653C33.741 17.6844 33.75 17.7039 33.7585 17.7235C33.7671 17.7432 33.7751 17.7631 33.7828 17.7832C33.7904 17.8033 33.7976 17.8235 33.8043 17.844C33.811 17.8645 33.8172 17.8852 33.823 17.906C33.8288 17.9268 33.834 17.9478 33.8388 17.9688C33.8437 17.9899 33.848 18.0111 33.8519 18.0324C33.8557 18.0538 33.8591 18.0752 33.862 18.0967C33.8649 18.1182 33.8673 18.1397 33.8691 18.1614C33.8711 18.183 33.8725 18.2047 33.8734 18.2264C33.8743 18.2481 33.8747 18.2698 33.8746 18.2915C33.8746 18.3132 33.874 18.3349 33.8729 18.3567C33.8719 18.3784 33.8703 18.4 33.8683 18.4216C33.8662 18.4432 33.8637 18.4647 33.8606 18.4862C33.8577 18.5077 33.8542 18.5291 33.8502 18.5504C33.8461 18.5717 33.8416 18.5928 33.8367 18.6139C33.8317 18.6349 33.8263 18.6558 33.8204 18.6766C33.8145 18.6974 33.8081 18.718 33.8013 18.7384C33.7944 18.7588 33.7871 18.7791 33.7794 18.7991C33.7716 18.8191 33.7634 18.8389 33.7547 18.8585C33.746 18.8781 33.7369 18.8975 33.7274 18.9166C33.7178 18.9357 33.7079 18.9545 33.6974 18.9731C33.687 18.9917 33.6762 19.01 33.665 19.028C33.6537 19.046 33.6421 19.0637 33.6301 19.0811C33.618 19.0985 33.6056 19.1156 33.5928 19.1323C33.58 19.149 33.5668 19.1654 33.5532 19.1814C33.5397 19.1974 33.5257 19.2131 33.5115 19.2283C33.4972 19.2436 33.4826 19.2585 33.4676 19.2731C33.4527 19.2876 33.4374 19.3017 33.4218 19.3153C33.4062 19.329 33.3903 19.3423 33.3741 19.3551C33.3579 19.368 33.3415 19.3804 33.3247 19.3924C33.3079 19.4043 33.2909 19.4159 33.2736 19.427C33.2564 19.438 33.2388 19.4486 33.221 19.4588C33.2033 19.4689 33.1853 19.4785 33.1671 19.4877C33.1489 19.4969 33.1305 19.5056 33.1119 19.5138C33.0933 19.522 33.0745 19.5297 33.0556 19.5369C33.0366 19.5441 33.0175 19.5507 32.9983 19.5569C32.979 19.5631 32.9596 19.5688 32.9402 19.5739C32.9206 19.5791 32.901 19.5837 32.8813 19.5878C32.8616 19.5919 32.8418 19.5955 32.8219 19.5985C32.802 19.6016 32.7822 19.6041 32.7623 19.6061C32.7424 19.6081 32.7224 19.6095 32.7024 19.6105C32.6824 19.6114 32.6624 19.6118 32.6424 19.6117C32.6224 19.6116 32.6024 19.6109 32.5824 19.6097C32.5624 19.6085 32.5425 19.6068 32.5226 19.6046C32.5027 19.6023 32.4828 19.5995 32.4631 19.5962C32.4433 19.5929 32.4236 19.5891 32.404 19.5847C32.3844 19.5804 32.3649 19.5756 32.3455 19.5702C32.3262 19.5648 32.3069 19.5589 32.2878 19.5525C32.2687 19.5461 32.2497 19.5392 32.2309 19.5318C32.2121 19.5244 32.1935 19.5165 32.175 19.5081C32.1566 19.4998 32.1383 19.4909 32.1203 19.4815C32.1022 19.4722 32.0844 19.4624 32.0668 19.452C32.0492 19.4418 32.0319 19.431 32.0148 19.4197C31.9976 19.4085 31.9808 19.3969 31.9642 19.3848C31.9476 19.3727 31.9313 19.3601 31.9153 19.3471C31.8993 19.3342 31.8836 19.3208 31.8682 19.307C31.8528 19.2932 31.8377 19.2789 31.8229 19.2643C31.8082 19.2497 31.7937 19.2347 31.7797 19.2193C31.7656 19.204 31.7518 19.1883 31.7385 19.1721C31.7251 19.1561 31.7121 19.1396 31.6995 19.1228C31.6868 19.106 31.6746 19.0889 31.6628 19.0714C31.6509 19.054 31.6395 19.0363 31.6284 19.0182C31.6174 19.0002 31.6067 18.9819 31.5965 18.9633C31.5863 18.9446 31.5765 18.9257 31.5672 18.9066C31.5578 18.8875 31.5488 18.8681 31.5404 18.8485C31.5319 18.8289 31.5239 18.8091 31.5162 18.7891C31.5087 18.7691 31.5015 18.7488 31.4949 18.7284C31.4882 18.708 31.482 18.6875 31.4762 18.6667C31.4705 18.646 31.4653 18.6251 31.4605 18.6041C31.4557 18.5831 31.4513 18.562 31.4475 18.5407C31.4437 18.5195 31.4403 18.4982 31.4375 18.4767C31.4346 18.4553 31.4322 18.4339 31.4303 18.4123C31.4284 18.3907 31.427 18.3691 31.4261 18.3475C31.4252 18.3259 31.4247 18.3043 31.4248 18.2826C31.4249 18.261 31.4254 18.2394 31.4265 18.2178C31.4275 18.1961 31.429 18.1745 31.431 18.153C31.4331 18.1315 31.4356 18.11 31.4386 18.0886C31.4416 18.0672 31.445 18.0459 31.449 18.0247C31.453 18.0035 31.4574 17.9824 31.4623 17.9614C31.4672 17.9404 31.4726 17.9196 31.4785 17.8989C31.4843 17.8782 31.4906 17.8577 31.4974 17.8373C31.5042 17.8169 31.5114 17.7968 31.5191 17.7768C31.5268 17.7568 31.535 17.737 31.5436 17.7175C31.5522 17.698 31.5612 17.6787 31.5707 17.6596C31.5801 17.6405 31.59 17.6217 31.6003 17.6032C31.6107 17.5846 31.6214 17.5664 31.6326 17.5484C31.6437 17.5304 31.6553 17.5128 31.6672 17.4954C31.6791 17.4781 31.6915 17.461 31.7042 17.4443C31.7169 17.4276 31.73 17.4112 31.7435 17.3952C31.7569 17.3792 31.7708 17.3636 31.7849 17.3483C31.7991 17.333 31.8136 17.3181 31.8285 17.3036C31.8433 17.2891 31.8585 17.275 31.874 17.2613C31.8895 17.2476 31.9053 17.2343 31.9213 17.2214C31.9374 17.2085 31.9538 17.1961 31.9704 17.1841C31.9871 17.1721 32.004 17.1605 32.0212 17.1494C32.0383 17.1383 32.0558 17.1277 32.0734 17.1175C32.0911 17.1073 32.109 17.0976 32.1271 17.0884C32.1451 17.0791 32.1634 17.0704 32.1819 17.0621C32.2004 17.0538 32.2191 17.0461 32.238 17.0388C32.2568 17.0316 32.2758 17.0248 32.2949 17.0185C32.3141 17.0122 32.3334 17.0064 32.3528 17.0012C32.3722 16.996 32.3917 16.9913 32.4113 16.9871C32.431 16.9828 32.4507 16.9791 32.4705 16.976Z" fill="white"/>
</g>
<defs>
<clipPath id="clip0_563_130">
<rect width="40" height="30" fill="white"/>
</clipPath>
</defs>
</svg>
